<?xml version="1.0" encoding="UTF-8"?>
<svg xmlns="http://www.w3.org/2000/svg" xmlns:xlink="http://www.w3.org/1999/xlink" width="64px" height="64px" viewBox="0 0 64 64" version="1.1">
    
    <title>Apple</title>
    <desc>Created with Sketch.</desc>
    <defs/>
    <g id="SVG" stroke="none" stroke-width="1" fill="none" fill-rule="evenodd">
        <g id="Color" transform="translate(-717.000000, -449.000000)">
            <g id="Apple" transform="translate(719.000000, 449.000000)">
                <path d="M57.5819489,32.0928303 C57.5819489,16.7163171 45.1212435,8.61019967 29.7479942,8.61019967 C14.3766611,8.61019967 1.91595562,16.7163171 1.91595562,32.0928303 C1.91595562,35.1711998 2.43523152,38.1230609 3.35689834,40.89091 L3.34348531,40.89091 C3.34348531,40.89091 12.2631507,69.0716002 29.7479942,59.9361649 C47.2347539,69.0716002 56.1544192,40.89091 56.1544192,40.89091 L56.1410062,40.89091 C57.062673,38.1230609 57.5819489,35.1711998 57.5819489,32.0928303" id="Fill-1" fill="#E34361"/>
                <path d="M57.5819489,32.0928303 C57.5819489,22.420693 52.6459536,15.6294955 45.1614825,11.9185843 C49.6720931,15.8460931 52.4466743,21.4431286 52.4466743,28.6675212 C52.4466743,31.7458908 51.9273984,34.6977519 51.0057316,37.4675178 L51.0191446,37.4675178 C51.0191446,37.4675178 44.0654463,59.4032964 30.4109811,58.2743054 C29.8399693,59.0774416 29.1616531,59.8269077 28.4354333,60.545705 C28.8684826,60.3597761 29.303448,60.1680968 29.7479942,59.9361649 C47.2347539,69.0716002 56.1544192,40.89091 56.1544192,40.89091 L56.1410062,40.89091 C57.062673,38.1230609 57.5819489,35.1711998 57.5819489,32.0928303" id="Fill-3" fill="#BC395B"/>
                <path d="M29.7489523,25.6228873 C22.9178874,25.6228873 20.011092,22.0480684 19.8903747,21.894725 C19.2331362,21.0647536 19.373015,19.8590909 20.2046229,19.2016309 C21.0323985,18.5460877 22.2395713,18.6860136 22.8948936,19.5159849 C22.9542942,19.5849895 24.8838544,21.7893014 29.7489523,21.7893014 C34.6140501,21.7893014 36.5416942,19.5849895 36.6221724,19.4910666 C37.3004885,18.6936807 38.5019128,18.5748396 39.3086108,19.2361331 C40.1153088,19.9012603 40.2551876,21.0743376 39.6075298,21.894725 C39.4868125,22.0480684 36.5800172,25.6228873 29.7489523,25.6228873" id="Fill-5" fill="#454849"/>
                <path d="M29.7489523,58.0193719 C30.0536197,58.0193719 30.3582871,58.0922101 30.6361284,58.2359695 C34.1503425,60.074174 37.3886313,60.3367746 40.5291966,59.037189 C48.9219215,55.5735441 53.666302,42.2729177 54.26414,40.5056346 C54.2794692,40.4308797 54.2986306,40.3580415 54.3235405,40.2852034 C55.214549,37.6112772 55.6648436,34.8530121 55.6648436,32.0928303 C55.6648436,16.1738647 41.7037949,10.5269926 29.7489523,10.5269926 C17.7941097,10.5269926 3.83306093,16.1738647 3.83306093,32.0928303 C3.83306093,34.8530121 4.28335553,37.6112772 5.17436399,40.2852034 C5.1992739,40.3580415 5.21843538,40.4327965 5.23376455,40.5056346 C5.83543479,42.2786681 10.600893,55.5888784 18.9725402,59.0410226 C22.1150217,60.3310242 25.3475621,60.0703404 28.8617761,58.2359695 C29.1396174,58.0922101 29.4442849,58.0193719 29.7489523,58.0193719 M36.5627718,63.6796615 C34.3304603,63.6796615 32.0540774,63.1448763 29.7489523,62.073389 C25.5391768,64.0304347 21.4271248,64.2048628 17.5047714,62.5813392 C6.92189027,58.212968 1.73104741,42.1521598 1.51643892,41.4697815 C1.4953613,41.4046105 1.47811598,41.3394395 1.46470295,41.2723518 C0.493216298,38.2744876 0.000766458894,35.1884509 0.000766458894,32.0928303 C0.000766458894,16.9003292 11.9556091,6.6934067 29.7489523,6.6934067 C47.5422955,6.6934067 59.4971381,16.9003292 59.4971381,32.0928303 C59.4971381,35.1884509 59.0046882,38.2744876 58.0332016,41.2742686 C58.0197886,41.3394395 58.0025432,41.4046105 57.9814656,41.4697815 C57.7668571,42.1521598 52.5760143,58.212968 41.9931331,62.5813392 C40.2187808,63.3135541 38.4061055,63.6796615 36.5627718,63.6796615" id="Fill-7" fill="#454849"/>
                <path d="M29.746078,25.6211622 C28.9278832,25.6211622 28.1729212,25.0959609 27.9180736,24.2717399 C27.7494526,23.7273707 23.915242,10.8196869 34.2202818,1.06704431 C34.9867407,0.342496572 36.1996619,0.37316526 36.929714,1.14179924 C37.6559338,1.91235001 37.6214432,3.12567996 36.8530681,3.85406128 C28.3108838,11.9352604 31.4437845,22.6923025 31.5817471,23.1446657 C31.8883307,24.1548156 31.3192349,25.2282196 30.3094253,25.5368233 C30.1216429,25.5924103 29.9319443,25.6211622 29.746078,25.6211622" id="Fill-10" fill="#454849"/>
                <path d="M9.0422988,5.01774629 C30.1620736,-1.65269322 29.165677,15.4872695 29.165677,15.4872695 C29.165677,15.4872695 15.7104912,26.1446383 9.0422988,5.01774629" id="Fill-13" fill="#3BB777"/>
                <path d="M9.0422988,5.01774629 L29.165677,15.4872695 C29.165677,15.4872695 15.7104912,26.1446383 9.0422988,5.01774629" id="Fill-15" fill="#229857"/>
                <path d="M11.5043564,6.29778063 C13.4990656,11.6954696 16.1280197,14.9310161 19.3356501,15.9277485 C22.6084296,16.9513159 25.8218085,15.348877 27.234009,14.4824866 C27.1324532,12.8302111 26.5920997,9.27839369 23.8826675,7.18333898 C21.2230551,5.12853693 17.0669318,4.83143402 11.5043564,6.29778063 M21.5488002,20.0929396 C20.4853385,20.0929396 19.3720569,19.9491801 18.2376978,19.6003238 C13.3879291,18.1128925 9.67826806,13.4014154 7.21601887,5.59431762 C7.06272709,5.109369 7.10871462,4.58225093 7.34248459,4.13372138 C7.5781707,3.68327503 7.98056161,3.34208588 8.46534686,3.18874245 C16.2698145,0.727580279 22.2558585,1.05726867 26.2567739,4.17397403 C31.4457006,8.2145736 31.0950457,15.2971236 31.0778004,15.5999769 C31.047142,16.1443461 30.7827137,16.6484626 30.3534967,16.9896518 C30.161882,17.1410784 26.3698266,20.0929396 21.5488002,20.0929396" id="Fill-17" fill="#454849"/>
                <path d="M23.556156,32.3634814 C16.7135942,32.3634814 13.0824952,27.4737426 12.9272873,27.2590618 C12.4597474,26.6169361 12.6034584,25.7179602 13.2453678,25.2521795 C13.8853609,24.7883156 14.7802017,24.9263247 15.2496578,25.5665336 C15.3895365,25.7543793 18.4036361,29.7336415 24.0620189,29.4767912 C24.8610523,29.3790348 25.5259554,30.0575795 25.560446,30.8511318 C25.5949367,31.6427673 24.9798534,32.3155616 24.1884846,32.3481471 C23.9738761,32.3577311 23.7630999,32.3634814 23.556156,32.3634814" id="Fill-19" fill="#FEFEFE"/>
                <path d="M12.3593413,20.7714843 C13.1507101,21.4423618 13.2503497,22.6288567 12.5777821,23.4204922 C11.9071305,24.2140445 10.7210354,24.3118009 9.92966658,23.6409234 C9.13829777,22.9700458 9.03865812,21.783551 9.7112258,20.9899987 C10.3818773,20.1983632 11.5679725,20.1006068 12.3593413,20.7714843" id="Fill-21" fill="#FEFEFE"/>
            </g>
        </g>
    </g>

	
	
	<metadata>
		<rdf:RDF xmlns:rdf="http://www.w3.org/1999/02/22-rdf-syntax-ns#" xmlns:rdfs="http://www.w3.org/2000/01/rdf-schema#" xmlns:dc="http://purl.org/dc/elements/1.1/">
			<rdf:Description about="https://iconscout.com/legal#licenses" dc:title="Apple, Fruit, Food, Vitamin, Healthy" dc:description="Apple, Fruit, Food, Vitamin, Healthy" dc:publisher="Iconscout" dc:date="2016-12-14" dc:format="image/svg+xml" dc:language="en">
				<dc:creator>
					<rdf:Bag>
						<rdf:li>AomAm .</rdf:li>
					</rdf:Bag>
				</dc:creator>
			</rdf:Description>
		</rdf:RDF>
    </metadata></svg>
