<?xml version="1.0" encoding="UTF-8"?>
<svg xmlns="http://www.w3.org/2000/svg" xmlns:xlink="http://www.w3.org/1999/xlink" width="512px" height="512px" viewBox="0 0 512 512" version="1.1">
    
    <title>Beer</title>
    <desc>Created with Sketch.</desc>
    <defs/>
    <g id="SVG" stroke="none" stroke-width="1" fill="none" fill-rule="evenodd">
        <g id="Beer">
            <g id="6" transform="translate(112.000000, 1.000000)">
                <polygon id="Fill-1" fill="#FDDA00" points="143.5021 497.847737 234.2711 497.847737 276.5021 120.18252 143.5021 120.18252 10.5021 120.18252 52.7331 497.847737"/>
                <polygon id="Fill-2" fill="#FEFEFE" points="143.5021 161.868884 271.8401 161.868884 276.5021 120.183215 143.5021 120.183215 10.5021 120.183215 15.1641 161.868884"/>
                <polygon id="Fill-3" fill="#FEFEFE" points="48.5989 460.864211 52.7359 497.846347 143.5049 497.846347 234.2669 497.846347 238.4039 460.864211 143.5049 460.864211"/>
                <g id="Group-16" transform="translate(0.000000, 0.216765)">
                    <polygon id="Fill-4" fill="#88441E" opacity="0.3" points="234.5021 119.96645 192.2711 497.631666 234.2711 497.631666 276.5021 119.96645"/>
                    <path d="M62.1341,487.209554 L224.8701,487.209554 L264.7701,130.387172 L22.2341,130.387172 L62.1341,487.209554 Z M234.2711,508.052388 L52.7331,508.052388 C47.3851,508.052388 42.8911,504.057512 42.2961,498.777327 L0.0651,121.119058 C-0.2639,118.166324 0.6881,115.220536 2.6831,113.018143 C4.6711,110.808803 7.5131,109.544338 10.5021,109.544338 L276.5021,109.544338 C279.4911,109.544338 282.3331,110.808803 284.3211,113.018143 C286.3161,115.220536 287.2681,118.166324 286.9391,121.119058 L244.7081,498.777327 C244.1131,504.057512 239.6191,508.052388 234.2711,508.052388 L234.2711,508.052388 Z" id="Fill-6" fill="#2E2E30"/>
                    <path d="M234.1332,74.3866442 C232.2362,74.3866442 230.4022,74.657601 228.5822,74.9424531 C228.5822,74.7548676 228.6102,74.5742297 228.6102,74.3866442 C228.6102,53.1755861 211.2852,35.9871951 189.9212,35.9871951 C188.1432,35.9871951 186.4142,36.1469902 184.6992,36.3762614 C177.1252,21.3902633 161.5502,11.0800077 143.5042,11.0800077 C125.4652,11.0800077 109.8832,21.3902633 102.3162,36.3762614 C100.6012,36.1469902 98.8652,35.9871951 97.0872,35.9871951 C75.7232,35.9871951 58.4052,53.1755861 58.4052,74.3866442 C58.4052,74.5742297 58.4192,74.7548676 58.4262,74.9424531 C56.6062,74.657601 54.7792,74.3866442 52.8682,74.3866442 C33.3382,74.3866442 17.5042,90.1021415 17.5042,109.492925 C17.5042,113.154317 18.1342,116.655913 19.1912,119.969924 L57.1732,119.969924 L57.1732,176.09273 C57.1732,186.965742 66.0492,195.775313 77.0042,195.775313 C87.9592,195.775313 96.8422,186.965742 96.8422,176.09273 L96.8422,119.969924 L267.7822,119.969924 C268.8322,116.648965 269.5042,113.161264 269.5042,109.492925 C269.5042,90.1021415 253.6702,74.3866442 234.1332,74.3866442" id="Fill-8" fill="#FEFEFE"/>
                    <path d="M28.0021,109.545032 L57.1711,109.545032 C62.9671,109.545032 67.6711,114.20688 67.6711,119.96645 L67.6711,176.096203 C67.6711,181.19575 71.8571,185.35737 77.0021,185.35737 C82.1471,185.35737 86.3401,181.19575 86.3401,176.096203 L86.3401,119.96645 C86.3401,114.20688 91.0441,109.545032 96.8401,109.545032 L259.0021,109.545032 L259.0021,109.489452 C259.0021,95.8790805 247.8441,84.8045877 234.1311,84.8045877 C232.8011,84.8045877 231.5131,85.0338589 230.2391,85.2353396 C227.2291,85.693882 224.1071,84.853221 221.7691,82.8731517 C219.4311,80.8930824 218.0801,77.9889807 218.0801,74.9459269 C218.0801,74.6888653 218.1011,74.1538992 218.1221,73.8968375 C218.1081,58.9594727 205.4661,46.4051386 189.9191,46.4051386 C188.6101,46.4051386 187.3431,46.5371433 186.0831,46.7038859 C181.6731,47.2805377 177.3191,45.0156163 175.3101,41.0485301 C169.2201,28.9874765 157.0331,21.5048989 143.5021,21.5048989 C129.9711,21.5048989 117.7911,28.9874765 111.7011,41.0485301 C109.6921,45.0156163 105.3031,47.2805377 100.9281,46.7038859 C99.6611,46.5371433 98.3941,46.4051386 97.0851,46.4051386 C81.5451,46.4051386 68.9031,58.9594727 68.9031,74.3831704 C69.0081,77.5026479 67.7271,80.5943351 65.3751,82.6577757 C63.0231,84.7212163 59.8801,85.7355676 56.7791,85.2353396 C55.4981,85.0338589 54.2101,84.8045877 52.8731,84.8045877 C39.1601,84.8045877 28.0021,95.8790805 28.0021,109.489452 L28.0021,109.545032 Z M77.0021,206.200204 C60.2721,206.200204 46.6711,192.694047 46.6711,176.096203 L46.6711,130.387867 L19.1891,130.387867 C14.6181,130.387867 10.5721,127.449027 9.1861,123.120665 C7.7301,118.59777 7.0021,114.012347 7.0021,109.489452 C7.0021,85.6799867 25.5101,66.0877222 48.9951,64.1215481 C53.7201,42.2921526 73.1941,25.8263132 96.5181,25.5692516 C106.9551,10.0482874 124.3851,0.66206421 143.5021,0.66206421 C162.6191,0.66206421 180.0561,10.0482874 190.4931,25.5692516 C213.8171,25.8332609 233.2911,42.2921526 238.0161,64.1284957 C261.4941,66.0877222 280.0021,85.6869343 280.0021,109.489452 C280.0021,113.956766 279.2741,118.410185 277.7971,123.092875 C276.4181,127.435132 272.3651,130.387867 267.7801,130.387867 L107.3401,130.387867 L107.3401,176.096203 C107.3401,192.694047 93.7321,206.200204 77.0021,206.200204 L77.0021,206.200204 Z" id="Fill-10" fill="#2E2E30"/>
                    <path d="M53.4044,460.647445 L232.8424,460.647445" id="Fill-12" fill="#FEFEFE"/>
                    <path d="M232.841,471.068863 L53.403,471.068863 C47.607,471.068863 42.903,466.400068 42.903,460.647445 C42.903,454.894823 47.607,450.226028 53.403,450.226028 L232.841,450.226028 C238.637,450.226028 243.341,454.894823 243.341,460.647445 C243.341,466.400068 238.637,471.068863 232.841,471.068863" id="Fill-14" fill="#2E2E30"/>
                </g>
            </g>
        </g>
    </g>

	<metadata>
		<rdf:RDF xmlns:rdf="http://www.w3.org/1999/02/22-rdf-syntax-ns#" xmlns:rdfs="http://www.w3.org/2000/01/rdf-schema#" xmlns:dc="http://purl.org/dc/elements/1.1/">
			<rdf:Description about="https://iconscout.com/legal#licenses" dc:title="Beer" dc:description="Beer" dc:publisher="Iconscout" dc:date="2017-04-21" dc:format="image/svg+xml" dc:language="en">
				<dc:creator>
					<rdf:Bag>
						<rdf:li>AomAm .</rdf:li>
					</rdf:Bag>
				</dc:creator>
			</rdf:Description>
		</rdf:RDF>
    </metadata></svg>
