<svg id="Layer_1" height="512" viewBox="0 0 512 512" width="512" xmlns="http://www.w3.org/2000/svg" data-name="Layer 1"><path d="m283.64 51.27v61.79l-8.41-6.19-11.1 32.79-8.44-64.06v-24.33z" fill="#97c447"/><path d="m283.235 112.762.405.298v-1.493z" fill="#619329"/><path d="m265.69 75.6v-24.33h-10v24.33l8.44 64.06 7.198-21.264z" fill="#619329"/><path d="m264.13 139.66-8.13 24.03-18.06-84.85h-10.99l-8.62-40.7 30.82-12.14 6.54 49.6z" fill="#97c447"/><g fill="#619329"><path d="m249.644 29.745-.494-3.745-30.82 12.14 8.62 40.7h10l-8.62-40.7z"/><path d="m247.94 78.84h-10l18.06 84.85 6.138-18.143z"/><path d="m256 163.69 8.13-24.03 11.1-32.79 8.41 6.19 9.34 6.88-15.45 55.73-.43 1.54s-1.02 15.77-22.85 15.77c-21.14 0-22.85-15.77-22.85-15.77l-.18-.96-18.5-97.41h25.22z"/></g><path d="m244.985 178.485-.18-.96-18.5-97.41.645-1.275h-14.23l18.5 97.41.18.96s1.71 15.77 22.85 15.77c1.3 0 2.521-.06 3.678-.165-11.809-3.891-12.943-14.33-12.943-14.33z" fill="#97c447"/><path d="m267.585 164.965 8.13-24.03 8.735-25.805-2.81-2.07-8.41-6.19-11.058 32.665z" fill="#97c447"/><path d="m326.11 195.06a6.231 6.231 0 0 1 -.69 2.81c-4.79 9.7-34.05 17.16-69.42 17.16s-64.63-7.46-69.42-17.16a6.231 6.231 0 0 1 -.69-2.81c0-8.37 18.09-15.54 43.74-18.51l1.59-.3.18.96s1.71 15.77 22.85 15.77c21.83 0 22.85-15.77 22.85-15.77l.43-1.54 2.12.59c27.09 2.76 46.46 10.14 46.46 18.8z" fill="#d17490"/><path d="m210.683 200.39a6.231 6.231 0 0 1 -.69-2.81c0-5.907 9.018-11.214 23.337-14.871a16.345 16.345 0 0 1 -1.93-5.5l-.18-.96-1.59.3c-25.65 2.97-43.74 10.14-43.74 18.51a6.231 6.231 0 0 0 .69 2.81c4.249 8.6 27.757 15.441 57.7 16.877-17.848-3.027-30.58-8.246-33.597-14.356z" fill="#f4a2b8"/><path d="m278.353 195.5c21.019 0 22.744-14.614 22.843-15.7a164.484 164.484 0 0 0 -21.546-3.54l-2.12-.59-.43 1.54s-.717 10.9-13.506 14.571c3.358 2.148 8.09 3.719 14.759 3.719z" fill="#f4a2b8"/><path d="m150.76 224.07v-.01a113.8 113.8 0 0 1 35.82-26.19c4.79 9.7 34.05 17.16 69.42 17.16s64.63-7.46 69.42-17.16c34.5 16.51 57.29 45.45 57.3 80.48v.02c0 76.74-84.56 93.49-105.57 113.74-18.27 17.61-20.69 97.4-21.15 93.77-5.29-41.72-14.32-77.22-21.15-86.3-33.58-44.67-105.57-41.36-105.57-121.21 0-20.65 7.91-39.18 21.48-54.3z" fill="#f4a2b8"/><path d="m326 356.745c-49.661-25.628-113.052 8.651-147.768-63.258-8.978-18.6-9.91-38.722-4.263-58.238v-.009a110.7 110.7 0 0 1 16.367-33.179 12.457 12.457 0 0 1 -3.751-4.191 113.8 113.8 0 0 0 -35.82 26.19v.01c-13.57 15.12-21.48 33.65-21.48 54.3 0 79.85 71.99 76.54 105.57 121.21 6.83 9.08 15.86 44.58 21.15 86.3.46 3.63 2.88-76.16 21.15-93.77 9.572-9.226 32.335-17.728 54.283-31.5a30.843 30.843 0 0 0 -5.438-3.865z" fill="#d17490"/><path d="m185.8 369.065c16.921 9.779 32.905 19.015 44.258 34.121 5.563 7.4 14.562 40.638 19.993 83.449a6.062 6.062 0 0 0 5.981 5.365h.157c2.023-.052 5.491-1 5.991-6.769.074-.854.168-2.106.286-3.69 4.437-59.609 12.7-79.185 18.846-85.111 4.818-4.643 14.253-9.511 25.179-15.147 32.746-16.893 82.233-42.421 82.233-102.912a85.522 85.522 0 0 0 -16.869-50.742c-9.667-13.212-23.362-24.6-39.777-33.133-.706-15.524-30.016-21.5-46.988-23.652l13.669-49.3a6 6 0 0 0 -2.223-6.434l-6.9-5.084v-58.758a6 6 0 0 0 -6-6h-25.894l-2.642-20.052a6 6 0 0 0 -8.148-4.8l-30.826 12.145a6 6 0 0 0 -3.67 6.826l7.089 33.457h-6.824a6 6 0 0 0 -5.9 7.12l17.328 91.243c-11.279 1.585-21 3.993-28.317 7.033-10.289 4.272-15.632 9.742-15.923 16.259a118.814 118.814 0 0 0 -33.478 25.41c-.1.108-.2.222-.3.337-2.139 2.391-4.146 4.852-6 7.383a85.53 85.53 0 0 0 -16.867 50.74c.012 54.567 31.796 72.931 62.536 90.696zm75.891-311.8h15.948v44.107a5.994 5.994 0 0 0 -8.091 3.568l-2.833 8.372-5.024-38.109zm-17.486-22.865 13.795 104.655-.682 2.014-13.508-63.469a6 6 0 0 0 -5.869-4.751h-6.13l-6.564-30.979zm-24.238 50.444h13.116l16.706 78.481-2.624 7.752a6 6 0 1 0 11.367 3.846l3.117-9.21c.026-.071.049-.142.073-.214l16.558-48.931 7.811 5.755-14.777 53.288a4.47 4.47 0 0 0 -.2 1.165 10.685 10.685 0 0 1 -2.339 5.084c-2.82 3.4-7.706 5.119-14.521 5.119-6.58 0-11.4-1.748-14.311-5.193a11.868 11.868 0 0 1 -2.572-5.221 3.136 3.136 0 0 0 -.07-.47zm6.8 98.119c2.913 7.257 10.777 16.016 27.482 16.016 17.463 0 25.171-9.037 27.771-16.424 27.534 3.222 37.708 10.343 38.095 12.481a.638.638 0 0 1 -.021.08c-.029.055-.061.107-.088.163s-.038.093-.058.139c-.819 1.354-4.829 4.959-17.138 8.3-12.6 3.422-29.223 5.306-46.811 5.306s-34.213-1.884-46.811-5.306c-12.2-3.314-16.249-6.886-17.115-8.233-.03-.069-.054-.138-.086-.206s-.068-.122-.1-.184v-.013c.356-2.03 9.702-8.718 34.881-12.119zm-76.92 51.626c4.579 5.906 11.695 11.5 20.847 16.272 13.43 7 29 11.02 42.723 11.02a6 6 0 0 0 0-12c-11.677 0-25.575-3.611-37.174-9.66-8.708-4.541-15.285-9.988-18.362-15.07a107.521 107.521 0 0 1 27.076-19.751q6.178 5.644 19.821 9.547c13.763 3.919 31.953 6.077 51.222 6.077s37.459-2.158 51.222-6.077q13.638-3.885 19.822-9.548c30.843 16.151 48.757 41.628 49.636 70.72-15.279 16.783-31.478 21.994-64.89 21.3a6 6 0 1 0 -.252 12q2.95.063 5.748.063c26.846 0 43.752-4.352 58.11-15.7-7.532 42.326-45.722 62.036-74.406 76.833-11.763 6.069-21.923 11.31-28.006 17.172-9.5 9.153-14.99 30.655-18.365 53.549-4.326-20.453-9.6-38.222-14.971-45.361-12.824-17.061-30.628-27.351-47.847-37.3-30.33-17.527-56.525-32.664-56.525-80.306a73.252 73.252 0 0 1 14.572-43.78z" fill="#151515"/></svg>