<?xml version="1.0" encoding="iso-8859-1"?>
<!-- Generator: Adobe Illustrator 19.0.0, SVG Export Plug-In . SVG Version: 6.00 Build 0)  -->
<svg version="1.1" id="Capa_1" xmlns="http://www.w3.org/2000/svg" xmlns:xlink="http://www.w3.org/1999/xlink" x="0px" y="0px"
	 viewBox="0 0 438.467 438.467" style="enable-background:new 0 0 438.467 438.467;" xml:space="preserve">
<path style="fill:#84D10F;" d="M256.833,182.4c-15.2-13.6-35.2-21.6-56-22.4c-16,0-31.2,4.8-44,13.6l-8,4.8l-4-8
	c-3.2-6.4-7.2-12-12-16.8l-5.6-5.6l4.8-5.6c16-18.4,52-24,68.8-24h2.4l0,0l0,0l0,0v-0.8c2.4-32.8-3.2-66.4-16-96.8l-4.8-11.2
	l43.2-1.6l2.4,4.8c15.2,32,21.6,68,17.6,103.2v0.8l0,0v0.8l0.8,0.8l0,0h0.8c4.8,0.8,31.2,8,40,24l3.2,5.6l-4.8,4
	c-7.2,7.2-12.8,16-16,25.6l-4,11.2L256.833,182.4z"/>
<path style="fill:#50AC25;" d="M269.633,133.6c-15.2,4.8-32,7.2-48,7.2c-18.4,0-36-3.2-52.8-9.6c-15.2,3.2-29.6,10.4-40,22.4
	c6.4,7.2,12,15.2,15.2,24c56-39.2,104-9.6,127.2,11.2c4-13.6,11.2-26.4,21.6-36.8C286.433,143.2,278.433,136.8,269.633,133.6z"/>
<path style="fill:#D60606;" d="M219.233,428c-15.2,0.8-29.6-4.8-40-15.2c-16-17.6-14.4-44.8-14.4-46.4c0-0.8,0-0.8-0.8-1.6
	c-0.8,0-0.8,0.8-0.8,0.8c-0.8,12,1.6,24,6.4,34.4l4,8l-8,3.2c-13.6,5.6-28.8,8-43.2,8.8c-9.6,0-18.4-1.6-27.2-5.6
	c-10.4-5.6-17.6-14.4-21.6-25.6l-0.8-1.6v-1.6c6.4-68-31.2-164.8-35.2-176v-0.8V208c-8-44-1.6-76,18.4-94.4
	c16-13.6,36.8-20,57.6-19.2c10.4,0,20.8,0.8,31.2,3.2l0,0c0.8,0,0.8,0,0.8-0.8c10.4-16,24.8-29.6,41.6-39.2l9.6-4.8l2.4,10.4
	c3.2,14.4,4.8,29.6,4,44.8v7.2l-8,3.2c-13.6,0.8-48,5.6-64,25.6l-4,4.8l-5.6-3.2c-10.4-5.6-21.6-8.8-33.6-8.8l0,0
	c-0.8,0-0.8,0.8-0.8,0.8l0.8,0.8c51.2,0.8,59.2,41.6,60,44c0,0,0,0.8,0.8,0.8l6.4,6.4l-4.8-6.4c15.2-12.8,33.6-20,52.8-20
	c36.8,0,62.4,28.8,64.8,32h0.8c0.8,0,0.8-0.8,0.8-0.8c5.6-54.4,60-59.2,76-59.2c3.2,0,5.6,0,6.4,0s0.8,0,0.8-0.8l0,0
	c0-0.8,0-0.8-0.8-0.8c-2.4,0-4.8,0-7.2,0c-15.2,0-30.4,4-44,10.4l-6.4,4l-4-6.4c-8-12.8-24.8-19.2-34.4-21.6l-6.4-1.6l0.8-6.4
	c0.8-12.8,0.8-25.6-0.8-37.6l-2.4-17.6l14.4,10.4c12.8,9.6,24,20.8,32.8,33.6c0,0,0.8,0.8,0.8,0c10.4-2.4,21.6-3.2,32-4
	c20.8-0.8,41.6,5.6,57.6,19.2c20,18.4,26.4,50.4,19.2,94.4v0.8v0c-4,11.2-41.6,107.2-36,175.2v1.6l-0.8,1.6
	c-3.2,11.2-11.2,20-21.6,25.6c-8.8,4-17.6,6.4-27.2,6.4l0,0c-13.6-0.8-27.2-3.2-40-8l-8.8-3.2l4.8-8c5.6-11.2,11.2-22.4,16-34.4
	c0-0.8,0-0.8-0.8-1.6l0,0c-0.8,0-0.8,0-0.8,0.8C266.433,415.2,260.033,428,219.233,428z"/>
<path style="fill:#E82525;" d="M120.033,408c-8-4-14.4-12-17.6-20.8c6.4-70.4-32-168-36-179.2c-7.2-41.6-0.8-70.4,16.8-87.2
	c12-9.6,26.4-15.2,41.6-16c-10.4-13.6-52.8-11.2-71.2,5.6s-30.4,62.4-23.2,104c4.8,11.2,47.2,108.8,40.8,178.4
	c4.8,11.2,12.8,20,22.4,26.4c8.8,4.8,33.6,4,39.2-7.2C128.033,411.2,124.033,409.6,120.033,408z"/>
<path style="fill:#BA0808;" d="M380.833,112.8c-20.8-19.2-80-20-73.6-8c12.8,1.6,24.8,7.2,34.4,15.2c1.6,1.6,3.2,3.2,4,4.8
	c2.4,0,5.6,11.2,9.6,16.8c6.4,21.6,8,44,3.2,65.6c-4,12-42.4,109.6-36,180c-3.2,8.8-8.8,16-17.6,20.8c-2.4,0.8-4.8,2.4-7.2,2.4
	c3.2,15.2,35.2,12,46.4,6.4c10.4-6.4,19.2-16,24.8-26.4c-6.4-70.4,31.2-171.2,36-182.4C411.233,166.4,398.433,129.6,380.833,112.8z"
	/>
<g>
	<path style="fill:#1C1211;" d="M297.633,88c-12-16.8-28-29.6-46.4-39.2c-4-15.2-9.6-29.6-16.8-44c-1.6-3.2-4.8-4.8-8-4.8l-46.4,1.6
		c-4.8,0-8.8,4-8.8,8.8c0,1.6,0,3.2,0.8,4c5.6,11.2,10.4,22.4,14.4,34.4c-18.4,9.6-33.6,22.4-45.6,39.2c-16.8-3.2-62.4-8-92,19.2
		c-23.2,20.8-30.4,56-22.4,104.8c0,0.8,0,1.6,0.8,1.6c0,0.8,41.6,104.8,34.4,173.6c0,0.8,0,1.6,0,2.4c4,14.4,13.6,27.2,26.4,34.4
		c9.6,4.8,20.8,7.2,32,7.2c17.6-0.8,34.4-4.8,51.2-11.2c12.8,12.8,30.4,19.2,48,18.4c24.8,0,39.2-4.8,50.4-17.6
		c15.2,6.4,31.2,9.6,48,10.4c11.2,0,22.4-2.4,32-7.2c13.6-7.2,23.2-19.2,26.4-34.4c0-0.8,0-1.6,0-2.4
		c-6.4-68.8,35.2-172.8,35.2-173.6s0.8-1.6,0.8-1.6c8-48,0.8-83.2-22.4-104.8C360.033,80,313.633,85.6,297.633,88z M220.833,18.4
		c15.2,30.4,20.8,64.8,16.8,99.2c0,2.4,0,4.8,1.6,6.4c1.6,1.6,3.2,3.2,5.6,4c8,1.6,29.6,8,36,20c-8.8,8-15.2,17.6-18.4,28.8
		c-20-16-60.8-40-108.8-8.8c-3.2-7.2-8-13.6-13.6-19.2c15.2-16.8,50.4-20.8,64-21.6c2.4,0,4-0.8,6.4-2.4c1.6-1.6,2.4-4,3.2-6.4
		c1.6-34.4-4.8-68.8-18.4-100L220.833,18.4z M394.433,208c-4,11.2-42.4,108.8-36,179.2c-3.2,8.8-8.8,16-17.6,20.8
		c-14.4,7.2-35.2,6.4-61.6-2.4c5.6-11.2,11.2-23.2,16-35.2c1.6-4.8,0-9.6-4.8-12s-9.6,0-12,4.8l0,0c-20,49.6-25.6,56.8-60,56.8
		c-12.8,0.8-24.8-4-34.4-12.8c-8.8-11.2-13.6-25.6-12.8-40c0-4.8-3.2-9.6-8-9.6s-9.6,3.2-9.6,8l0,0c-0.8,13.6,1.6,26.4,7.2,38.4
		c-27.2,9.6-48.8,11.2-64,3.2c-8-4.8-14.4-12-17.6-20.8c6.4-70.4-32-168-36-179.2c-7.2-40.8-0.8-70.4,16.8-87.2
		c28.8-26.4,81.6-13.6,81.6-13.6c4,0.8,8-0.8,9.6-4c9.6-14.4,23.2-27.2,38.4-36c3.2,14.4,4,28.8,4,43.2c-16,1.6-51.2,7.2-69.6,28
		c-11.2-6.4-24-9.6-37.6-9.6l0,0c-4.8,0-8.8,4-8.8,8.8s5.6,10.4,10.4,10.4c44.8,0.8,52,36,52,36.8c0.8,4.8,5.6,8,10.4,7.2
		c1.6,0,3.2-0.8,4-1.6c58.4-46.4,104.8,8,106.4,10.4c3.2,4,8.8,4.8,12.8,1.6c1.6-1.6,3.2-4,3.2-6.4c6.4-56,71.2-52,73.6-51.2
		c4.8,0.8,9.6-3.2,9.6-8c0.8-4.8-3.2-9.6-8-9.6l0,0c-19.2-1.6-39.2,2.4-56.8,11.2c-9.6-15.2-28-22.4-39.2-25.6
		c0.8-12.8,0.8-26.4-0.8-39.2c12,8.8,22.4,19.2,31.2,31.2c2.4,3.2,5.6,4,9.6,3.2c0.8,0,52.8-12.8,81.6,13.6
		C396.033,137.6,401.633,166.4,394.433,208z"/>
	<path style="fill:#1C1211;" d="M172.033,233.6c0.8-4.8-2.4-9.6-7.2-10.4s-9.6,2.4-10.4,7.2l0,0c-4.8,30.4-4.8,60.8,0,91.2
		c0.8,4.8,4,8,8.8,8h1.6c4.8-0.8,8-5.6,7.2-10.4l0,0C168.033,290.4,168.833,261.6,172.033,233.6z"/>
	<path style="fill:#1C1211;" d="M295.233,223.2c-4.8,0.8-8,5.6-7.2,10.4l0,0c4,28,4,56.8,0,84.8c-0.8,4.8,2.4,9.6,7.2,10.4l0,0h1.6
		c4.8,0,8.8-3.2,8.8-8c4.8-30.4,4.8-60.8,0-91.2C304.833,224.8,300.033,221.6,295.233,223.2z"/>
</g>
<g>
</g>
<g>
</g>
<g>
</g>
<g>
</g>
<g>
</g>
<g>
</g>
<g>
</g>
<g>
</g>
<g>
</g>
<g>
</g>
<g>
</g>
<g>
</g>
<g>
</g>
<g>
</g>
<g>
</g>
</svg>
