<?xml version="1.0" encoding="iso-8859-1"?>
<!-- Generator: Adobe Illustrator 19.0.0, SVG Export Plug-In . SVG Version: 6.00 Build 0)  -->
<svg version="1.1" id="Capa_1" xmlns="http://www.w3.org/2000/svg" xmlns:xlink="http://www.w3.org/1999/xlink" x="0px" y="0px"
	 viewBox="0 0 409.774 409.774" style="enable-background:new 0 0 409.774 409.774;" xml:space="preserve">
<path style="fill:#84D10F;" d="M48.328,201.338c-4.8-21.6-12.8-41.6-23.2-61.6v-0.8c-1.6-3.2-2.4-5.6-3.2-7.2c-8.8-20,8.8-56,8.8-56
	v-0.8c-8-14.4-14.4-29.6-19.2-45.6c-1.6-2.4-0.8-6.4,0.8-9.6c3.2-3.2,7.2-5.6,12-5.6l6.4-0.8l2.4,5.6c8.8,22.4,20,36.8,28.8,36.8
	c2.4,0,5.6-1.6,7.2-4c2.4-2.4,6.4-4,9.6-4c14.4,0,30.4,20,31.2,20.8v0.8v0.8c12,17.6,28,32,47.2,41.6l-4.8,15.2
	c-24.8-3.2-48-11.2-70.4-22.4h-0.8l-0.8,0.8c0.8,25.6,11.2,49.6,28.8,67.2l16,16.8l-23.2-4c-16.8-3.2-31.2-11.2-42.4-24h-0.8
	c-0.8,0.8-0.8,0.8-0.8,1.6c7.2,12,8.8,25.6,5.6,39.2L48.328,201.338z"/>
<path style="fill:#50AC25;" d="M32.328,94.138c-12.8,5.6-20,19.2-16.8,32.8c0.8,1.6,8,19.2,9.6,22.4c9.6,22.4,17.6,45.6,22.4,69.6
	c21.6-11.2,7.2-28,24-37.6c10.4-5.6,24.8-2.4,46.4,1.6c-10.4-11.2-22.4-47.2-41.6-56C59.528,118.138,45.128,106.938,32.328,94.138z"
	/>
<path style="fill:#51184A;" d="M315.528,395.738c-145.6,0-240-166.4-249.6-184.8l-1.6-3.2l0.8-3.2c1.6-5.6,2.4-11.2,2.4-17.6
	l-0.8-14.4l12,7.2c10.4,5.6,21.6,8.8,33.6,8.8c4.8,0,8.8-0.8,13.6-1.6c0.8,0,0.8,0,0.8-0.8s0-0.8,0-0.8s-35.2-24.8-42.4-64.8
	l-3.2-14.4l13.6,5.6c22.4,9.6,45.6,15.2,69.6,16.8h2.4h6.4l2.4,4.8c12.8,24.8,81.6,66.4,138.4,84c40,12,90.4,80.8,84,129.6
	c-3.2,21.6-19.2,48-79.2,49.6h-3.2V395.738z"/>
<path style="fill:#380F31;" d="M329.928,362.138c-128,3.2-216.8-128-241.6-169.6c4-14.4-16-12-20-14.4c-2.4,12-5.6,24-9.6,36
	c9.6,18.4,120,187.2,264,184c43.2-0.8,82.4-23.2,68.8-52.8c0-1.6,0-2.4,0-4C380.328,354.138,359.528,361.338,329.928,362.138z"/>
<path style="fill:#682964;" d="M321.128,214.938c-54.4-16.8-132-56.8-147.2-86.4h-4c-28-1.6-56-8-82.4-19.2c1.6,8.8,0,36,14.4,33.6
	c15.2,4.8,32,8,48,8h4c15.2,29.6,89.6,71.2,143.2,88c36.8,11.2,84.8,76.8,78.4,120.8c-0.8,5.6-2.4,11.2-5.6,16
	c11.2,6.4,34.4-11.2,36-24.8C412.328,307.738,357.928,226.138,321.128,214.938z"/>
<path style="fill:#1C1211;" d="M317.928,206.938c-49.6-15.2-111.2-51.2-128.8-73.6l4-1.6c4.8-1.6,7.2-7.2,5.6-12
	c-0.8-2.4-3.2-4.8-5.6-5.6c-0.8,0-52-16-72.8-51.2l-0.8-0.8c-2.4-2.4-20-25.6-39.2-25.6c-6.4,0-12.8,3.2-16.8,8
	c-4.8-0.8-15.2-18.4-21.6-35.2c-1.6-3.2-4-5.6-8-5.6h-4.8c-8.8-0.8-18.4,3.2-24.8,9.6c-4,5.6-5.6,12.8-3.2,19.2
	c4.8,15.2,10.4,29.6,18.4,44c-4.8,11.2-16,40-7.2,60c0.8,1.6,2.4,4.8,4,8c8,16,28.8,60,22.4,84c-0.8,4.8,1.6,9.6,6.4,11.2
	c3.2,0.8,5.6,0,8-1.6c4-3.2,7.2-7.2,9.6-11.2c25.6,44,116,179.2,252.8,179.2h4.8c70.4-1.6,85.6-37.6,88.8-58.4
	C416.328,293.338,361.928,219.738,317.928,206.938z M65.928,156.538c-2.4-4-8-5.6-12.8-2.4c-4,2.4-5.6,8-2.4,12.8
	c5.6,10.4,7.2,21.6,4.8,32.8c-5.6-21.6-12.8-43.2-23.2-63.2c-1.6-3.2-2.4-5.6-3.2-7.2c-5.6-13.6,4.8-40.8,8.8-49.6
	c1.6-2.4,1.6-5.6,0-8.8c-8-13.6-14.4-28-18.4-43.2c-0.8-1.6-0.8-2.4,0-4c1.6-0.8,4-1.6,6.4-1.6c6.4,16,19.2,41.6,36,41.6l0,0
	c4.8,0,9.6-2.4,12.8-5.6c0.8-1.6,2.4-1.6,4-1.6c7.2,0,18.4,10.4,24.8,17.6c12.8,19.2,29.6,34.4,49.6,44c-23.2-3.2-46.4-10.4-68-21.6
	c-4.8-2.4-9.6-0.8-12,4c-0.8,1.6-0.8,2.4-0.8,4c0.8,27.2,11.2,53.6,31.2,73.6C89.128,174.938,76.328,167.738,65.928,156.538z
	 M391.528,344.538c-4,27.2-28,41.6-71.2,42.4c-144,4-237.6-162.4-247.2-180.8c2.4-6.4,3.2-13.6,3.2-20c11.2,6.4,24.8,9.6,37.6,9.6
	c4.8,0,10.4-0.8,15.2-1.6c4.8-0.8,8-5.6,7.2-10.4c-0.8-2.4-1.6-4-3.2-5.6c0,0-32.8-24-39.2-60c23.2,10.4,48,16,72.8,16.8h4
	c15.2,29.6,88.8,71.2,143.2,88C349.128,234.938,397.128,300.538,391.528,344.538L391.528,344.538z"/>
<g>
</g>
<g>
</g>
<g>
</g>
<g>
</g>
<g>
</g>
<g>
</g>
<g>
</g>
<g>
</g>
<g>
</g>
<g>
</g>
<g>
</g>
<g>
</g>
<g>
</g>
<g>
</g>
<g>
</g>
</svg>
