<?xml version="1.0" encoding="iso-8859-1"?>
<!-- Generator: Adobe Illustrator 19.0.0, SVG Export Plug-In . SVG Version: 6.00 Build 0)  -->
<svg version="1.1" id="Capa_1" xmlns="http://www.w3.org/2000/svg" xmlns:xlink="http://www.w3.org/1999/xlink" x="0px" y="0px"
	 viewBox="0 0 511.997 511.997" style="enable-background:new 0 0 511.997 511.997;" xml:space="preserve">
<path style="fill:#3BBC56;" d="M457.471,125.786c-3.52-1.514-5.908-4.819-6.232-8.626c-2.667-31.349-28.17-56.624-60.217-58.196
	c-5.033-0.246-9.418-3.676-11.17-8.739c-16.757-48.401-82.723-52.509-106.55-8.927l-0.573,1.048l1.133,0.38
	c22.899,7.673,41.328,28.944,43.326,56.168c42.091,12.677,76.34,37.268,101.373,69.842l1.236,1.608l0.523-1.959
	c3.593-13.459,13.621-36.424,40.403-39.003l3.415-0.373C460.048,126.983,458.907,126.401,457.471,125.786z"/>
<g>
	<path style="fill:#30AA44;" d="M364.958,26.854C338.788,2.059,292.446,6.28,273.301,41.298l-0.573,1.048l1.133,0.38
		c7.039,2.359,13.652,6.006,19.499,10.713C308.258,26.319,339.498,17.733,364.958,26.854z"/>
	<polygon style="fill:#30AA44;" points="70.171,308.343 70.236,308.353 70.51,306.373 	"/>
	<path style="fill:#30AA44;" d="M65.358,307.797l0.036,0.001c0.046-1.199,0.039-0.771,0.035-2L65.358,307.797z"/>
	<path style="fill:#30AA44;" d="M257.57,37.583c-18.719-1.014-36.99,6.017-50.138,19.309c-4.255,4.301-10.397,5.655-15.648,3.45
		c-33.126-13.917-71.044-0.667-88.846,29.613c-2.192,3.728-6.262,5.928-10.579,5.758c-67.159-2.74-108.402,73.149-69.636,127.946
		c4.812,6.801,5.741,15.62,2.422,23.015c-9.863,21.99-5.149,49.436,16.157,66.995c7.35-3.921,12.998-5.415,20.018-5.904
		C51.534,188.125,145.53,90.631,260.186,90.631c21.327,0,40.234,3.213,59.05,8.88C316.558,63.171,288.562,39.272,257.57,37.583z"/>
</g>
<path style="fill:#239B31;" d="M45.144,245.523c3.319-7.522,2.391-16.493-2.422-23.411C9.774,174.739,34.628,111.881,84.06,95.787
	c-62.171,3.523-98.476,75.372-61.335,127.871c4.812,6.801,5.741,15.62,2.422,23.015c-9.863,21.99-5.149,49.436,16.157,66.995
	c5.329-2.843,9.765-4.405,14.477-5.239C39.244,290.655,36.199,265.807,45.144,245.523z"/>
<path style="fill:#83CC8E;" d="M420.141,167.512c-18.439-23.992-42.425-43.849-69.363-57.424
	c-28.252-14.237-58.731-21.456-90.593-21.456c-115.299,0-210.783,97.971-200.859,219.272l0.985-0.069
	c27.226-1.905,46.317,24.577,46.506,24.845l0.271,0.384l0.468,0.036c22.852,1.745,40.945,14.742,53.776,38.63
	c9.621,17.909,12.488,35.551,12.516,35.726l0.125,0.791l0.799,0.051c39.326,2.524,68.38,42.221,84.857,78.235
	c14.578-51.198,47.78-94.299,100.106-103.021l0.957-0.16l-0.131-0.962c-0.11-0.811-10.512-81.446,35.459-110.481l0.678-0.428
	l-0.271-0.755c-0.233-0.649-22.747-65.228,21.895-94.185l0.394-0.256l0.055-0.466c0.003-0.03,0.365-3.036,1.542-7.441l0.127-0.476
	L420.141,167.512z"/>
<path style="fill:#78C181;" d="M278.333,89.429c-5.995-0.528-12.045-0.798-18.147-0.798c-115.298,0-210.782,97.971-200.859,219.272
	l0.985-0.069c7.417-0.519,14.225,1.077,20.217,3.668C73.742,191.969,165.387,95.521,278.333,89.429z"/>
<path style="fill:#3BBC56;" d="M240.792,449.605c-17.521-24.165-37.76-38.715-58.914-42.462c-3.668-0.65-6.646-3.323-7.552-6.937
	c-8.12-32.413-27.643-62.876-60.9-68.411c-3.312-0.551-6.348-2.198-8.579-4.707c-19.571-22.024-45.838-29.226-71.311-10.86
	c-42.422,30.585-5.96,68.992,33.198,61.114c11.432-2.307,17.978,10.964,27.046,29.323c9.999,20.244,22.441,45.438,47.434,63.889
	c21.678,16.002,48.756,23.925,82.137,23.925c13.809,0,26.831-1.304,40.306-3.341C259.213,479.497,250.571,463.091,240.792,449.605z"
	/>
<path style="fill:#30AA44;" d="M243.349,493.478c-33.381,0-60.459-7.923-82.137-23.925c-24.993-18.45-37.436-43.645-47.434-63.889
	c-9.067-18.358-15.614-31.629-27.046-29.323c-39.158,7.878-75.619-30.528-33.198-61.114c5.88-4.239,11.801-7.101,17.674-8.748
	c-12.139-2.192-25.003,0.614-37.671,9.748c-42.422,30.585-5.96,68.992,33.198,61.114c11.432-2.307,17.978,10.964,27.046,29.323
	c9.999,20.244,22.441,45.438,47.434,63.889c21.678,16.002,48.756,23.925,82.137,23.925c7.299,0,14.377-0.372,21.419-1.017
	C244.294,493.465,243.826,493.478,243.349,493.478z"/>
<path style="fill:#3BBC56;" d="M489.158,283.1c-1.367-34.073-8.594-70.245-14.926-89.836l-0.745,0.017
	c-33.932,0.74-38.067,59.508-38.228,62.026c-2.386,50.709-71.272,123.709-75.764,128.246
	c-54.817,9.406-90.791,56.957-102.634,106.008c7.525,3.899,25.848,9.941,49.073,9.941c1.882,0,3.812-0.039,5.781-0.121
	c30.243-1.261,76.967-13.302,127.82-63.51C479.708,396.211,491.403,339.058,489.158,283.1z"/>
<g>
	<path style="fill:#30AA44;" d="M293.633,455.488c13.384-30.608,35.313-57.475,64.586-71.685
		c-54.092,9.923-89.607,57.093-101.357,105.759c7.525,3.899,25.848,9.941,49.073,9.941c1.882,0,3.812-0.039,5.781-0.121
		c2.379-0.099,4.87-0.274,7.447-0.52c-0.171-0.017-0.343-0.035-0.513-0.053C297.817,496.608,285.24,474.681,293.633,455.488z"/>
	<path style="fill:#30AA44;" d="M506.652,153.886c-1.258-14.208-13.292-23.77-33.017-26.236
		c-30.304-3.786-49.616,14.669-55.945,42.932c-0.635,2.837-2.213,5.383-4.52,7.152c-16.385,12.558-24.909,32.085-24.719,56.805
		c0.106,13.8,2.923,25.978,4.689,32.29c0.637,2.275-0.218,4.676-2.111,6.089c-17.253,12.876-28.331,35.189-32.139,64.897
		c-3.078,24.003,0.606,45.738,0.606,45.738l0,0l0,0l0,0l0,0c47.618-17.485,79.233-42.018,94.225-74.234
		c12.733-27.364,11.602-54.628,10.694-76.536c-0.823-19.851-1.418-34.193,9.391-37.547
		C493.729,189.053,508.157,170.89,506.652,153.886z"/>
</g>
<path style="fill:#239B31;" d="M379.657,337.815c3.809-29.708,14.886-52.021,32.139-64.897c1.893-1.413,2.747-3.814,2.111-6.089
	c-1.768-6.313-4.583-18.491-4.689-32.29c-0.19-24.72,8.336-44.246,24.719-56.805c2.307-1.769,3.884-4.314,4.52-7.151
	c4.996-22.31,18.088-38.497,38.284-42.47c-1.015-0.173-2.048-0.33-3.107-0.462c-30.304-3.786-49.616,14.669-55.945,42.932
	c-0.635,2.837-2.213,5.383-4.52,7.151c-16.385,12.559-24.909,32.085-24.719,56.805c0.106,13.8,2.923,25.977,4.689,32.29
	c0.637,2.274-0.218,4.676-2.111,6.089c-17.253,12.876-28.331,35.19-32.139,64.897c-3.078,24.003,0.606,45.738,0.606,45.738
	c6.933-2.546,13.516-5.246,19.769-8.093C378.455,366.989,377.73,352.848,379.657,337.815z"/>
<path d="M17.961,244.012C17.961,244.013,17.961,244.013,17.961,244.012c-9.882,22.024-6.39,48.387,10.172,67.2
	C9.418,324.864,2.45,342.615,9.502,358.77c8.207,18.796,33.35,29.756,57.258,24.942c6.195-1.245,11.623,8.998,19.935,25.829
	c17.399,35.23,45.125,91.4,135.694,91.393c11.228-0.001,23.443-0.877,36.703-2.752c8.016,3.057,23.958,7.819,45.499,7.819
	c52.902,0,100.77-28.499,138.253-65.506c20.18-19.923,34.678-45.335,43.09-75.53c1.112-3.989-1.222-8.125-5.211-9.236
	c-3.989-1.114-8.125,1.222-9.236,5.211c-7.702,27.643-20.884,50.818-39.18,68.883c-38.428,37.939-80.373,59.041-121.299,61.025
	c-20.225,0.98-35.704-2.938-44.013-5.775c-0.007-0.008-0.013-0.016-0.019-0.023c-0.236-0.564-0.515-1.218-0.827-1.936
	c6.625-21.516,30.756-82.668,93.257-93.169c0.531-0.078,1.087-0.221,1.611-0.424c133.149-48.586,105.853-139.834,108.444-176.748
	c5.527,23.176,13.76,68.128,8.504,114.338c-0.468,4.115,2.489,7.831,6.603,8.299c4.115,0.467,7.831-2.489,8.299-6.603
	c6.527-57.39-6.298-111.386-11.474-130.037c19.051-8.808,32.055-27.612,30.475-45.457c-2.093-23.649-27.799-33.904-51.032-32.559
	c-2.055-0.985-4.153-1.492-4.379-4.145c-2.1-24.683-17.261-46.653-39.568-57.334c-21.712-10.399-29.332-3.026-32.153-11.174
	c-6.072-17.544-19.418-31.69-36.615-38.81c-3.827-1.583-8.213,0.233-9.798,4.06c-1.584,3.826,0.233,8.213,4.06,9.798
	c13.237,5.48,23.509,16.364,28.18,29.859c2.895,8.36,10.268,14.032,18.786,14.448c7.315,0.358,14.401,2.158,21.062,5.347
	c17.533,8.397,29.452,25.67,31.102,45.079c0.205,2.412,0.864,4.712,1.906,6.803c-12.289,5.194-21.751,15.281-27.882,28.5
	c-24.583-28.14-56.227-49.084-91.761-60.765c-3.605-24.081-18.842-43.951-39.559-54.121c6.921-8.656,16.689-14.879,27.77-17.506
	c4.029-0.956,6.521-4.997,5.566-9.027c-0.956-4.029-4.99-6.521-9.027-5.566c-16.023,3.799-29.933,13.433-38.993,26.787
	c-4.163-1.005-8.463-1.65-12.867-1.89c-20.58-1.128-40.66,6.615-55.111,21.227c-2.379,2.405-5.719,3.202-8.51,2.03
	c-36.094-15.164-77.502-0.799-96.966,32.31c-0.974,1.656-2.771,2.636-4.713,2.559c-4.3-0.174-8.663-0.033-12.967,0.42
	c-65.325,6.872-101.28,82.579-62.235,137.771C19.707,232.42,20.379,238.625,17.961,244.012z M68.073,368.572
	c-1.397,0-2.822,0.146-4.27,0.438c-19.004,3.824-35.845-5.453-40.554-16.241c-7.788-17.835,19.19-38.424,38.521-38.529
	c14.934-0.034,29.205,10.294,37.98,21.525c0.145,0.187,0.269,0.346,0.44,0.577c1.531,2.063,3.458,3.073,5.617,3.238
	c33.056,2.524,52.631,33.599,59.768,65.9c0.173,0.784,0.478,2.24,0.599,2.99c0.547,3.466,3.424,6.09,6.927,6.314
	c35.076,2.249,61.856,37.76,77.027,69.451C93.857,502.514,112.083,368.572,68.073,368.572z M420.604,181.994
	c3.709-2.405,2.969-5.143,4.597-11.472c0-0.001,0.14-0.463,0.14-0.463c6.206-23.246,21.368-37.05,45.983-33.976
	c41.779,5.222,26.284,42.347-1.39,51.069c-46.302,14.594,40.81,125.9-104.985,184.799c-1.148-21.504-0.167-73.417,33.287-94.546
	c2.965-1.873,4.232-5.558,3.059-8.862C401.08,267.942,380.376,208.089,420.604,181.994z M409.944,169.907
	c-0.108,0.5-0.207,0.975-0.292,1.41c-19.173,13.767-29.171,35.565-28.957,63.272c0.109,14.211,2.879,26.608,4.762,33.433
	c-37.781,28.489-36.849,87.925-35.279,108.469c-26.621,6.064-49.8,21.043-68.105,43.902c1.726-17.504,2.119-34.663,1.19-51.413
	c-0.001-0.308-0.022-0.615-0.061-0.919c-0.935-16-3.065-31.628-6.426-46.814c-0.02-0.091-0.043-0.181-0.063-0.271
	c0.251-4.063,1.817-21.958,10.667-43.462c13.327-32.377,36.028-57.241,67.47-73.898c3.659-1.939,5.055-6.478,3.116-10.137
	c-1.938-3.659-6.475-5.054-10.137-3.116c-43.38,22.982-64.492,57.301-74.565,82.046c-2.357,5.788-4.232,11.318-5.729,16.446
	c-0.263-0.75-0.533-1.498-0.803-2.246c-0.031-0.095-0.066-0.189-0.101-0.283c-6.438-17.787-14.663-34.833-24.608-50.992
	c2.356-10.529,13.066-50.173,45.4-77.209c3.178-2.657,3.6-7.386,0.943-10.563c-2.656-3.177-7.386-3.599-10.562-0.943
	c-27.504,22.997-40.821,53.484-46.795,72.133c-30.692-42.781-63.299-63.093-64.758-63.99c-3.526-2.167-8.146-1.063-10.313,2.468
	c-2.167,3.529-1.063,8.147,2.468,10.313c0.232,0.143,15.541,9.679,34.658,29.25c-28.527-3.008-50.561,4.238-51.709,4.626
	c-3.919,1.323-6.02,5.567-4.703,9.489c1.315,3.92,5.559,6.033,9.489,4.725c0.302-0.102,30.045-9.768,63.204-0.543
	c5.068,6.249,10.18,13.119,15.166,20.644c6.416,9.686,12.893,20.914,18.839,33.681c-50.628-23.359-117.7,2.684-120.939,3.97
	c-3.847,1.527-5.727,5.882-4.202,9.731c1.525,3.848,5.881,5.731,9.732,4.21c0.817-0.322,81.191-31.457,125.105,5.863
	c6.413,18.216,11.445,38.857,13.937,61.931c-15.551-8.053-43.351-19.064-75.252-16.196c-4.125,0.371-7.169,4.015-6.798,8.14
	c0.37,4.124,4.035,7.172,8.14,6.797c35.222-3.16,65.789,13.451,75.297,19.283c1.107,23.917-0.539,50.197-6.047,78.846
	c-2.135,4.402-3.96,8.6-5.504,12.468c-13.522-23.961-39.211-58.528-76.995-64.037c-8.633-36.889-31.407-70.776-69.509-75.461
	c-10.913-13.196-26.89-24.121-44.286-25.553C57.162,113.115,293.711,24.043,409.944,169.907z M90.759,104.204
	c7.464,0.314,14.467-3.505,18.251-9.943c15.69-26.691,49.093-38.321,78.227-26.084c8.464,3.556,18.27,1.472,24.98-5.31
	c30.237-30.572,83.14-18.038,95.25,24.925C172.538,55.556,44.287,162.183,51.053,300.429c-3.215,0.715-6.411,1.745-9.585,3.101
	c-14.316-14.341-17.769-35.661-9.824-53.377l0,0c4.543-10.126,3.303-22.16-3.238-31.402
	C-5.823,170.366,29.534,101.711,90.759,104.204z"/>
<g>
</g>
<g>
</g>
<g>
</g>
<g>
</g>
<g>
</g>
<g>
</g>
<g>
</g>
<g>
</g>
<g>
</g>
<g>
</g>
<g>
</g>
<g>
</g>
<g>
</g>
<g>
</g>
<g>
</g>
</svg>
