<svg id="Capa_1" enable-background="new 0 0 512 512" height="512" viewBox="0 0 512 512" width="512" xmlns="http://www.w3.org/2000/svg"><path d="m327.578 316.029c36.342-36.342 36.342-95.265 0-131.607s-95.265-36.342-131.607 0-219.569 278.492-183.227 314.834 278.492-146.885 314.834-183.227z" fill="#ffaa5c"/><path d="m327.578 184.422c-2.147-2.147-4.376-4.163-6.671-6.056 30.154 36.557 28.138 90.74-6.057 124.935s-250.59 198.424-306.314 187.436c.69 3.499 2.062 6.372 4.209 8.519 36.342 36.342 278.492-146.885 314.834-183.227 36.341-36.342 36.341-95.265-.001-131.607z" fill="#ff9838"/><path d="m492.813 146.347c14.916-14.916 14.916-39.099 0-54.014-3.479-3.479-7.466-6.136-11.718-7.992 11.139-14.955 9.925-36.207-3.652-49.784s-34.829-14.79-49.784-3.652c-1.856-4.252-4.513-8.239-7.992-11.718-14.916-14.916-39.099-14.916-54.014 0-.262.262-.509.534-.763.802-14.692-8.903-34.087-7.017-46.777 5.673-14.916 14.916-14.916 39.099 0 54.014 1.786 1.786 3.708 3.352 5.728 4.711-5.582 13.789-2.783 30.177 8.398 41.358 2.157 2.157 4.513 3.992 7.001 5.525l-32.357 37.565c7.415 4.114 14.398 9.292 20.693 15.587s11.473 13.278 15.587 20.693l37.565-32.357c1.533 2.488 3.368 4.844 5.525 7.001 11.181 11.181 27.569 13.98 41.358 8.398 1.358 2.02 2.925 3.942 4.711 5.728 14.916 14.916 39.099 14.916 54.015 0 12.69-12.69 14.576-32.085 5.673-46.777.269-.252.541-.499.803-.761z" fill="#98db7c"/><path d="m492.011 147.109c.268-.253.54-.5.802-.763 14.916-14.916 14.916-39.099 0-54.014-2.193-2.194-4.589-4.059-7.126-5.604 12.752 24.629 1.016 40.339-4.2 45.646-1.273 1.295-1.755 3.169-1.237 4.909 2.343 7.871 7.056 30.065-8.315 45.454-12.651 12.666-33.6 12.785-48.003 2.152-2.711-2.001-5.048-4.271-7.035-6.731-1.244-1.54-3.32-2.173-5.213-1.597-13.061 3.974-27.831.797-38.158-9.53-.903-.903-1.75-1.841-2.542-2.809-1.779-2.175-4.996-2.458-7.125-.624l-30.946 26.655c3.948 4.685 7.367 9.664 10.251 14.862l37.565-32.357c1.533 2.488 3.368 4.844 5.525 7.001 11.181 11.181 27.569 13.98 41.358 8.398 2.365 3.517 5.36 6.737 9.048 9.459 14.403 10.632 34.625 9.744 48.003-2.152 14.186-12.613 16.629-33.039 7.348-48.355z" fill="#82d361"/><path d="m112.389 462.139c-25.845 14.825-47.311 25.082-63.8 30.486-22.298 7.31-29.086 3.718-30.97 1.834-2.607-2.607-10.923-17.647 28.203-87.621l17.098 17.101c3.056 3.057 8.216 2.85 11.026-.431 2.518-2.941 2.337-7.461-.399-10.197l-19.977-19.981c7.677-13.072 16.827-27.815 27.699-44.426l60.735 60.745c3.056 3.057 8.216 2.851 11.026-.431 2.518-2.941 2.337-7.461-.399-10.197l-62.895-62.905c26.384-39.368 55.28-78.345 77.816-106.832l44.996 45.004c3.056 3.057 8.216 2.851 11.026-.431 2.519-2.941 2.337-7.461-.399-10.197l-46.167-46.174c10.443-12.848 18.899-22.589 24.184-27.876 2.017-2.017 4.15-3.95 6.341-5.747 3.209-2.631 3.678-7.367 1.046-10.577-2.631-3.21-7.365-3.678-10.575-1.047-2.571 2.108-5.074 4.376-7.439 6.742-18.94 18.943-73.776 88.566-120.058 158.922-26.007 39.535-45.138 72.937-56.864 99.279-15.667 35.197-17.78 56.774-6.651 67.906 4.595 4.595 11.111 6.912 19.698 6.912 19.637 0 50.104-12.117 93.175-36.823 3.6-2.065 4.845-6.658 2.78-10.258s-6.657-4.845-10.256-2.78z"/><path d="m512 119.082c0-12.23-4.762-23.729-13.409-32.376-2.041-2.042-4.251-3.872-6.612-5.479 8.333-17.208 5.124-38.502-8.787-52.415s-35.202-17.124-52.407-8.788c-1.607-2.362-3.437-4.571-5.478-6.613-8.646-8.648-20.142-13.411-32.37-13.411-10.732 0-20.901 3.669-29.07 10.409-17.126-7.634-37.367-4.076-50.93 9.49-17.849 17.852-17.849 46.9 0 64.753.724.724 1.474 1.425 2.249 2.102-4.134 15.632.259 32.414 11.904 44.061.465.465.94.92 1.426 1.365l-23.367 27.132c-24.347-11.581-52.866-13.193-78.925-3.374-3.884 1.463-5.846 5.798-4.383 9.682s5.798 5.845 9.681 4.383c31.457-11.855 67.135-4.157 90.896 19.607 33.423 33.428 33.423 87.82 0 121.247-6.838 6.839-16.405 15.182-27.685 24.375l-28.9-28.905c-2.934-2.935-7.692-2.935-10.626 0-2.935 2.935-2.935 7.693 0 10.628l27.719 27.723c-14.205 11.176-30.252 23.198-46.616 35.079l-80.155-80.168c-2.934-2.935-7.692-2.935-10.626 0-2.935 2.935-2.935 7.693 0 10.628l78.428 78.441c-33.158 23.715-66.016 45.828-85.945 58.169-3.209 1.987-4.456 6.198-2.834 9.61 1.896 3.988 6.983 5.5 10.746 3.169 79.844-49.443 166.529-117.526 187.121-138.122 19.029-19.032 29.509-44.336 29.509-71.252 0-15.272-3.378-30.025-9.774-43.408l27.06-23.313c8.796 9.61 21.564 15.092 34.587 14.846 3.654-.069 7.299-.579 10.832-1.514 9.183 10.519 22.968 16.375 36.915 15.612 3.875-.212 7.721-.92 11.42-2.093 3.956-1.254 6.147-5.477 4.893-9.434-1.253-3.956-5.477-6.144-9.433-4.894-11.005 3.487-22.91.588-31.067-7.569-1.401-1.401-2.678-2.956-3.798-4.62-1.983-2.949-5.76-4.105-9.055-2.773-11.477 4.646-24.55 1.992-33.303-6.762-1.686-1.687-3.183-3.585-4.451-5.644-2.387-3.874-7.849-4.727-11.302-1.753l-30.939 26.654c-3.533-5.174-7.569-10.06-12.096-14.587-4.527-4.528-9.427-8.551-14.609-12.068l26.675-30.973c2.975-3.454 2.121-8.916-1.752-11.303-2.058-1.268-3.957-2.766-5.642-4.451-8.754-8.755-11.408-21.83-6.762-33.309 1.333-3.295.177-7.073-2.773-9.056-1.663-1.118-3.216-2.396-4.618-3.798-5.808-5.809-9.007-13.533-9.007-21.748s3.198-15.939 9.007-21.748c10.042-10.044 25.526-11.924 37.658-4.572 1.616.98 3.597 1.315 5.446.925 1.832-.387 3.233-1.549 4.526-2.841 5.808-5.809 13.531-9.009 21.745-9.009 12.107 0 23.33 7.337 28.178 18.443 1.904 4.361 7.553 5.868 11.375 3.02 12.132-9.038 29.361-7.771 40.076 2.946s11.982 27.949 2.945 40.082c-2.846 3.823-1.341 9.472 3.02 11.377 3.533 1.543 6.706 3.708 9.433 6.435 5.808 5.809 9.007 13.533 9.007 21.748s-3.199 15.939-9.007 21.748c-1.369 1.365-2.485 2.684-2.866 4.644-.354 1.821-.012 3.743.95 5.329 5.371 8.865 5.868 20.157 1.299 29.471-1.688 3.44-.443 7.719 2.823 9.719 3.725 2.281 8.747.819 10.668-3.098 6.045-12.321 6.243-26.426.753-38.74 6.742-8.171 10.409-18.339 10.409-29.071z"/></svg>