<svg id="SvgjsSvg1001" width="288" height="288" xmlns="http://www.w3.org/2000/svg" version="1.1" xmlns:xlink="http://www.w3.org/1999/xlink" xmlns:svgjs="http://svgjs.com/svgjs"><defs id="SvgjsDefs1002"></defs><g id="SvgjsG1008" transform="matrix(0.9167,0,0,0.9167,11.995200000000011,11.995200000000011)"><svg xmlns="http://www.w3.org/2000/svg" enable-background="new 0 0 512 512" viewBox="0 0 512 512" width="288" height="288"><path fill="#ffc907" fill-rule="evenodd" d="M404,236.5c-1.9-31.5-17.5-60.3-41.1-81.9
		c-26.6-24.4-62.9-38.9-99.1-39L100,268l304.1-31.2C404.1,236.7,404,236.6,404,236.5z" clip-rule="evenodd" class="colorFFC907 svgShape"></path><path fill="#ffc907" fill-rule="evenodd" d="M100,268v48c15.5,0,28,8,28,28c0,20-12.5,36-28,36v24l304-31.2
		v-136L100,268z" clip-rule="evenodd" class="colorFFC907 svgShape"></path><circle cx="356" cy="340" r="12" fill="#f6891f" fill-rule="evenodd" clip-rule="evenodd" class="colorF6891F svgShape"></circle><circle cx="300" cy="292" r="24" fill="#f6891f" fill-rule="evenodd" clip-rule="evenodd" class="colorF6891F svgShape"></circle><path fill="none" stroke="#000000" stroke-linecap="round" stroke-linejoin="round" stroke-miterlimit="2.613" stroke-width="14" d="
		M100,316v-48l312-32v136l-312,32v-32 M100,316c15.5,0,28,12.5,28,28c0,15.5-12.5,28-28,28" clip-rule="evenodd" class="colorStroke000 svgStroke"></path><circle cx="304" cy="288" r="28" fill="none" stroke="#000000" stroke-linecap="round" stroke-linejoin="round" stroke-miterlimit="2.613" stroke-width="14" clip-rule="evenodd" class="colorStroke000 svgStroke"></circle><circle cx="360" cy="336" r="16" fill="none" stroke="#000000" stroke-linecap="round" stroke-linejoin="round" stroke-miterlimit="2.613" stroke-width="14" clip-rule="evenodd" class="colorStroke000 svgStroke"></circle><circle cx="196" cy="360" r="12" fill="#f6891f" fill-rule="evenodd" clip-rule="evenodd" class="colorF6891F svgShape"></circle><circle cx="200" cy="356" r="16" fill="none" stroke="#000000" stroke-linecap="round" stroke-linejoin="round" stroke-miterlimit="2.613" stroke-width="14" clip-rule="evenodd" class="colorStroke000 svgStroke"></circle><path fill="none" stroke="#000000" stroke-linecap="round" stroke-linejoin="round" stroke-miterlimit="2.613" stroke-width="14" d="
		M412,236c-4-68-68-124-140-128L100,268" clip-rule="evenodd" class="colorStroke000 svgStroke"></path><ellipse cx="320.6" cy="181.5" fill="#f6891f" fill-rule="evenodd" clip-rule="evenodd" rx="21.1" ry="23.6" transform="rotate(-36.031 320.553 181.522)" class="colorF6891F svgShape"></ellipse><ellipse cx="216.7" cy="201.4" fill="#f6891f" fill-rule="evenodd" clip-rule="evenodd" rx="13.3" ry="14.9" transform="rotate(-40.6 216.654 201.39)" class="colorF6891F svgShape"></ellipse><ellipse cx="324" cy="178" fill="none" stroke="#000000" stroke-linecap="round" stroke-linejoin="round" stroke-miterlimit="2.613" stroke-width="14" clip-rule="evenodd" rx="24.4" ry="27.2" transform="rotate(-36.031 323.972 177.995)" class="colorStroke000 svgStroke"></ellipse><ellipse cx="220" cy="198" fill="none" stroke="#000000" stroke-linecap="round" stroke-linejoin="round" stroke-miterlimit="2.613" stroke-width="14" clip-rule="evenodd" rx="16.5" ry="18.4" transform="rotate(-40.6 219.992 197.99)" class="colorStroke000 svgStroke"></ellipse></svg></g></svg>