<?xml version="1.0" encoding="iso-8859-1"?>
<!-- Generator: Adobe Illustrator 19.0.0, SVG Export Plug-In . SVG Version: 6.00 Build 0)  -->
<svg version="1.1" id="Capa_1" xmlns="http://www.w3.org/2000/svg" xmlns:xlink="http://www.w3.org/1999/xlink" x="0px" y="0px"
	 viewBox="0 0 468.797 468.797" style="enable-background:new 0 0 468.797 468.797;" xml:space="preserve">
<path style="fill:#50AC25;" d="M210.397,108.456c-3.2-11.2-7.2-32.8,3.2-48.8s30.4-22.4,42.4-24l7.2-1.6l2.4,7.2
	c3.2,11.2,7.2,32.8-2.4,48.8c-9.6,16-30.4,22.4-42.4,24l-7.2,1.6L210.397,108.456z"/>
<path style="fill:#D60606;" d="M108.797,417.256c-54.4,0-98.4-44-98.4-98.4s44-98.4,98.4-98.4c3.2,0,5.6,0,8.8,0h2.4l1.6,1.6
	c8,5.6,47.2,36.8,31.2,81.6c0,0.8,0,0.8,0.8,1.6l0,0c0.8,0,0.8,0,0.8-0.8c7.2-20.8,3.2-43.2-9.6-60l10.4-11.2
	c47.2,26.4,64.8,86.4,38.4,133.6C177.597,397.256,144.797,416.456,108.797,417.256L108.797,417.256z"/>
<path style="fill:#E82525;" d="M35.997,345.256c-1.6-12-1.6-23.2,0-35.2c8-42.4,45.6-72.8,88.8-72.8h2.4c17.6-0.8-3.2-12-4.8-13.6
	c-2.4,0-9.6,0-12,0c-47.2-9.6-100,45.6-100,95.2c0,37.6,27.2,92.8,63.2,83.2C54.397,388.456,40.797,368.456,35.997,345.256z"/>
<path style="fill:#BA0808;" d="M165.597,248.456c31.2,38.4,24.8,96-13.6,127.2c-32.8,26.4-80.8,26.4-113.6,0
	c-3.2,23.2,40.8,45.6,69.6,45.6c49.6,0,104.8-61.6,104.8-112C211.997,280.456,185.597,242.856,165.597,248.456z"/>
<path style="fill:#84D10F;" d="M162.397,133.256c-2.4,0-5.6,0-8-0.8c-18.4-4-31.2-21.6-36.8-31.2l-4-6.4l6.4-4
	c11.2-8.8,24.8-13.6,38.4-14.4c2.4,0,5.6,0,8,0.8c18.4,4,31.2,21.6,36.8,31.2l4,6.4l-6.4,4
	C189.597,126.856,175.997,132.456,162.397,133.256z"/>
<path style="fill:#D60606;" d="M353.597,430.856c-58.4,0-104.8-47.2-104.8-104.8c0-43.2,28.8-80.8,71.2-92l2.4-0.8l2.4,0.8
	c12,4,50.4,20.8,61.6,63.2c0,0.8,0.8,0.8,0.8,0.8c0.8,0,1.6-0.8,0.8-1.6c-5.6-22.4-20-40.8-39.2-52.8l-22.4-14.4h27.2
	c61.6,0,105.6,40.8,105.6,96.8C458.397,383.656,411.197,430.856,353.597,430.856z"/>
<path style="fill:#E82525;" d="M286.397,378.056c-17.6-24.8-14.4-57.6-14.4-67.2c4.8-30.4,26.4-56,56-66.4c4-5.6-4.8-10.4-6.4-11.2
	c-39.2,11.2-77.6,52.8-77.6,93.6c0,53.6,53.6,108.8,107.2,108.8c2.4,0,15.2,0,9.6-12.8
	C330.397,420.456,303.197,403.656,286.397,378.056z"/>
<path style="fill:#BA0808;" d="M415.997,256.456c11.2,15.2,16.8,32.8,16.8,51.2c0,53.6-43.2,96.8-96.8,96.8
	c-1.6,0-10.4-0.8-11.2-0.8c-17.6-2.4-34.4-8.8-48-19.2c-4,35.2,45.6,50.4,76.8,50.4c53.6,0,106.4-54.4,106.4-108
	C459.997,298.856,439.197,248.456,415.997,256.456z"/>
<g>
	<path style="fill:#D60606;" d="M312.797,369.256c-4.8-0.8-9.6-3.2-13.6-5.6c4.8,8,12,14.4,20,18.4c0.8-0.8,0.8-1.6,0.8-2.4
		C320.797,375.656,317.597,370.856,312.797,369.256L312.797,369.256z"/>
	<path style="fill:#D60606;" d="M352.797,237.256c2.4,1.6,5.6,4,8,5.6c-1.6-2.4-3.2-4-4.8-5.6H352.797L352.797,237.256z"/>
	<path style="fill:#D60606;" d="M359.997,282.056c1.6,4.8,6.4,8,11.2,6.4l0,0c0.8,0,1.6-0.8,2.4-0.8c-5.6-12-14.4-23.2-25.6-31.2
		C353.597,263.656,357.597,272.456,359.997,282.056z"/>
</g>
<g>
	<path style="fill:#FFFFFF;" d="M330.397,386.856c-43.2-9.6-45.6-68-45.6-68.8c0-4.8-4-8.8-8.8-8.8l0,0c-4.8,0-8.8,4-8.8,9.6l0,0
		c0,3.2,3.2,72.8,60,85.6h2.4c4.8,0,8.8-4.8,8-9.6C336.797,391.656,333.597,388.456,330.397,386.856z"/>
	<path style="fill:#FFFFFF;" d="M90.397,372.456c-36.8-6.4-44-54.4-44-54.4c-0.8-4.8-5.6-8-10.4-7.2s-8,5.6-7.2,10.4
		c0,2.4,9.6,60.8,59.2,69.6h1.6c4.8,0,9.6-3.2,9.6-8.8C98.397,377.256,95.197,373.256,90.397,372.456L90.397,372.456z"/>
</g>
<path style="fill:#1C1211;" d="M353.597,218.856c-4,0-8,0-12,0.8c-8-20.8-36.8-82.4-94.4-104c9.6-4.8,17.6-11.2,23.2-20
	c16-26.4,1.6-64,0.8-64.8c-1.6-4-5.6-6.4-9.6-5.6c-1.6,0-41.6,4-57.6,30.4c-5.6,8.8-8,18.4-8,28.8c-8-8-17.6-13.6-28-16.8
	c-3.2-0.8-6.4-0.8-10.4-0.8c-26.4,0-50.4,20.8-51.2,21.6c-3.2,2.4-4,7.2-2.4,10.4c0.8,1.6,17.6,37.6,48,44c3.2,0.8,6.4,0.8,10.4,0.8
	c15.2-0.8,29.6-5.6,42.4-14.4c4.8,44-26.4,84-38.4,98.4c-13.6-8.8-28.8-13.6-44-16h-0.8c-60-7.2-113.6,35.2-120.8,95.2
	s35.2,113.6,95.2,120.8c60,7.2,113.6-35.2,120.8-95.2c4-35.2-8.8-70.4-36-94.4c14.4-16.8,47.2-60.8,41.6-111.2
	c58.4,11.2,90.4,71.2,100.8,95.2c-50.4,11.2-84.8,51.2-84.8,103.2c-1.6,64,48.8,116.8,112,118.4c64,1.6,116.8-48.8,118.4-112
	c0-2.4,0-4,0-6.4C468.797,263.656,419.997,218.856,353.597,218.856z M162.397,125.256c-2.4,0-4,0-6.4-0.8c-15.2-3.2-26.4-19.2-32-28
	c9.6-7.2,21.6-12,34.4-12.8c2.4,0,4,0,6.4,0.8c15.2,3.2,26.4,19.2,32,28C186.397,119.656,174.397,124.456,162.397,125.256z
	 M199.197,318.856c0,49.6-40.8,90.4-90.4,90.4s-90.4-40.8-90.4-90.4s40-90.4,90.4-90.4l0,0c2.4,0,5.6,0,8,0c8,5.6,42.4,33.6,28.8,72
	c-1.6,4.8,0.8,9.6,5.6,11.2l0,0c0.8,0,2.4,0.8,3.2,0.8c4,0,7.2-2.4,8.8-5.6c8-23.2,4-48-10.4-67.2
	C180.797,255.656,199.197,286.056,199.197,318.856z M217.597,106.056c-3.2-10.4-6.4-28.8,1.6-42.4s26.4-18.4,36.8-20.8
	c2.4,10.4,6.4,28.8-1.6,42.4C246.397,98.856,227.997,103.656,217.597,106.056z M353.597,422.856c-53.6,0-96.8-43.2-96.8-96.8
	c0-40,26.4-74.4,64.8-84c9.6,3.2,46.4,18.4,56.8,57.6c1.6,4.8,6.4,8,11.2,6.4s8-6.4,6.4-11.2l0,0c-6.4-24-21.6-44.8-42.4-57.6h0.8
	c56,0,96.8,37.6,96.8,88.8C450.397,379.656,407.197,422.856,353.597,422.856z"/>
<g>
</g>
<g>
</g>
<g>
</g>
<g>
</g>
<g>
</g>
<g>
</g>
<g>
</g>
<g>
</g>
<g>
</g>
<g>
</g>
<g>
</g>
<g>
</g>
<g>
</g>
<g>
</g>
<g>
</g>
</svg>
