<svg height="512pt" viewBox="-38 0 512 512" width="512pt" xmlns="http://www.w3.org/2000/svg"><path d="m86.359375 161.222656-69.996094 69.996094c-11.816406 11.820312-11.816406 30.980469 0 42.800781l221.617188 221.617188c11.820312 11.816406 30.984375 11.816406 42.800781 0l139.792969-139.792969c11.820312-11.820312 11.820312-30.980469 0-42.800781l-141.546875-141.542969c-5.332032-5.332031-13.316406-7.011719-20.339844-4.261719-67.089844 26.25-113.601562 15.691407-148.21875-8.296875-7.496094-5.195312-17.660156-4.164062-24.109375 2.28125zm0 0" fill="#d2996f"/><g fill="#c47b46"><path d="m104.511719 156.21875c-6.339844-1.628906-13.300781.152344-18.152344 5.003906l-69.996094 69.996094c-11.816406 11.820312-11.816406 30.980469 0 42.800781l94.609375 94.605469c-24.457031-63.578125-32.378906-150.738281-6.460937-212.40625zm0 0"/><path d="m142.898438 264.585938-35.03125 35.03125c-6.5625 6.558593-17.199219 6.558593-23.761719 0l-35.03125-35.03125c-6.558594-6.5625-6.558594-17.199219 0-23.761719l35.03125-35.03125c6.5625-6.5625 17.199219-6.5625 23.761719 0l35.03125 35.03125c6.5625 6.5625 6.5625 17.199219 0 23.761719zm0 0"/><path d="m224.554688 346.238281-35.035157 35.03125c-6.558593 6.5625-17.195312 6.5625-23.757812 0l-35.03125-35.03125c-6.5625-6.558593-6.5625-17.199219 0-23.757812l35.03125-35.03125c6.5625-6.5625 17.199219-6.5625 23.757812 0l35.035157 35.03125c6.558593 6.558593 6.558593 17.199219 0 23.757812zm0 0"/><path d="m306.207031 264.585938-35.03125 35.03125c-6.5625 6.558593-17.199219 6.558593-23.757812 0l-35.03125-35.03125c-6.5625-6.5625-6.5625-17.199219 0-23.761719l35.03125-35.03125c6.558593-6.5625 17.195312-6.5625 23.757812 0l35.03125 35.03125c6.5625 6.5625 6.5625 17.199219 0 23.761719zm0 0"/><path d="m306.207031 427.894531-35.03125 35.03125c-6.5625 6.5625-17.199219 6.5625-23.757812 0l-35.03125-35.03125c-6.5625-6.5625-6.5625-17.199219 0-23.757812l35.03125-35.035157c6.558593-6.558593 17.195312-6.558593 23.757812 0l35.03125 35.035157c6.5625 6.558593 6.5625 17.195312 0 23.757812zm0 0"/><path d="m387.863281 346.238281-35.03125 35.03125c-6.5625 6.5625-17.199219 6.5625-23.761719 0l-35.03125-35.03125c-6.558593-6.558593-6.558593-17.199219 0-23.757812l35.03125-35.03125c6.5625-6.5625 17.199219-6.5625 23.761719 0l35.03125 35.03125c6.5625 6.558593 6.5625 17.199219 0 23.757812zm0 0"/><path d="m126.046875 168.324219c-.84375 5.15625.707031 10.628906 4.683594 14.605469l35.03125 35.03125c6.5625 6.558593 17.199219 6.558593 23.757812 0l35.035157-35.03125c1.730468-1.734376 2.992187-3.753907 3.808593-5.90625-42.5 10.621093-75.621093 5.058593-102.316406-8.699219zm0 0"/></g><path d="m165.980469 37.765625v68.683594c0 7.3125 6.578125 12.875 13.785156 11.648437 40.855469-6.9375 80.792969-30.96875 109.867187-93.773437 3.632813-7.847657-2.039062-16.824219-10.6875-16.824219h-82.699218c-16.714844 0-30.265625 13.550781-30.265625 30.265625zm0 0" fill="#d2996f"/><path d="m195.902344 54.101562v49.542969c0 3.65625 1.179687 7.027344 3.160156 9.785157 28.609375-9.148438 55.957031-28.632813 78.503906-66.195313-2.628906-5.851563-8.492187-9.933594-15.320312-9.933594h-49.542969c-9.277344 0-16.800781 7.523438-16.800781 16.800781zm0 0" fill="#c47b46"/><path d="m280.8125 130.757812v-20.300781c0-5.597656 5.878906-9.246093 10.898438-6.761719l18.734374 9.28125c5.375 2.660157 5.644532 10.226563.476563 13.265626l-18.734375 11.023437c-5.03125 2.957031-11.375-.671875-11.375-6.507813zm0 0" fill="#d2996f"/><path d="m321.308594 54.386719 7.050781 18.183593c2.234375 5.75 9.777344 7.066407 13.824219 2.414063l14.734375-16.925781c4.472656-5.140625 1.089843-13.171875-5.710938-13.566406l-21.785156-1.253907c-5.957031-.34375-10.273437 5.585938-8.113281 11.148438zm0 0" fill="#d2996f"/><path d="m165.335938 121.207031c3.515624 2.96875 7.917968 4.558594 12.441406 4.558594 1.078125 0 2.160156-.089844 3.242187-.273437 6.984375-1.183594 13.710938-2.824219 20.199219-4.886719.078125-.019531.148438-.046875.222656-.070313 40.933594-13.082031 72.144532-43.699218 94.996094-93.058594 2.796875-6.039062 2.332031-12.984374-1.246094-18.578124-3.558594-5.574219-9.632812-8.898438-16.25-8.898438h-82.699218c-20.820313 0-37.761719 16.941406-37.761719 37.765625v26.558594c0 4.140625 3.359375 7.5 7.5 7.5s7.5-3.359375 7.5-7.5v-26.558594c0-12.554687 10.210937-22.765625 22.761719-22.765625h82.699218c2.042969 0 3.140625 1.234375 3.609375 1.972656.386719.605469 1.1875 2.226563.273438 4.199219-2.105469 4.550781-4.292969 8.917969-6.550781 13.125-4.027344-2.859375-8.902344-4.496094-14.027344-4.496094h-49.542969c-13.398437 0-24.300781 10.902344-24.300781 24.300781v49.542969c0 1.648438.183594 3.269531.503906 4.859375-3.398438.855469-6.859375 1.601563-10.398438 2.199219-1.710937.296875-2.925781-.472656-3.496093-.953125-.570313-.484375-1.53125-1.554688-1.53125-3.296875v-7.234375c0-4.144531-3.359375-7.5-7.5-7.5s-7.5 3.355469-7.5 7.5v7.234375c0 5.699219 2.5 11.074219 6.855469 14.753906zm38.066406-67.105469c0-5.128906 4.171875-9.300781 9.300781-9.300781h49.542969c2.425781 0 4.699218.972657 6.398437 2.59375-17.550781 27.738281-39.132812 46.445313-65.234375 56.523438 0-.09375-.007812-.183594-.007812-.273438zm110.371094 52.152344-18.738282-9.28125c-4.695312-2.324218-10.160156-2.0625-14.609375.703125-4.453125 2.761719-7.113281 7.542969-7.113281 12.78125v20.300781c0 5.464844 2.832031 10.347657 7.578125 13.0625 2.34375 1.339844 4.910156 2.007813 7.472656 2.007813 2.621094 0 5.242188-.699219 7.625-2.101563l18.734375-11.019531c4.769532-2.804687 7.609375-7.980469 7.410156-13.507812-.199218-5.53125-3.402343-10.488281-8.359374-12.945313zm-6.652344 13.523438-18.804688 11.03125s-.003906-.019532-.003906-.050782l.070312-20.34375 18.753907 9.269532c.007812.023437.007812.082031-.015625.09375zm7.191406-62.679688 7.054688 18.183594c2.007812 5.171875 6.46875 8.828125 11.933593 9.785156.921875.160156 1.839844.242188 2.753907.242188 4.492187 0 8.757812-1.921875 11.785156-5.398438l14.734375-16.929687c3.960937-4.550781 4.96875-10.832031 2.625-16.394531-2.339844-5.5625-7.539063-9.234376-13.5625-9.578126l-21.789063-1.253906c-5.351562-.3125-10.433594 2.09375-13.589844 6.433594-3.15625 4.335938-3.882812 9.910156-1.945312 14.910156zm14.074219-6.085937c.222656-.308594.484375-.289063.601562-.285157l21.789063 1.253907c.160156.011719.433594.027343.601562.425781.167969.398438-.011718.605469-.117187.726562l-14.734375 16.929688c-.078125.089844-.257813.300781-.644532.230469-.386718-.066407-.488281-.324219-.53125-.4375l-7.050781-18.179688c-.042969-.109375-.140625-.355469.085938-.664062zm-46.769531 283.347656c0 6.488281 2.53125 12.59375 7.121093 17.183594l35.03125 35.03125c4.589844 4.589843 10.691407 7.117187 17.179688 7.117187 6.492187 0 12.597656-2.527344 17.183593-7.117187l35.03125-35.03125c4.59375-4.589844 7.121094-10.691407 7.121094-17.183594s-2.527344-12.59375-7.121094-17.183594l-35.03125-35.03125c-9.472656-9.476562-24.890624-9.472656-34.363281 0l-35.035156 35.03125c-4.585937 4.589844-7.117187 10.691407-7.117187 17.183594zm17.726562-6.578125 35.03125-35.03125c1.8125-1.8125 4.195312-2.71875 6.578125-2.71875 2.378906 0 4.761719.90625 6.574219 2.71875l35.03125 35.03125c1.757812 1.757812 2.726562 4.09375 2.726562 6.578125s-.96875 4.820313-2.726562 6.574219l-35.03125 35.035156c-1.757813 1.753906-4.09375 2.722656-6.578125 2.722656-2.480469 0-4.816407-.96875-6.574219-2.726562l-35.03125-35.03125c-1.757812-1.753906-2.726562-4.089844-2.726562-6.574219s.96875-4.820313 2.726562-6.578125zm-138.886719 58.792969c4.589844 4.589843 10.691407 7.117187 17.183594 7.117187s12.59375-2.527344 17.183594-7.117187l35.03125-35.03125c4.589843-4.589844 7.117187-10.691407 7.117187-17.183594s-2.527344-12.59375-7.117187-17.183594l-35.03125-35.03125c-9.476563-9.476562-24.890625-9.472656-34.367188 0l-35.03125 35.03125c-9.476562 9.472657-9.476562 24.890625 0 34.363281zm-24.425781-58.792969 35.035156-35.03125c1.8125-1.8125 4.191406-2.71875 6.574219-2.71875s4.765625.90625 6.578125 2.71875l35.03125 35.03125c1.757812 1.757812 2.722656 4.09375 2.722656 6.578125s-.964844 4.820313-2.722656 6.574219l-35.03125 35.035156c-1.757812 1.753906-4.09375 2.722656-6.578125 2.722656s-4.816406-.96875-6.574219-2.726562l-35.03125-35.03125c-1.757812-1.753906-2.726562-4.089844-2.726562-6.574219s.96875-4.820313 2.722656-6.578125zm106.082031 140.449219c4.738281 4.734375 10.960938 7.105469 17.183594 7.105469s12.445313-2.371094 17.183594-7.105469l35.03125-35.035157c4.589843-4.589843 7.117187-10.691406 7.117187-17.179687 0-6.492187-2.527344-12.59375-7.117187-17.1875l-35.03125-35.027344c-4.589844-4.589843-10.691407-7.117187-17.183594-7.117187s-12.59375 2.527344-17.183594 7.117187l-35.03125 35.03125c-4.589843 4.589844-7.117187 10.691407-7.117187 17.183594 0 6.488281 2.527344 12.59375 7.117187 17.183594zm-24.425781-58.792969 35.03125-35.03125c1.757812-1.757812 4.09375-2.722656 6.578125-2.722656s4.820313.964844 6.574219 2.722656l35.035156 35.03125c1.753906 1.757812 2.722656 4.09375 2.722656 6.578125 0 2.480469-.96875 4.820313-2.722656 6.574219l-35.035156 35.03125c-3.625 3.625-9.523438 3.628906-13.152344 0l-35.03125-35.03125c-1.757812-1.753906-2.722656-4.09375-2.722656-6.574219 0-2.484375.964844-4.820313 2.722656-6.578125zm208.191406-101.699219-141.546875-141.542969c-7.445312-7.441406-18.582031-9.773437-28.378906-5.941406-56.089844 21.949219-102.28125 19.503906-141.210937-7.476562-10.453126-7.246094-24.621094-5.921875-33.6875 3.144531l-69.992188 69.992187c-7.132812 7.136719-11.0625 16.617188-11.0625 26.703126 0 10.089843 3.929688 19.570312 11.0625 26.703124l221.617188 221.617188c7.132812 7.136719 16.617187 11.0625 26.703124 11.0625 10.085938 0 19.570313-3.929688 26.703126-11.058594l20.007812-20.011718c2.929688-2.929688 2.929688-7.675782 0-10.605469-2.929688-2.929688-7.675781-2.929688-10.605469 0l-20.011719 20.011719c-4.296874 4.296874-10.015624 6.664062-16.09375 6.664062-6.082031 0-11.796874-2.367188-16.097656-6.667969l-221.617187-221.617187c-4.300781-4.300782-6.667969-10.015625-6.667969-16.097656 0-6.078126 2.367188-11.796876 6.667969-16.09375l69.996093-69.996094c3.933594-3.933594 10.046876-4.53125 14.53125-1.421875 4 2.769531 8.066407 5.308593 12.195313 7.621093.402344 5.792969 2.867187 11.332032 7.035156 15.503907l35.035157 35.035156c4.734374 4.734375 10.957031 7.101563 17.179687 7.101563s12.449219-2.367188 17.183594-7.101563l35.03125-35.035156c1.445312-1.441407 2.679687-3.042969 3.707031-4.78125 9.042969-2.421875 18.324219-5.496094 27.859375-9.226563 4.246094-1.664062 9.074219-.652344 12.304687 2.578125l141.542969 141.546875c4.300781 4.296875 6.667969 10.015625 6.667969 16.097656 0 6.078126-2.367188 11.796876-6.667969 16.09375l-94.824219 94.828126c-2.929687 2.929687-2.929687 7.675781 0 10.605468 2.929688 2.929688 7.675782 2.929688 10.605469 0l94.828125-94.824218c7.132813-7.132813 11.058594-16.617188 11.058594-26.703126 0-10.089843-3.929688-19.570312-11.058594-26.707031zm-241.660156-95.082031c-3.625 3.628906-9.527344 3.628906-13.152344 0l-29.6875-29.683594c20.671875 7.003906 42.898438 8.867188 66.917969 5.605469zm92.261719-12.167969c-4.589844-4.589843-10.691407-7.117187-17.183594-7.117187s-12.59375 2.527344-17.183594 7.117187l-35.03125 35.03125c-9.476562 9.476563-9.476562 24.890625 0 34.367188l35.03125 35.03125c4.738281 4.738281 10.960938 7.105469 17.183594 7.105469s12.445313-2.367188 17.183594-7.105469l35.03125-35.03125c9.472656-9.476563 9.472656-24.890625 0-34.367188zm24.425781 58.792969-35.035156 35.03125c-3.625 3.625-9.523438 3.625-13.152344 0l-35.03125-35.03125c-3.625-3.628906-3.625-9.527344 0-13.152344l35.035156-35.03125c1.753906-1.757812 4.089844-2.726562 6.574219-2.726562s4.820313.96875 6.578125 2.726562l35.03125 35.03125c3.625 3.625 3.625 9.523438 0 13.152344zm-152.703125 10.605469c9.472656-9.476563 9.472656-24.890625 0-34.367188l-35.03125-35.027343c-4.589844-4.59375-10.691406-7.121094-17.183594-7.121094-6.492187 0-12.59375 2.527344-17.183593 7.117187l-35.03125 35.035157c-9.476563 9.472656-9.476563 24.890624 0 34.363281l35.03125 35.035156c4.738281 4.734375 10.960937 7.101563 17.183593 7.101563 6.222657 0 12.445313-2.367188 17.183594-7.101563l35.03125-35.035156c-.003906 0-.003906 0 0 0zm-10.609375-10.605469h.003906l-35.035156 35.03125c-3.625 3.625-9.523438 3.625-13.152344 0l-35.03125-35.03125c-3.625-3.628906-3.625-9.527344 0-13.152344l35.03125-35.03125c1.757813-1.757812 4.09375-2.726562 6.578125-2.726562s4.820313.96875 6.574219 2.726562l35.03125 35.03125c3.628906 3.625 3.628906 9.523438 0 13.152344zm0 0"/></svg>