<?xml version="1.0" encoding="UTF-8"?>
<svg xmlns="http://www.w3.org/2000/svg" xmlns:xlink="http://www.w3.org/1999/xlink" width="512px" height="512px" viewBox="0 0 512 512" version="1.1">
    
    <title>Beer can</title>
    <desc>Created with Sketch.</desc>
    <defs/>
    <g id="SVG" stroke="none" stroke-width="1" fill="none" fill-rule="evenodd">
        <g id="Beer-can">
            <g id="3" transform="translate(122.000000, 0.000000)">
                <path d="M133.888053,10.6666667 L218.652177,10.6666667 L224.362346,34.1831111 C224.362346,34.1831111 250.634854,67.1004444 257.032822,88.2631111 L257.032822,452.707556 C257.032822,452.707556 241.041484,498.005333 218.652177,498.005333 L133.888053,498.005333 L49.1310944,498.005333 C26.7417878,498.005333 10.7504495,452.707556 10.7504495,452.707556 L10.7504495,88.2631111 C17.1412531,67.1004444 43.4209256,34.1831111 43.4209256,34.1831111 L49.1310944,10.6666667 L133.888053,10.6666667 Z" id="Fill-1" fill="#FDDA00"/>
                <path d="M218.652894,10.6666667 L133.88877,10.6666667 L49.1318109,10.6666667 L43.4216421,34.1831111 C43.4216421,34.1831111 17.1419696,67.1004444 10.7440013,88.2631111 L257.033539,88.2631111 C250.63557,67.1004444 224.363062,34.1831111 224.363062,34.1831111 L218.652894,10.6666667 Z" id="Fill-3" fill="#FEFEFE"/>
                <path d="M49.1303779,498.0032 L133.887337,498.0032 L218.651461,498.0032 C241.040767,498.0032 257.03927,452.705422 257.03927,452.705422 L10.749733,452.705422 C10.749733,452.705422 26.7410713,498.0032 49.1303779,498.0032" id="Fill-5" fill="#FEFEFE"/>
                <path d="M224.361629,34.1802667 L218.651461,10.6638222 L175.663992,10.6638222 L181.374161,34.1802667 C181.374161,34.1802667 207.646669,67.0976 214.051802,88.2602667 L214.051802,452.704711 C214.051802,452.704711 198.053299,498.002489 175.663992,498.002489 L218.651461,498.002489 C241.040767,498.002489 257.03927,452.704711 257.03927,452.704711 L257.03927,88.2602667 C250.634137,67.0976 224.361629,34.1802667 224.361629,34.1802667" id="Fill-7" fill="#88441E" opacity="0.3"/>
                <path d="M21.4937343,450.833067 C27.4546633,466.6624 39.8708772,487.3344 49.1275121,487.3344 L218.655759,487.3344 C227.912394,487.3344 240.328608,466.6624 246.289537,450.833067 L246.289537,89.9228444 C240.873116,74.0650667 222.689417,49.2615111 215.940384,40.8064 C214.973166,39.5904 214.278202,38.1824 213.912809,36.6819556 L210.187228,21.3361778 L57.5960434,21.3361778 L53.8704628,36.6819556 C53.5050693,38.1824 52.8101053,39.5904 51.8428872,40.7992889 C45.0938546,49.2686222 26.8958262,74.0935111 21.4937343,89.9228444 L21.4937343,450.833067 Z M218.655759,508.667733 L49.1275121,508.667733 C20.5695038,508.667733 3.69692231,464.991289 0.601824561,456.237511 C0.200608187,455.106844 0,453.912178 0,452.7104 L0,88.2588444 C0,87.2206222 0.15045614,86.1895111 0.451368421,85.1939556 C6.5126015,65.1477333 27.6481069,37.0090667 33.5158964,29.4428444 L38.6815572,8.1664 C39.8493835,3.37351111 44.1624595,0.00284444444 49.1275121,0.00284444444 L218.655759,0.00284444444 C223.620812,0.00284444444 227.933888,3.37351111 229.101714,8.1664 L234.267375,29.4428444 C240.128,37.0090667 261.263505,65.1477333 267.331903,85.1939556 C267.625651,86.1895111 267.783272,87.2206222 267.783272,88.2588444 L267.783272,452.7104 C267.783272,453.912178 267.582663,455.106844 267.181447,456.237511 C264.086349,464.991289 247.213768,508.667733 218.655759,508.667733 L218.655759,508.667733 Z" id="Fill-9" fill="#2E2E30"/>
                <path d="M36.9212204,10.6666667 L232.048505,10.6666667" id="Fill-11" fill="#FEFEFE"/>
                <path d="M232.051371,21.3333333 L36.9240862,21.3333333 C30.9918155,21.3333333 26.177219,16.5617778 26.177219,10.6666667 C26.177219,4.77155556 30.9918155,0 36.9240862,0 L232.051371,0 C237.983642,0 242.798238,4.77155556 242.798238,10.6666667 C242.798238,16.5617778 237.983642,21.3333333 232.051371,21.3333333" id="Fill-13" fill="#2E2E30"/>
                <path d="M42.5604598,41.2913778 L225.221379,41.2913778" id="Fill-15" fill="#FEFEFE"/>
                <path d="M225.222095,51.9580444 L42.5611763,51.9580444 C36.6289056,51.9580444 31.8143091,47.1864889 31.8143091,41.2913778 C31.8143091,35.3962667 36.6289056,30.6247111 42.5611763,30.6247111 L225.222095,30.6247111 C231.154366,30.6247111 235.968962,35.3962667 235.968962,41.2913778 C235.968962,47.1864889 231.154366,51.9580444 225.222095,51.9580444" id="Fill-17" fill="#2E2E30"/>
                <path d="M10.7468672,452.708267 L257.036404,452.708267" id="Fill-19" fill="#FEFEFE"/>
                <path d="M257.036404,463.374933 L10.7468672,463.374933 C4.81459649,463.374933 0,458.603378 0,452.708267 C0,446.813156 4.81459649,442.0416 10.7468672,442.0416 L257.036404,442.0416 C262.968675,442.0416 267.783272,446.813156 267.783272,452.708267 C267.783272,458.603378 262.968675,463.374933 257.036404,463.374933" id="Fill-21" fill="#2E2E30"/>
                <path d="M10.7468672,88.2602667 L257.036404,88.2602667" id="Fill-23" fill="#FEFEFE"/>
                <path d="M257.036404,98.9269333 L10.7468672,98.9269333 C4.81459649,98.9269333 0,94.1553778 0,88.2602667 C0,82.3651556 4.81459649,77.5936 10.7468672,77.5936 L257.036404,77.5936 C262.968675,77.5936 267.783272,82.3651556 267.783272,88.2602667 C267.783272,94.1553778 262.968675,98.9269333 257.036404,98.9269333" id="Fill-25" fill="#2E2E30"/>
                <path d="M195.465453,266.666667 C195.465453,300.423111 167.896156,327.779556 133.885904,327.779556 C99.8828164,327.779556 72.3206844,300.423111 72.3206844,266.666667 C72.3206844,232.917333 99.8828164,205.553778 133.885904,205.553778 C167.896156,205.553778 195.465453,232.917333 195.465453,266.666667" id="Fill-27" fill="#7F562B"/>
                <path d="M133.888053,216.221867 C105.867388,216.221867 83.0625363,238.849422 83.0625363,266.668089 C83.0625363,294.479644 105.867388,317.114311 133.888053,317.114311 C161.915883,317.114311 184.720735,294.479644 184.720735,266.668089 C184.720735,238.849422 161.915883,216.221867 133.888053,216.221867 M133.888053,338.447644 C94.0171763,338.447644 61.568802,306.248533 61.568802,266.668089 C61.568802,227.087644 94.0171763,194.888533 133.888053,194.888533 C173.766095,194.888533 206.21447,227.087644 206.21447,266.668089 C206.21447,306.248533 173.766095,338.447644 133.888053,338.447644" id="Fill-29" fill="#2E2E30"/>
            </g>
        </g>
    </g>

	<metadata>
		<rdf:RDF xmlns:rdf="http://www.w3.org/1999/02/22-rdf-syntax-ns#" xmlns:rdfs="http://www.w3.org/2000/01/rdf-schema#" xmlns:dc="http://purl.org/dc/elements/1.1/">
			<rdf:Description about="https://iconscout.com/legal#licenses" dc:title="Beer can" dc:description="Beer can" dc:publisher="Iconscout" dc:date="2017-04-21" dc:format="image/svg+xml" dc:language="en">
				<dc:creator>
					<rdf:Bag>
						<rdf:li>AomAm .</rdf:li>
					</rdf:Bag>
				</dc:creator>
			</rdf:Description>
		</rdf:RDF>
    </metadata></svg>
