<svg id="Layer_3" enable-background="new 0 0 64 64" height="512" viewBox="0 0 64 64" width="512" xmlns="http://www.w3.org/2000/svg"><circle cx="17" cy="47" fill="#976947" r="15"/><path d="m2 47c0 .478.028.949.071 1.416 2.388 3.802 6.607 6.337 11.429 6.337 7.456 0 13.5-6.044 13.5-13.5 0-2.506-.695-4.845-1.886-6.857-2.34-1.51-5.121-2.396-8.114-2.396-8.284 0-15 6.716-15 15z" fill="#c18e59"/><circle cx="47" cy="47" fill="#976947" r="15"/><path d="m32 47c0 .478.028.949.071 1.416 2.388 3.802 6.607 6.337 11.429 6.337 7.456 0 13.5-6.044 13.5-13.5 0-2.506-.695-4.845-1.886-6.857-2.34-1.51-5.121-2.396-8.114-2.396-8.284 0-15 6.716-15 15z" fill="#c18e59"/><circle cx="32" cy="17" fill="#976947" r="15"/><path d="m17 17c0 2.028.407 3.959 1.136 5.723 2.855 2.646 6.664 4.277 10.864 4.277 8.837 0 16-7.163 16-16 0-.538-.029-1.07-.081-1.594-2.607-4.427-7.41-7.406-12.919-7.406-8.284 0-15 6.716-15 15z" fill="#c18e59"/><path d="m45.262 10c-2.516-4.756-7.507-8-13.262-8-8.043 0-14.588 6.335-14.964 14.284.359-3.53 3.34-6.284 6.964-6.284h2c1.105 0 2 .895 2 2s.895 2 2 2 2-.895 2-2 .895-2 2-2 2 .895 2 2v4c0 1.105.895 2 2 2s2-.895 2-2v-4c0-1.105.895-2 2-2h3z" fill="#976947"/><path d="m17 63c-8.822 0-16-7.178-16-16s7.178-16 16-16 16 7.178 16 16-7.178 16-16 16zm0-30c-7.72 0-14 6.28-14 14s6.28 14 14 14 14-6.28 14-14-6.28-14-14-14z"/><path d="m14.197 35.5h3.606v2h-3.606z" transform="matrix(.555 -.832 .832 .555 -23.245 29.566)"/><path d="m19 36.697h2v3.606h-2z" transform="matrix(.832 -.555 .555 .832 -17.997 17.56)"/><path d="m11.5 37.5h1.999v5h-1.999z" transform="matrix(.8 -.6 .6 .8 -21.5 15.5)"/><path d="m17.95 41.5h5.099v2h-5.099z" transform="matrix(.981 -.196 .196 .981 -7.944 4.851)"/><path d="m6 42h4v2h-4z"/><path d="m11.697 44h3.606v2h-3.606z" transform="matrix(.832 -.555 .555 .832 -22.694 15.046)"/><path d="m25 38.764h2v4.472h-2z" transform="matrix(.894 -.447 .447 .894 -15.591 15.956)"/><path d="m17 59v-2c5.514 0 10-4.486 10-10h2c0 6.617-5.383 12-12 12z"/><path d="m47 63c-8.822 0-16-7.178-16-16s7.178-16 16-16 16 7.178 16 16-7.178 16-16 16zm0-30c-7.72 0-14 6.28-14 14s6.28 14 14 14 14-6.28 14-14-6.28-14-14-14z"/><path d="m44.197 35.5h3.606v2h-3.606z" transform="matrix(.555 -.832 .832 .555 -9.886 54.528)"/><path d="m49 36.697h2v3.606h-2z" transform="matrix(.832 -.555 .555 .832 -12.959 34.201)"/><path d="m41.5 37.5h1.999v5h-1.999z" transform="matrix(.8 -.6 .6 .8 -15.5 33.5)"/><path d="m47.95 41.5h5.099v2h-5.099z" transform="matrix(.981 -.196 .196 .981 -7.36 10.74)"/><path d="m36 42h4v2h-4z"/><path d="m41.697 44h3.606v2h-3.606z" transform="matrix(.832 -.555 .555 .832 -17.656 31.687)"/><path d="m55 38.764h2v4.472h-2z" transform="matrix(.894 -.447 .447 .894 -12.424 29.372)"/><path d="m47 59v-2c5.514 0 10-4.486 10-10h2c0 6.617-5.383 12-12 12z"/><path d="m32 33c-8.822 0-16-7.178-16-16s7.178-16 16-16 16 7.178 16 16-7.178 16-16 16zm0-30c-7.72 0-14 6.28-14 14s6.28 14 14 14 14-6.28 14-14-6.28-14-14-14z"/><path d="m32 29v-2c5.514 0 10-4.486 10-10h2c0 6.617-5.383 12-12 12z"/><path d="m38 19c-1.654 0-3-1.346-3-3v-4c0-.552-.449-1-1-1s-1 .448-1 1c0 1.654-1.346 3-3 3s-3-1.346-3-3c0-.552-.449-1-1-1h-2c-3.309 0-6 2.691-6 6h-2c0-4.411 3.589-8 8-8h2c1.654 0 3 1.346 3 3 0 .552.449 1 1 1s1-.448 1-1c0-1.654 1.346-3 3-3s3 1.346 3 3v4c0 .552.449 1 1 1s1-.448 1-1v-4c0-1.654 1.346-3 3-3h3v2h-3c-.551 0-1 .448-1 1v4c0 1.654-1.346 3-3 3z"/><path d="m31 5h2v2h-2z"/><path d="m37 7h2v2h-2z"/></svg>