<svg id="SvgjsSvg1001" width="288" height="288" xmlns="http://www.w3.org/2000/svg" version="1.1" xmlns:xlink="http://www.w3.org/1999/xlink" xmlns:svgjs="http://svgjs.com/svgjs"><defs id="SvgjsDefs1002"></defs><g id="SvgjsG1008" transform="matrix(0.9167,0,0,0.9167,11.620350000000002,12.370233032226565)"><svg xmlns="http://www.w3.org/2000/svg" width="288" height="288" viewBox="0 0 32 32"><g transform="translate(0 -1020.362)" fill="#000000" class="color000 svgShape"><path fill="#ffffff" style="line-height:normal;text-indent:0;text-align:start;text-decoration-line:none;text-decoration-style:solid;text-decoration-color:#000;text-transform:none;block-progression:tb;isolation:auto;mix-blend-mode:normal" d="M7.49898 1029.8642c-.64051 0-1.21605.3163-1.70508.7929-.48901.4768-.90036 1.1169-1.23828 1.8086-.67582 1.3835-1.05469 2.7496-1.05469 3.9824 0 .1442.019.2751.0274.4141l7.94336 0c.008-.139.0273-.2699.0273-.4141 0-1.2328-.37887-2.5989-1.05469-3.9824-.33791-.6916-.74925-1.3317-1.23828-1.8086-.48902-.4766-1.06456-.7929-1.70508-.7929zM15.50094 1029.8642c-.64051 0-1.2141.3163-1.70313.7929-.48901.4768-.90232 1.1169-1.24023 1.8086-.67582 1.3835-1.05469 2.7496-1.05469 3.9824 0 .1442.021.2751.0293.4141l7.94141 0c.008-.139.0293-.2699.0293-.4141 0-1.2328-.37887-2.5989-1.05469-3.9824-.33791-.6916-.75121-1.3317-1.24023-1.8086-.48903-.4766-1.06262-.7929-1.70313-.7929z" color="#000" font-family="sans-serif" font-weight="400" overflow="visible" white-space="normal" class="colorfff svgShape"></path><path fill="#ffffff" style="line-height:normal;text-indent:0;text-align:start;text-decoration-line:none;text-decoration-style:solid;text-decoration-color:#000;text-transform:none;block-progression:tb;isolation:auto;mix-blend-mode:normal" d="m 23.50094,1029.8642 c -0.64051,0 -1.2141,0.3163 -1.70313,0.7929 -0.48901,0.4768 -0.90232,1.1169 -1.24023,1.8086 -0.67582,1.3835 -1.05469,2.7496 -1.05469,3.9824 0,0.1442 0.021,0.2751 0.0293,0.4141 l 7.94141,0 c 0.008,-0.139 0.0293,-0.2699 0.0293,-0.4141 0,-1.2328 -0.37887,-2.5989 -1.05469,-3.9824 -0.33791,-0.6916 -0.75121,-1.3317 -1.24023,-1.8086 -0.48903,-0.4766 -1.06262,-0.7929 -1.70313,-0.7929 z" color="#000" font-family="sans-serif" font-weight="400" overflow="visible" white-space="normal" class="colorfff svgShape"></path><path fill="#589fff" d="M11.49999 1039.3622l-.49999 3c-.13662.8197-.66901 1.5-1.50002 1.5l-3.99998 0c-.83101 0-1.3634-.6803-1.50002-1.5l-.49999-3M19.5012 1039.3622l-.49999 3c-.13661.8197-.66901 1.5-1.50001 1.5l-3.99999 0c-.83101 0-1.3634-.6803-1.50001-1.5l-.5-3M27.5012 1039.3622l-.49999 3c-.13661.8197-.66901 1.5-1.50001 1.5l-3.99999 0c-.83101 0-1.3634-.6803-1.50001-1.5l-.5-3" class="color589fff svgShape"></path><path fill="#ffffff" style="line-height:normal;text-indent:0;text-align:start;text-decoration-line:none;text-decoration-style:solid;text-decoration-color:#000;text-transform:none;block-progression:tb;isolation:auto;mix-blend-mode:normal" d="M7.49898 1029.8642c-.64051 0-1.21605.3163-1.70508.7929-.48901.4768-.90036 1.1169-1.23828 1.8086-.67582 1.3835-1.05469 2.7496-1.05469 3.9824 0 .1442.019.2751.0274.4141l7.94336 0c.008-.139.0273-.2699.0273-.4141 0-1.2328-.37887-2.5989-1.05469-3.9824-.33791-.6916-.74925-1.3317-1.23828-1.8086-.48902-.4766-1.06456-.7929-1.70508-.7929zM15.50094 1029.8642c-.64051 0-1.2141.3163-1.70313.7929-.48901.4768-.90232 1.1169-1.24023 1.8086-.67582 1.3835-1.05469 2.7496-1.05469 3.9824 0 .1442.021.2751.0293.4141l7.94141 0c.008-.139.0293-.2699.0293-.4141 0-1.2328-.37887-2.5989-1.05469-3.9824-.33791-.6916-.75121-1.3317-1.24023-1.8086-.48903-.4766-1.06262-.7929-1.70313-.7929z" color="#000" font-family="sans-serif" font-weight="400" overflow="visible" white-space="normal" class="colorfff svgShape"></path><path fill="#9bc5ff" d="m 2.4999985,1036.8622 25.9999985,0 c 0.554,0 1,0.446 1,1 0,0.554 -0.446,1 -1,1 l -25.9999985,0 c -0.554,0 -1,-0.446 -1,-1 0,-0.554 0.446,-1 1,-1 z" class="color9bc5ff svgShape"></path><path fill="#ffffff" style="line-height:normal;text-indent:0;text-align:start;text-decoration-line:none;text-decoration-style:solid;text-decoration-color:#000;text-transform:none;block-progression:tb;isolation:auto;mix-blend-mode:normal" d="m 23.50094,1029.8642 c -0.64051,0 -1.2141,0.3163 -1.70313,0.7929 -0.48901,0.4768 -0.90232,1.1169 -1.24023,1.8086 -0.67582,1.3835 -1.05469,2.7496 -1.05469,3.9824 0,0.1442 0.021,0.2751 0.0293,0.4141 l 7.94141,0 c 0.008,-0.139 0.0293,-0.2699 0.0293,-0.4141 0,-1.2328 -0.37887,-2.5989 -1.05469,-3.9824 -0.33791,-0.6916 -0.75121,-1.3317 -1.24023,-1.8086 -0.48903,-0.4766 -1.06262,-0.7929 -1.70313,-0.7929 z" color="#000" font-family="sans-serif" font-weight="400" overflow="visible" white-space="normal" class="colorfff svgShape"></path><path fill="#1c1c1c" style="line-height:normal;text-indent:0;text-align:start;text-decoration-line:none;text-decoration-style:solid;text-decoration-color:#000;text-transform:none;block-progression:tb;isolation:auto;mix-blend-mode:normal" d="m 2.5,1036.3613 c -0.8223514,0 -1.5,0.6777 -1.5,1.5 0,0.8224 0.6776486,1.5 1.5,1.5 l 26,0 c 0.822351,0 1.5,-0.6776 1.5,-1.5 0,-0.8223 -0.677649,-1.5 -1.5,-1.5 l -26,0 z m 0,1 26,0 c 0.285649,0 0.5,0.2144 0.5,0.5 0,0.2857 -0.214351,0.5 -0.5,0.5 l -26,0 c -0.2856486,0 -0.5,-0.2143 -0.5,-0.5 0,-0.2856 0.2143514,-0.5 0.5,-0.5 z" color="#000" font-family="sans-serif" font-weight="400" overflow="visible" white-space="normal" class="color242c88 svgShape"></path><path fill="#1c1c1c" style="line-height:normal;text-indent:0;text-align:start;text-decoration-line:none;text-decoration-style:solid;text-decoration-color:#000;text-transform:none;block-progression:tb;isolation:auto;mix-blend-mode:normal" d="m 3.5078125,1038.8555 a 0.50005,0.50005 0 0 0 -0.5019531,0.5898 l 0.5,3 c 0.081938,0.4916 0.2817843,0.9547 0.6171875,1.3145 0.3354031,0.3598 0.8250077,0.6015 1.3769531,0.6015 l 4,0 c 0.551945,0 1.04155,-0.2417 1.376953,-0.6015 0.335403,-0.3598 0.53525,-0.8229 0.617188,-1.3145 l 0.5,-3 a 0.5010632,0.5010632 0 1 0 -0.988282,-0.166 l -0.5,3 c -0.05468,0.3281 -0.188628,0.6136 -0.361328,0.7988 -0.1726991,0.1853 -0.3654664,0.2832 -0.644531,0.2832 l -4,0 c -0.2790646,0 -0.4718319,-0.098 -0.6445312,-0.2832 -0.1726994,-0.1852 -0.3066458,-0.4707 -0.3613282,-0.7988 l -0.5,-3 a 0.50005,0.50005 0 0 0 -0.4863281,-0.4238 z" color="#000" font-family="sans-serif" font-weight="400" overflow="visible" white-space="normal" class="color242c88 svgShape"></path><path fill="#1c1c1c" style="line-height:normal;text-indent:0;text-align:start;text-decoration-line:none;text-decoration-style:solid;text-decoration-color:#000;text-transform:none;block-progression:tb;isolation:auto;mix-blend-mode:normal" d="M11.509766 1038.8555a.50005.50005 0 0 0-.501954.5898l.5 3c.08193.4916.281786.9547.617188 1.3145.335402.3598.825008.6015 1.376953.6015l4 0c.551942 0 1.039597-.2417 1.375-.6015.335403-.3598.535255-.8229.617188-1.3145l.5-3a.50010021.50010021 0 1 0-.986329-.166l-.5 3c-.05468.3281-.188628.6136-.361328.7988-.172699.1853-.365473.2832-.644531.2832l-4 0c-.279064 0-.471834-.098-.644531-.2832-.172698-.1852-.308603-.4707-.363281-.7988l-.5-3a.50005.50005 0 0 0-.484375-.4238zM7.4980469 1029.3633c-.8051184 0-1.502465.3992-2.0527344.9355-.548812.5351-.9850787 1.2211-1.3398437 1.9473C3.4050215 1033.68 3 1035.112 3 1036.4473c0 .1881.022495.3327.029297.4453a.50004997.50004997 0 0 0 .5.4687l7.9433591 0a.50004997.50004997 0 0 0 .498047-.4707c.0064-.1109.02734-.2545.02734-.4433 0-1.3353-.403068-2.7673-1.103516-4.2012a.50004997.50004997 0 0 0-.002 0c-.35475-.7261-.78909-1.4121-1.3378905-1.9473C9.0044258 1029.7625 8.3051258 1029.3633 7.5 1029.3633l-.00195 0zm0 1l.00195 0c.4759142 0 .9296435.2354 1.3574219.6523.4292596.4186.8156491 1.0128 1.1367187 1.6699.6362944 1.3026.9647244 2.5638.9804684 3.6758l-6.9511715 0c.015742-1.112.3461256-2.3732.9824219-3.6758l-.00195 0c.321075-.6572.709464-1.2514 1.1386719-1.6699.4277907-.4169.8795672-.6523 1.3554688-.6523z" color="#000" font-family="sans-serif" font-weight="400" overflow="visible" white-space="normal" class="color242c88 svgShape"></path><path fill="#1c1c1c" style="line-height:normal;text-indent:0;text-align:start;text-decoration-line:none;text-decoration-style:solid;text-decoration-color:#000;text-transform:none;block-progression:tb;isolation:auto;mix-blend-mode:normal" d="M7.1113281 1031.4395a.50004997.50004997 0 0 0-.3476562.1464c-.2965466.2871-.5246396.6433-.7148438 1.0176-.092866.1828-.1771692.3674-.2519531.5508a.50068571.50068571 0 0 0 .9277344.3769c.063756-.1563.1358627-.3153.2167968-.4746.1574359-.3098.3407448-.5807.5175782-.7519a.50004997.50004997 0 0 0-.3476563-.8652zm-1.1894531 2.8164a.50004997.50004997 0 0 0-.515625.4824c-.0001698 0-.00204.023-.00391.059a.50004997.50004997 0 1 0 .9980468.053c.0001289 0 .00208-.024.00391-.061a.50004997.50004997 0 0 0-.4824219-.5332zM15.5 1029.3633c-.805118 0-1.500988.3997-2.050781.9355-.548334.5347-.986706 1.2204-1.341797 1.9473-.700447 1.4339-1.105469 2.8659-1.105469 4.2012 0 .1927.02483.3377.03125.4453a.50004997.50004997 0 0 0 .498047.4687l7.941406 0a.50004997.50004997 0 0 0 .5-.4707c.0061-.1061.0293-.2499.0293-.4433 0-1.3353-.403068-2.7673-1.103515-4.2012a.50004997.50004997 0 0 0-.002 0c-.355085-.7268-.791534-1.4126-1.339843-1.9473-.549794-.5358-1.247616-.9355-2.052735-.9355l-.0039 0zm0 1l.0039 0c.475902 0 .927203.2349 1.355469.6523.42973.4191.817937 1.0135 1.138672 1.6699.636294 1.3026.964724 2.5638.980469 3.6758l-6.953125 0c.01574-1.112.346125-2.3732.982421-3.6758.320729-.6565.708986-1.2509 1.138672-1.6699.428267-.4174.877614-.6523 1.353516-.6523zM19.509766 1038.8555a.50005.50005 0 0 0-.501954.5898l.5 3c.08193.4916.281786.9547.617188 1.3145.335402.3598.825008.6015 1.376953.6015l4 0c.551942 0 1.039597-.2417 1.375-.6015.335403-.3598.535255-.8229.617188-1.3145l.5-3a.50010021.50010021 0 1 0-.986329-.166l-.5 3c-.05468.3281-.188628.6136-.361328.7988-.172699.1853-.365473.2832-.644531.2832l-4 0c-.279064 0-.471834-.098-.644531-.2832-.172698-.1852-.308603-.4707-.363281-.7988l-.5-3a.50005.50005 0 0 0-.484375-.4238z" color="#000" font-family="sans-serif" font-weight="400" overflow="visible" white-space="normal" class="color242c88 svgShape"></path><path fill="#1c1c1c" style="line-height:normal;text-indent:0;text-align:start;text-decoration-line:none;text-decoration-style:solid;text-decoration-color:#000;text-transform:none;block-progression:tb;isolation:auto;mix-blend-mode:normal" d="M23.5 1029.3633c-.805118 0-1.500988.3997-2.050781.9355-.548334.5347-.986706 1.2204-1.341797 1.9473-.700447 1.4339-1.105469 2.8659-1.105469 4.2012 0 .1927.02483.3377.03125.4453a.50004997.50004997 0 0 0 .498047.4687l7.941406 0a.50004997.50004997 0 0 0 .5-.4707c.0061-.1061.0293-.2499.0293-.4433 0-1.3353-.403068-2.7673-1.103515-4.2012a.50004997.50004997 0 0 0-.002 0c-.355085-.7268-.791534-1.4126-1.339843-1.9473-.549794-.5358-1.247616-.9355-2.052735-.9355l-.0039 0zm0 1l.0039 0c.475902 0 .927203.2349 1.355469.6523.42973.4191.817937 1.0135 1.138672 1.6699.636294 1.3026.964724 2.5638.980469 3.6758l-6.953125 0c.01574-1.112.346125-2.3732.982421-3.6758.320729-.6565.708986-1.2509 1.138672-1.6699.428267-.4174.877614-.6523 1.353516-.6523zM15.111328 1031.4395a.50004997.50004997 0 0 0-.347656.1464c-.296547.2871-.52464.6433-.714844 1.0176-.09287.1828-.177169.3674-.251953.5508a.50068553.50068553 0 0 0 .927734.3769c.06376-.1563.135863-.3153.216797-.4746.157436-.3098.340745-.5807.517578-.7519a.50004997.50004997 0 0 0-.347656-.8652zm-1.189453 2.8164a.50004997.50004997 0 0 0-.515625.4824c-.00017 0-.002.023-.0039.059a.50004997.50004997 0 1 0 .998047.053c.000128 0 .0021-.024.0039-.061a.50004997.50004997 0 0 0-.482422-.5332z" color="#000" font-family="sans-serif" font-weight="400" overflow="visible" white-space="normal" class="color242c88 svgShape"></path><path fill="#1c1c1c" style="line-height:normal;text-indent:0;text-align:start;text-decoration-line:none;text-decoration-style:solid;text-decoration-color:#000;text-transform:none;block-progression:tb;isolation:auto;mix-blend-mode:normal" d="m 23.111328,1031.4395 a 0.50004997,0.50004997 0 0 0 -0.347656,0.1464 c -0.296547,0.2871 -0.52464,0.6433 -0.714844,1.0176 -0.09287,0.1828 -0.177169,0.3674 -0.251953,0.5508 a 0.50068553,0.50068553 0 0 0 0.927734,0.3769 c 0.06376,-0.1563 0.135863,-0.3153 0.216797,-0.4746 0.157436,-0.3098 0.340745,-0.5807 0.517578,-0.7519 a 0.50004997,0.50004997 0 0 0 -0.347656,-0.8652 z m -1.189453,2.8164 a 0.50004997,0.50004997 0 0 0 -0.515625,0.4824 c -1.7e-4,0 -0.002,0.023 -0.0039,0.059 a 0.50004997,0.50004997 0 1 0 0.998047,0.053 c 1.28e-4,-0 0.0021,-0.024 0.0039,-0.061 a 0.50004997,0.50004997 0 0 0 -0.482422,-0.5332 z" color="#000" font-family="sans-serif" font-weight="400" overflow="visible" white-space="normal" class="color242c88 svgShape"></path></g></svg></g></svg>