<svg height="512" viewBox="0 0 128 128" width="512" xmlns="http://www.w3.org/2000/svg"><g><g><path d="m56.9 10.188a89.555 89.555 0 0 1 2.27 22.312l2.08 4.417h5.5l2.08-4.417a89.555 89.555 0 0 1 2.275-22.312 2.989 2.989 0 0 0 -2.919-3.688h-8.372a2.989 2.989 0 0 0 -2.914 3.688z" fill="#663325"/><path d="m103.81 79.144c0 20.366-17.14 34.981-39.81 34.981s-39.81-14.615-39.81-34.981 32.98-27.793 34.98-46.644h9.66c2 18.851 34.98 26.279 34.98 46.644z" fill="#d8d8d8"/><path d="m59.17 32.5c-1.92 26.039-36.42 69.166 4.83 81.625 41.25-12.459 6.75-55.586 4.83-81.625z" fill="#eaeaf0"/></g><g fill="#1e0c30"><path d="m84.57 55.5.29.23c1.239.982 2.478 1.966 3.7 2.96a1.75 1.75 0 1 0 2.215-2.71c-1.231-1.005-2.483-2-3.734-2.992l-.29-.229a1.75 1.75 0 1 0 -2.181 2.741z"/><path d="m105.56 79.144c0-8.263-5.09-14.219-8.919-17.98a1.751 1.751 0 0 0 -2.454 2.5c5.445 5.347 7.873 10.123 7.873 15.483 0 15.886-10.9 28.17-27.1 31.985a23.327 23.327 0 0 0 8.4-9.184c6.1-12.215.125-28.511-5.651-44.271-1.509-4.126-2.973-8.141-4.19-11.977a59.014 59.014 0 0 0 5.53 5.3 1.75 1.75 0 1 0 2.277-2.657c-4.917-4.215-10.036-9.411-10.75-15.992a88.134 88.134 0 0 1 2.233-21.737 4.668 4.668 0 0 0 -.862-4.028 4.737 4.737 0 0 0 -3.757-1.836h-8.38a4.739 4.739 0 0 0 -3.758 1.836 4.667 4.667 0 0 0 -.859 4.03c.465 1.855.868 3.853 1.2 5.94a1.75 1.75 0 0 0 3.458-.543c-.344-2.19-.767-4.292-1.258-6.248a1.178 1.178 0 0 1 .223-1.025 1.261 1.261 0 0 1 1-.49h8.38a1.26 1.26 0 0 1 1 .49 1.179 1.179 0 0 1 .225 1.024 89.521 89.521 0 0 0 -2.373 20.986h-6.1c.005-1.456-.028-3.7-.2-6.421a1.751 1.751 0 0 0 -3.494.224c.271 4.225.186 7.3.169 7.8-.9 8.288-8.491 14.315-16.529 20.7-9.073 7.2-18.455 14.649-18.455 26.1 0 20.324 15.944 35.316 38.351 36.627a23.536 23.536 0 0 1 -2.65 4.6 1.75 1.75 0 0 0 2.556 2.383 1.72 1.72 0 0 0 .181-.2c.136-.176.7-.932 1.372-2.014v.958a1.75 1.75 0 0 0 3.5 0v-.956c.67 1.083 1.238 1.837 1.373 2.013a1.862 1.862 0 0 0 .149.171l.01.009a1.742 1.742 0 0 0 2.47 0 1.755 1.755 0 0 0 .135-2.323 23.318 23.318 0 0 1 -2.679-4.638c22.408-1.322 38.353-16.314 38.353-36.639zm-25.327 21.237c-2.718 5.446-8.033 9.346-16.233 11.913-8.2-2.567-13.515-6.467-16.233-11.913-5.424-10.864.285-26.44 5.807-41.5 3.241-8.842 6.315-17.227 7.185-24.629h6.481c.871 7.4 3.946 15.787 7.187 24.629 5.521 15.06 11.23 30.636 5.806 41.5zm-54.293-21.237c0-9.758 8.321-16.363 17.131-23.355a92.382 92.382 0 0 0 11.429-10.138c-1.22 3.851-2.7 7.884-4.213 12.023-5.777 15.76-11.751 32.056-5.653 44.271a23.337 23.337 0 0 0 8.4 9.184c-16.193-3.815-27.094-16.099-27.094-31.985z"/><path d="m75.739 83.325a1.751 1.751 0 0 0 1.719 1.433 1.828 1.828 0 0 0 .319-.029 1.751 1.751 0 0 0 1.4-2.039 76.712 76.712 0 0 0 -1.815-7.49 1.75 1.75 0 0 0 -3.362.975 73.051 73.051 0 0 1 1.739 7.15z"/></g></g></svg>