<svg id="girl-ills" xmlns="http://www.w3.org/2000/svg" width="395.385" height="319.759" viewBox="0 0 395.385 319.759">
  <path id="XMLID_1_" d="M200.388,804.076h319.9a7.387,7.387,0,0,0,7.388-7.388h0a7.386,7.386,0,0,0-7.388-7.388h-319.9A7.386,7.386,0,0,0,193,796.688h0A7.386,7.386,0,0,0,200.388,804.076Z" transform="translate(-159.677 -484.317)" opacity="0.34"/>
  <path id="XMLID_28_" d="M157.2,470.475h65.045a12,12,0,0,0,11.986-11.986h0A12,12,0,0,0,222.249,446.5h-36.32a14.2,14.2,0,0,1-14.208-14.208h0a14.2,14.2,0,0,1,14.208-14.208h32.29a16.03,16.03,0,0,0,16.016-16.016h0a16.03,16.03,0,0,0-16.016-16.016H182.313A14.288,14.288,0,0,1,168.054,371.8h0a14.288,14.288,0,0,1,14.259-14.259h64.27a14.288,14.288,0,0,0,14.259-14.259h0a14.288,14.288,0,0,0-14.259-14.259H232.53a14.288,14.288,0,0,1-14.259-14.259h0A14.288,14.288,0,0,1,232.53,300.5H438.618a14.288,14.288,0,0,1,14.259,14.259h0a14.288,14.288,0,0,1-14.259,14.259h-6.045a14.288,14.288,0,0,0-14.259,14.259h0a14.288,14.288,0,0,0,14.259,14.259h54.4a10.958,10.958,0,0,1,10.953,10.953h0a10.958,10.958,0,0,1-10.953,10.953h-57.3a11.421,11.421,0,0,0-11.418,11.418h0a11.421,11.421,0,0,0,11.418,11.418h91.445a14.288,14.288,0,0,1,14.259,14.259h0A14.288,14.288,0,0,1,521.126,430.8H432.573a14.288,14.288,0,0,0-14.259,14.259h0a14.288,14.288,0,0,0,14.259,14.259h53.472a22.843,22.843,0,0,1,22.836,22.836h0a22.843,22.843,0,0,1-22.836,22.836H157.2a17.2,17.2,0,0,1-17.2-17.2h0A17.221,17.221,0,0,1,157.2,470.475Z" transform="translate(-140 -248.051)" fill="#65706c"/>
  <rect id="XMLID_114_" width="9.3" height="139.906" transform="translate(128.588 172.477)" fill="#2f262d"/>
  <path id="XMLID_85_" d="M614.138,578.555a6.754,6.754,0,0,0-3.41-8.886,7.219,7.219,0,0,0-2.738-.568,6.745,6.745,0,0,0-6.148,3.978l-33.065,74.5,12.3,5.476Z" transform="translate(-440.857 -377.881)" fill="#fc9f6f"/>
  <rect id="XMLID_7_" width="9.3" height="139.906" transform="translate(219.26 172.477)" fill="#2f262d"/>
  <path id="XMLID_80_" d="M400,479.156c31.98,0,57.864-24.385,57.864-54.4a52,52,0,0,0-4.856-21.854c20.356,8.421,34.563,27.589,34.563,49.8,0,30.068-25.884,54.4-57.864,54.4-23.714,0-44.069-13.381-53.007-32.548A61.235,61.235,0,0,0,400,479.156Z" transform="translate(-214.475 -297.547)" fill="#f2f2f2"/>
  <ellipse id="XMLID_15_" cx="31.67" cy="29.087" rx="31.67" ry="29.087" transform="translate(185.887 138.16)" fill="#3b323a"/>
  <path id="XMLID_4_" d="M232.108,519.266h70.831a4.939,4.939,0,0,0,4.908-4.908v-4.65a4.939,4.939,0,0,0-4.908-4.908H232.108a4.939,4.939,0,0,0-4.908,4.908v4.65A4.939,4.939,0,0,0,232.108,519.266Z" transform="translate(42.486 -346.801)" fill="#afafaf"/>
  <path id="XMLID_19_" d="M503.66,434.558a17.992,17.992,0,0,0,17.979-17.979V398.6a12.37,12.37,0,0,1,12.4-12.4h0v30.378a30.362,30.362,0,0,1-30.378,30.378H478.5v-12.4Z" transform="translate(-313.537 -289.475)" fill="#ef9067"/>
  <path id="XMLID_8_" d="M412.932,255.345c1.86,23.507,22.526,49.546,41.848,46.239,18.5-3.151,31.205-32.342,24.954-52.8-3.875-12.606-14.518-20.511-23.094-26.865-8.886-6.613-14.879-11.056-21.7-9.971C421.4,214.014,411.433,236.643,412.932,255.345Z" transform="translate(-226.889 -205.169)" fill="#603936"/>
  <path id="XMLID_30_" d="M411.021,398.485c.362-.413,3.255-3.771,3.771-4.236,1.343-5.528,4.081-11.624,3.513-18.754,3.875-2.842,10.281-6.458,17.566-5.941a38.6,38.6,0,0,1,5.58.93,39.211,39.211,0,0,1,11.573,4.546,17.778,17.778,0,0,1,3.668,2.635,15.433,15.433,0,0,1,3.823,8.473,123.536,123.536,0,0,1,.362,36.733c-.568,2.738-1.343,5.166-1.343,5.166a66.014,66.014,0,0,1-3.255,7.75,214.227,214.227,0,0,1-11.728,26.245c-3.616.568-11.831,4.185-17.256,2.325-8.266-2.842-25.315-9.2-31.412-10.488,7.595-8.525,14.569-18.031,16.378-29.6.465-3,.878-5.941,1.188-8.835-.723-.362-5.115-2.583-5.993-7.026C406.526,403.6,410.3,399.312,411.021,398.485Z" transform="translate(-198.888 -281.405)" fill="#f05364"/>
  <ellipse id="XMLID_48_" cx="8.472" cy="9.867" rx="8.472" ry="9.867" transform="matrix(-0.963, -0.269, 0.269, -0.963, 238.951, 108.451)" fill="#ef9067"/>
  <path id="XMLID_20_" d="M496.035,339.484c-2.842,6.716-7.543,9.041-10.539,10.8-5.838,3.41-16.791,3.1-16.791,3.1a25.724,25.724,0,0,0-2.583-8.37c-2.687-5.838-5.166-7.233-8.628-12.5-5.166-7.956-7.75-17.566-6.1-18.5,1.188-.723,4.443,3,6.561,5.166C464,325.38,477.539,334.576,496.035,339.484Z" transform="translate(-261.273 -254.539)" fill="#603936"/>
  <path id="XMLID_10_" d="M436.106,353.476h2.17a8.555,8.555,0,0,0,8.576-8.576V312.3H429.7v34.718A6.45,6.45,0,0,0,436.106,353.476Z" transform="translate(-201.138 -253.755)" fill="#ef9067"/>
  <rect id="XMLID_5_" width="9.3" height="139.906" transform="translate(322.237 172.477)" fill="#2f262d"/>
  <rect id="XMLID_96_" width="9.3" height="139.906" transform="translate(265.04 172.477)" fill="#494149"/>
  <rect id="XMLID_102_" width="9.3" height="139.906" transform="translate(72.614 172.477)" fill="#494149"/>
  <path id="XMLID_27_" d="M446.852,313.925A25.436,25.436,0,0,1,429.7,335.055V308.5h17.152Z" transform="translate(-201.138 -251.918)" fill="#d36b46" opacity="0.71"/>
  <path id="XMLID_6_" d="M457.184,308.1h0a22.755,22.755,0,0,0,22.784-22.784v-27.8a2.1,2.1,0,0,0-2.118-2.118H445.456A11.069,11.069,0,0,0,434.4,266.456v18.857A22.755,22.755,0,0,0,457.184,308.1Z" transform="translate(-236.682 -226.251)" fill="#fc9f6f"/>
  <path id="XMLID_29_" d="M493.9,298.058a1.692,1.692,0,0,0,1.55,1.033h10.023a1.72,1.72,0,0,0,1.7-1.7v-5.631a1.72,1.72,0,0,0-1.7-1.7H495.45a1.692,1.692,0,0,0-1.55,1.033v-2.17a3.156,3.156,0,0,1,1.55-.413h10.023a3.241,3.241,0,0,1,3.255,3.255v5.631a3.241,3.241,0,0,1-3.255,3.255H495.45a3.156,3.156,0,0,1-1.55-.413Z" transform="translate(-296.182 -242.251)" fill="#dd9883"/>
  <path id="XMLID_13_" d="M461.88,300.491H471.9a2.48,2.48,0,0,0,2.48-2.48V292.38a2.48,2.48,0,0,0-2.48-2.48H461.88a2.48,2.48,0,0,0-2.48,2.48v5.631A2.48,2.48,0,0,0,461.88,300.491Z" transform="translate(-244.013 -242.927)" fill="none" stroke="#dd9883" stroke-linecap="round" stroke-linejoin="round" stroke-miterlimit="10" stroke-width="3"/>
  <path id="XMLID_36_" d="M456.056,286.848v-27.8a2.1,2.1,0,0,0-2.118-2.118l-18.7-6.561c2.015-2.635-3.1,2.273.465,2.273h32.393a2.1,2.1,0,0,1,2.118,2.118v27.8a22.755,22.755,0,0,1-22.784,22.784H446.6A22.845,22.845,0,0,0,456.056,286.848Z" transform="translate(-226.926 -223.446)" fill="#ef9067" opacity="0.6"/>
  <path id="XMLID_14_" d="M497.88,298.491H507.9a2.48,2.48,0,0,0,2.48-2.48V290.38a2.48,2.48,0,0,0-2.48-2.48H497.88a2.48,2.48,0,0,0-2.48,2.48v5.631A2.48,2.48,0,0,0,497.88,298.491Z" transform="translate(-298.612 -241.961)" fill="none" stroke="#f6cdf7" stroke-linecap="round" stroke-linejoin="round" stroke-miterlimit="10" stroke-width="3"/>
  <path id="XMLID_17_" d="M485.015,328.095h0a5.193,5.193,0,0,0,5.218-5.166V320.5H479.9v2.428A5.138,5.138,0,0,0,485.015,328.095Z" transform="translate(-270.454 -257.718)" fill="#fcfafa"/>
  <line id="XMLID_11_" x1="4.65" stroke-width="3" transform="translate(219.262 50.589)" stroke="#161515" stroke-linecap="round" stroke-linejoin="round" stroke-miterlimit="10" fill="none"/>
  <line id="XMLID_22_" x1="4.65" stroke-width="3" transform="translate(201.696 50.589)" stroke="#161515" stroke-linecap="round" stroke-linejoin="round" stroke-miterlimit="10" fill="none"/>
  <path id="XMLID_9_" d="M461.88,298.491H471.9a2.48,2.48,0,0,0,2.48-2.48V290.38a2.48,2.48,0,0,0-2.48-2.48H461.88a2.48,2.48,0,0,0-2.48,2.48v5.631A2.48,2.48,0,0,0,461.88,298.491Z" transform="translate(-244.013 -241.961)" fill="none" stroke="#f6cdf7" stroke-linecap="round" stroke-linejoin="round" stroke-miterlimit="10" stroke-width="3"/>
  <path id="XMLID_23_" d="M375.8,207.205c6.251-8.06,16.894-7.9,18.857-8.111,1.757-.362,11.418.1,18.5,1.963a37.276,37.276,0,0,1,27.692,36.061v21.7c0,14.569-10.746,32.238-24.54,36.836-7.646,2.583-16.119,4.546-18.134,4.236,10.229-18.961,8.835-30.172,5.941-36.733-6.923-16.016-27.227-15.448-32.238-33.272C371.773,229.369,368.622,216.5,375.8,207.205Z" transform="translate(-164.859 -198.981)" fill="#754743"/>
  <path id="XMLID_21_" d="M483.9,391.3" transform="translate(-266.188 -291.94)" fill="#f05364"/>
  <path id="XMLID_32_" d="M574.675,487.887a11.908,11.908,0,0,1-.775-4.288,12.4,12.4,0,0,1,24.8,0,11.906,11.906,0,0,1-.775,4.288Z" transform="translate(-427.484 -330.561)" fill="#ef9067"/>
  <path id="XMLID_42_" d="M490.2,496.97c1.033-4.753,6.768-8.37,13.743-8.37,6.923,0,12.709,3.616,13.743,8.37Z" transform="translate(-303.228 -338.971)" fill="#f4eff0"/>
  <ellipse id="XMLID_16_" cx="7.543" cy="11.831" rx="7.543" ry="11.831" transform="translate(247.471 98.172)" fill="#ef9067"/>
  <path id="XMLID_24_" d="M422.26,437.436a17.992,17.992,0,0,0,17.979-17.979V397.5a6.218,6.218,0,0,1,6.2-6.2h0a6.218,6.218,0,0,1,6.2,6.2v21.957a30.361,30.361,0,0,1-30.378,30.378H397.1v-12.4h25.16Z" transform="translate(-190.082 -291.94)" fill="#fc9f6f"/>
  <path id="XMLID_33_" d="M544.895,502.287h57.864a1.368,1.368,0,0,0,1.343-1.343h0a1.368,1.368,0,0,0-1.343-1.343H544.843a1.368,1.368,0,0,0-1.343,1.343h0A1.379,1.379,0,0,0,544.895,502.287Z" transform="translate(-417.181 -344.288)" fill="#fff"/>
  <path id="XMLID_76_" d="M544.743,501.572h57.864a1.367,1.367,0,0,0,1.188-.672,1.465,1.465,0,0,1,.207.672,1.368,1.368,0,0,1-1.343,1.343H544.743a1.368,1.368,0,0,1-1.343-1.343,1.039,1.039,0,0,1,.207-.672A1.324,1.324,0,0,0,544.743,501.572Z" transform="translate(-417.03 -344.916)" fill="#f4eff0"/>
  <path id="XMLID_70_" d="M544.843,502.287h11.211a1.368,1.368,0,0,0,1.343-1.343h0a1.368,1.368,0,0,0-1.343-1.343H544.843a1.368,1.368,0,0,0-1.343,1.343h0A1.334,1.334,0,0,0,544.843,502.287Z" transform="translate(-370.477 -344.288)" fill="#f4eff0"/>
  <g id="XMLID_37_" transform="translate(131.795 153.349)">
    <g id="XMLID_148_" transform="translate(0)">
      <path id="XMLID_150_" d="M642,497.763h4.237v-.982a.981.981,0,0,0-.982-.982h-2.273a.981.981,0,0,0-.982.982Z" transform="translate(-642 -495.8)" fill="#f4eff0"/>
    </g>
    <g id="XMLID_145_" transform="translate(5.166)">
      <path id="XMLID_147_" d="M632,497.763h4.236v-.982a.981.981,0,0,0-.982-.982h-2.273a.981.981,0,0,0-.982.982v.982Z" transform="translate(-632 -495.8)" fill="#f4eff0"/>
    </g>
    <g id="XMLID_142_" transform="translate(10.333)">
      <path id="XMLID_144_" d="M622,497.763h4.236v-.982a.981.981,0,0,0-.982-.982h-2.273a.981.981,0,0,0-.982.982Z" transform="translate(-622 -495.8)" fill="#f4eff0"/>
    </g>
    <g id="XMLID_139_" transform="translate(15.499)">
      <path id="XMLID_141_" d="M612,497.763h4.236v-.982a.981.981,0,0,0-.982-.982h-2.273a.981.981,0,0,0-.982.982Z" transform="translate(-612 -495.8)" fill="#f4eff0"/>
    </g>
    <g id="XMLID_136_" transform="translate(20.666)">
      <path id="XMLID_138_" d="M602,497.763h4.236v-.982a.981.981,0,0,0-.982-.982h-2.273a.981.981,0,0,0-.982.982Z" transform="translate(-602 -495.8)" fill="#f4eff0"/>
    </g>
    <g id="XMLID_133_" transform="translate(25.832)">
      <path id="XMLID_135_" d="M592,497.763h4.236v-.982a.981.981,0,0,0-.982-.982h-2.273a.981.981,0,0,0-.982.982Z" transform="translate(-592 -495.8)" fill="#f4eff0"/>
    </g>
    <g id="XMLID_130_" transform="translate(30.998)">
      <path id="XMLID_132_" d="M582,497.763h4.236v-.982a.981.981,0,0,0-.982-.982h-2.273a.981.981,0,0,0-.982.982Z" transform="translate(-582 -495.8)" fill="#f4eff0"/>
    </g>
    <g id="XMLID_127_" transform="translate(36.165)">
      <path id="XMLID_129_" d="M572,497.763h4.236v-.982a.981.981,0,0,0-.982-.982h-2.273a.981.981,0,0,0-.982.982Z" transform="translate(-572 -495.8)" fill="#f4eff0"/>
    </g>
    <g id="XMLID_124_" transform="translate(41.331)">
      <path id="XMLID_126_" d="M562,497.763h4.236v-.982a.981.981,0,0,0-.982-.982h-2.273a.981.981,0,0,0-.982.982Z" transform="translate(-562 -495.8)" fill="#f4eff0"/>
    </g>
    <g id="XMLID_121_" transform="translate(46.498)">
      <path id="XMLID_123_" d="M552,497.763h4.236v-.982a.981.981,0,0,0-.982-.982h-2.273a.981.981,0,0,0-.982.982Z" transform="translate(-552 -495.8)" fill="#f4eff0"/>
    </g>
  </g>
  <path id="XMLID_74_" d="M555.954,503.543H544.743A1.368,1.368,0,0,1,543.4,502.2h13.949A1.379,1.379,0,0,1,555.954,503.543Z" transform="translate(-370.377 -345.545)" fill="#e2e2e2"/>
  <path id="XMLID_71_" d="M491.7,565.7h40.866l.31-21.7H482.248a6.13,6.13,0,0,0-6.148,6.148h0A15.611,15.611,0,0,0,491.7,565.7Z" transform="translate(-311.137 -365.749)" fill="#352934"/>
  <path id="XMLID_100_" d="M530.444,654.534,505.386,569.8a6.711,6.711,0,0,0-6.458-4.8,8.1,8.1,0,0,0-1.912.258,6.745,6.745,0,0,0-4.546,8.37l25.057,84.729Z" transform="translate(-317.02 -375.9)" fill="#ef9067"/>
  <path id="XMLID_72_" d="M518.894,628.872l20.821-6.148-26.245-88.707a10.87,10.87,0,0,0-13.484-7.336h0a10.87,10.87,0,0,0-7.336,13.484Z" transform="translate(-326.29 -357.161)" fill="#352934"/>
  <g id="XMLID_31_" transform="translate(70.16 64.693)">
    <path id="XMLID_25_" d="M572.546,392.4h86.8a3.109,3.109,0,0,0,3.1-3.1l-10.746-62a3.109,3.109,0,0,0-3.1-3.1H561.8a3.109,3.109,0,0,0-3.1,3.1l10.746,62A3.076,3.076,0,0,0,572.546,392.4Z" transform="translate(-553.534 -324.2)" fill="#cecece"/>
    <path id="XMLID_26_" d="M582.546,392.4h86.8a3.109,3.109,0,0,0,3.1-3.1l-10.746-62a3.109,3.109,0,0,0-3.1-3.1H571.8a3.109,3.109,0,0,0-3.1,3.1l10.746,62A3.076,3.076,0,0,0,582.546,392.4Z" transform="translate(-568.7 -324.2)" fill="#f4eff0"/>
    <path id="XMLID_41_" d="M637.157,464.513l7.13-36.113H657a2.481,2.481,0,0,1,2.428,2.945l-6.3,31.877a1.887,1.887,0,0,0,1.86,2.273h7.75a2.48,2.48,0,0,1,2.48,2.48H640.1A2.9,2.9,0,0,1,637.157,464.513Z" transform="translate(-596.808 -374.566)" fill="#cecece"/>
    <path id="XMLID_34_" d="M654.46,468.075h13.174l7.646-38.748a.685.685,0,0,0-.723-.827H659.729l-7.336,37.146A2.107,2.107,0,0,0,654.46,468.075Z" transform="translate(-614.782 -374.614)" fill="#f4eff0"/>
    <path id="XMLID_38_" d="M663.48,501.813H661l.672-3.513H664.2Z" transform="translate(-608.148 -408.353)" fill="#f4eff0"/>
    <path id="XMLID_35_" d="M662.556,501.813h0a2.065,2.065,0,0,1-2.015-2.48l.207-1.033h2.79Z" transform="translate(-607.224 -408.353)" fill="#cecece"/>
    <path id="XMLID_69_" d="M657.288,385.2a5.071,5.071,0,0,0,5.063-5.063,4.939,4.939,0,0,0-.672-2.48A8.421,8.421,0,0,1,664,377.3a7.9,7.9,0,1,1-7.9,7.9v-.155A4.69,4.69,0,0,0,657.288,385.2Z" transform="translate(-613.322 -349.866)" fill="#cecece"/>
  </g>
  <path id="XMLID_66_" d="M437.768,543.1l42.571,11.211c11.573,3.048,23.3-5.167,28.932-18.754L443.3,522.073a10.851,10.851,0,0,0-13.226,7.75h0A10.81,10.81,0,0,0,437.768,543.1Z" transform="translate(-263.557 -354.982)" fill="#3b323a"/>
  <path id="XMLID_68_" d="M543.5,608.924l19.839,8.835,34.77-78.219a10.849,10.849,0,0,0-5.528-14.311h0a10.849,10.849,0,0,0-14.311,5.528Z" transform="translate(-412.114 -356.225)" fill="#3b323a"/>
  <path id="XMLID_2_" d="M582.133,519.266H360.908A4.939,4.939,0,0,1,356,514.358v-4.65a4.939,4.939,0,0,1,4.908-4.908H582.133a4.939,4.939,0,0,1,4.908,4.908v4.65A4.906,4.906,0,0,1,582.133,519.266Z" transform="translate(-303.251 -346.801)" fill="#f2f2f2"/>
  <path id="XMLID_73_" d="M624.572,724.176l43.966,8.008a3.165,3.165,0,0,0,3.668-2.377l.31-1.395a7.882,7.882,0,0,0-5.941-9.2l-32.032-8.111c-6.2-1.55-12.451,1.292-13.588,6.51l-.413,1.86C620.077,721.593,621.885,723.711,624.572,724.176Z" transform="translate(-525.532 -446.317)" fill="#535452"/>
  <path id="XMLID_95_" d="M623.7,728.278l49.133,8.938c.1,0,.207.052.31.052l-.155.62a3.123,3.123,0,0,1-3.668,2.377l-43.966-8.008c-2.687-.465-4.546-2.583-4.081-4.7l.052-.155A7.282,7.282,0,0,0,623.7,728.278Z" transform="translate(-526.365 -454.397)" fill="#fffdfd"/>
  <path id="XMLID_89_" d="M472.606,758.1l36.733-25.419a3.148,3.148,0,0,0,.878-4.288l-.775-1.24a7.838,7.838,0,0,0-10.694-2.273l-28.364,16.946c-5.528,3.307-7.9,9.765-5.011,14.208l1.033,1.6C467.543,759.445,470.385,759.652,472.606,758.1Z" transform="translate(-282.793 -452.602)" fill="#424441"/>
  <path id="XMLID_87_" d="M466.451,760.422l41.073-28.415c.1-.052.155-.155.258-.207l.31.517a3.2,3.2,0,0,1-.878,4.288l-36.733,25.419c-2.222,1.55-5.063,1.343-6.2-.465l-.1-.155A6.752,6.752,0,0,0,466.451,760.422Z" transform="translate(-280.668 -456.524)" fill="#cecece"/>
  <path id="XMLID_86_" d="M317.6,476.282h8.37a7.717,7.717,0,0,0,7.7-7.7V445.8H309.9v22.784A7.651,7.651,0,0,0,317.6,476.282Z" transform="translate(-26.058 -318.283)" fill="#ff6161"/>
  <path id="XMLID_112_" d="M305.771,451.8a9.971,9.971,0,1,1-9.971,9.971A9.977,9.977,0,0,1,305.771,451.8Zm0,17.772a7.8,7.8,0,1,0-7.8-7.8A7.828,7.828,0,0,0,305.771,469.573Z" transform="translate(-0.85 -321.183)" fill="#f4a36c"/>
  <path id="XMLID_97_" d="M317.6,476.282h8.37a7.717,7.717,0,0,0,7.7-7.7V445.8H309.9v22.784A7.651,7.651,0,0,0,317.6,476.282Z" transform="translate(-26.058 -318.283)" fill="#f7bc8b"/>
  <path id="XMLID_108_" d="M322.4,469.049a4.278,4.278,0,0,0,4.288-4.288V445.8h6.975v22.784a7.717,7.717,0,0,1-7.7,7.7H317.6a7.737,7.737,0,0,1-7.7-7.233Z" transform="translate(-26.058 -318.283)" fill="#efa573"/>
  <path id="XMLID_18_" d="M476.675,489.187a11.909,11.909,0,0,1-.775-4.288,12.4,12.4,0,1,1,24.8,0,11.908,11.908,0,0,1-.775,4.288Z" transform="translate(-278.853 -331.189)" fill="#fc9f6f"/>
  <path id="XMLID_44_" d="M393.3,391.1" transform="translate(-128.78 -291.843)" fill="#f05364"/>
  <circle id="XMLID_12_" cx="3.358" cy="3.358" r="3.358" transform="translate(294.95 116.667)" fill="#f2f2f2" opacity="0.77"/>
  <circle id="XMLID_43_" cx="5.011" cy="5.011" r="5.011" transform="translate(287.097 103.286)" fill="#f2f2f2" opacity="0.77"/>
  <circle id="XMLID_45_" cx="14.259" cy="14.259" r="14.259" transform="translate(326.878 52.449)" fill="#65706c"/>
</svg>
