<svg xmlns="http://www.w3.org/2000/svg" data-name="Layer 1" viewBox="0 0 24 24"><path fill="#e0e0e2" d="M17.5,22.56a1,1,0,0,1-1,.94H8.4a1,1,0,0,1-1-.94L6.67,9.5l-.22-4h12Z"/><path fill="#fff" d="M9.4,22.56,8.67,9.5l-.22-4h-2l.22,4L7.4,22.56a1,1,0,0,0,1,.94h2A1,1,0,0,1,9.4,22.56Z"/><polygon fill="#fdd331" points="17.6 20.69 7.4 20.69 6.67 9.5 18.23 9.5 17.6 20.69"/><polygon fill="#fff" points="6.67 9.5 7.4 20.69 9.4 20.69 8.67 9.5 6.67 9.5"/><path fill="#fdd331" d="M23.44,5.5a5,5,0,0,1-5,5v-5h-5A5,5,0,0,1,14.9,2h0A5,5,0,0,1,23.44,5.5Z"/><line x1="21.99" x2="18.45" y1="1.96" y2="5.5" fill="none"/><line x1="21.98" x2="14.91" y1="9.04" y2="1.96" fill="none"/><path d="M22.45,1.61h0A5.47,5.47,0,0,0,13.1,5H10.94L10,1.38A.5.5,0,0,0,9.71,1l-3-1A.5.5,0,1,0,6.4,1l2.74.91L9.91,5H6.55a.5.5,0,0,0-.5.53l.22,4h0L7,22.59A1.5,1.5,0,0,0,8.5,24h8.1a1.5,1.5,0,0,0,1.5-1.41h0L18.75,11a5.49,5.49,0,0,0,3.7-9.37ZM15.05,2.7,17.35,5H14.1A4.47,4.47,0,0,1,15.05,2.7ZM7.08,6h3.08l.75,3H7.25Zm10,16.53a.5.5,0,0,1-.5.47H8.5a.5.5,0,0,1-.5-.47L7.92,21h9.27ZM17.25,20H7.86L7.31,10H17.8Zm.61-11H11.94l-.75-3H18Zm.2-4.71L15.76,2A4.47,4.47,0,0,1,18.05,1ZM23,5H19.76l2.3-2.3A4.47,4.47,0,0,1,23,5Zm-4-4a4.47,4.47,0,0,1,2.3.95l-2.3,2.3ZM18.81,10l0-.46v0h0L19,6.64,21.35,9A4.5,4.5,0,0,1,18.81,10ZM22.06,8.3,19.76,6H23A4.47,4.47,0,0,1,22.06,8.3Z"/></svg>