<svg height="512pt" viewBox="-7 0 512 512" width="512pt" xmlns="http://www.w3.org/2000/svg"><path d="m41.410156 33.871094c-30.078125 16-41.4921872 53.351562-25.492187 83.433594l109.945312 206.6875c16 30.078124 53.351563 41.492187 83.429688 25.492187s41.492187-53.351563 25.492187-83.429687l-109.941406-206.691407c-16-30.078125-53.355469-41.492187-83.433594-25.492187zm0 0" fill="#eab875"/><path d="m234.789062 266.054688-109.945312-206.691407c-16-30.078125-53.355469-41.492187-83.433594-25.492187-1.625.863281-3.183594 1.800781-4.695312 2.785156 24.601562-9.957031 55.296875 3.664062 70.433594 32.117188l109.945312 206.691406c15.136719 28.457031 9.273438 61.523437-12.734375 76.355468 1.660156-.703124 3.308594-1.472656 4.933594-2.335937 30.082031-16 41.492187-53.351563 25.496093-83.429687zm0 0" fill="#c68d4e"/><path d="m119.847656 194.605469c-4.929687-9.265625-27.566406-6.863281-50.5625 5.367187-2.5 1.332032-4.894531 2.722656-7.179687 4.160156l17.570312 33.03125c2.46875-1.097656 4.960938-2.300781 7.460938-3.632812 22.996093-12.230469 37.640625-29.65625 32.710937-38.925781zm0 0" fill="#fff7af"/><path d="m154.820312 260.355469c-4.929687-9.269531-27.566406-6.867188-50.5625 5.367187-2.5 1.328125-4.890624 2.722656-7.179687 4.15625l17.570313 33.03125c2.46875-1.09375 4.960937-2.300781 7.460937-3.628906 22.996094-12.230469 37.640625-29.660156 32.710937-38.925781zm0 0" fill="#fff7af"/><path d="m34.3125 134.226562c-2.5 1.328126-4.890625 2.722657-7.179688 4.160157l17.570313 33.027343c2.46875-1.09375 4.960937-2.300781 7.460937-3.628906 22.992188-12.230468 37.640626-29.65625 32.710938-38.925781-4.929688-9.265625-27.566406-6.863281-50.5625 5.367187zm0 0" fill="#fff7af"/><path d="m246.789062 26.164062v41.734376c0 1.234374 1 2.234374 2.238282 2.234374h61.347656c1.234375 0 2.234375-1 2.234375-2.234374v-41.734376c0-10.308593-8.355469-18.664062-18.664063-18.664062h-28.492187c-10.308594 0-18.664063 8.355469-18.664063 18.664062zm0 0" fill="#ed5176"/><path d="m293.945312 7.5h-16.382812c8.425781 0 15.253906 8.355469 15.253906 18.664062v41.734376c0 1.234374-.816406 2.234374-1.828125 2.234374h19.386719c1.234375 0 2.234375-1 2.234375-2.234374v-41.734376c0-10.308593-8.355469-18.664062-18.664063-18.664062zm0 0" fill="#ba365f"/><path d="m307.183594 96.503906v-26.371094h-54.96875v26.371094c0 6.609375-3.335938 12.785156-8.890625 16.371094-9.542969 6.164062-23.878907 16.285156-27.882813 23.804688-17.992187 33.816406-8.945312 153.226562-8.945312 153.226562h146.402344s9.046874-119.410156-8.945313-153.226562c-4.003906-7.519532-18.335937-17.640626-27.882813-23.804688-5.550781-3.585938-8.886718-9.761719-8.886718-16.371094zm0 0" fill="#804c68"/><path d="m343.953125 136.679688c-4-7.519532-18.335937-17.640626-27.878906-23.804688-5.554688-3.585938-8.890625-9.761719-8.890625-16.371094v-26.371094h-18.800782v26.371094c0 6.609375 2.726563 12.785156 7.265626 16.371094 7.800781 6.164062 19.519531 16.285156 22.789062 23.804688 14.707031 33.816406 7.3125 153.226562 7.3125 153.226562h27.152344s9.042968-119.410156-8.949219-153.226562zm0 0" fill="#60364e"/><path d="m390.160156 180.589844h-91.65625l-27.53125 34.605468v162.367188h146.714844v-162.367188zm0 0" fill="#e9e9ea"/><path d="m390.160156 180.589844h-18.28125l23.308594 34.605468v162.367188h22.5v-162.367188zm0 0" fill="#c5c4cc"/><path d="m307.351562 141.789062h73.957032c4.886718 0 8.847656 3.960938 8.847656 8.847657v29.953125h-91.652344v-29.953125c0-4.886719 3.960938-8.847657 8.847656-8.847657zm0 0" fill="#c8e7f7"/><path d="m381.308594 141.789062h-17.570313c4.496094 0 8.144531 3.644532 8.144531 8.140626v30.660156h18.277344v-29.953125c0-4.886719-3.964844-8.847657-8.851562-8.847657zm0 0" fill="#8cbcd6"/><path d="m204.984375 210.730469c.015625-.015625.03125-.027344.050781-.042969 13.277344-10.695312 13.339844-10.746094 44.746094-36.046875 1.148438-.917969 2.222656-1.96875 3.191406-3.15625 7.378906-9.042969 6.027344-22.351563-3.015625-29.730469-9.039062-7.375-22.351562-6.027344-29.730469 3.015625-.96875 1.1875-1.78125 2.449219-2.453124 3.757813-18.480469 35.847656-18.515626 35.917968-26.328126 51.074218-.011718.019532-.019531.039063-.03125.058594 0 .003906-.003906.007813-.003906.011719-1.902344 3.675781-1.042968 8.308594 2.296875 11.03125 3.335938 2.722656 8.042969 2.636719 11.265625.035156.003906-.003906.007813-.007812.011719-.007812zm0 0" fill="#7fab38"/><path d="m175.851562 210.730469c-.019531-.015625-.035156-.027344-.050781-.042969-13.28125-10.695312-13.339843-10.746094-44.75-36.046875-1.148437-.917969-2.222656-1.96875-3.191406-3.15625-7.375-9.042969-6.027344-22.351563 3.015625-29.730469 9.042969-7.375 22.351562-6.027344 29.730469 3.015625.96875 1.1875 1.78125 2.449219 2.453125 3.757813 18.480468 35.847656 18.515625 35.917968 26.332031 51.074218.007813.019532.019531.039063.027344.058594.003906.003906.003906.007813.007812.011719 1.898438 3.675781 1.039063 8.308594-2.296875 11.03125-3.335937 2.722656-8.046875 2.636719-11.269531.035156-.003906-.003906-.007813-.007812-.007813-.007812zm0 0" fill="#7fab38"/><path d="m203.882812 204.261719c.007813-.03125.015626-.066407.023438-.097657 5.421875-25.660156 5.449219-25.777343 18.277344-86.46875.476562-2.210937.734375-4.507812.734375-6.863281 0-17.949219-14.554688-32.5-32.5-32.5-17.949219 0-32.5 14.550781-32.5 32.5 0 2.355469.253906 4.652344.730469 6.863281 12.828124 60.691407 12.855468 60.808594 18.277343 86.46875.007813.03125.015625.066407.023438.097657 0 .007812 0 .011719.003906.019531 1.3125 6.234375 6.839844 10.914062 13.464844 10.914062 6.621093 0 12.148437-4.679687 13.460937-10.914062.003906-.007812.003906-.011719.003906-.019531zm0 0" fill="#aed559"/><path d="m244.796875 257.582031c.816406-3.796875 1.257813-7.734375 1.257813-11.777343 0-30.726563-24.910157-55.640626-55.636719-55.640626-30.730469 0-55.640625 24.914063-55.640625 55.640626 0 4.042968.441406 7.980468 1.257812 11.777343 22.886719 107.078125 22.941406 107.335938 32.207032 150.707031 2.066406 10.355469 11.207031 18.164063 22.171874 18.164063 10.964844 0 20.105469-7.808594 22.171876-18.164063 9.273437-43.371093 9.328124-43.628906 32.210937-150.707031zm0 0" fill="#ffcd34"/><path d="m190.417969 190.167969c-2.25 0-4.464844.148437-6.648438.40625 21.707031 3.289062 38.539063 26.753906 38.539063 55.234375 0 4.039062-.347656 7.976562-.992188 11.773437-18 107.078125-18.042968 107.335938-25.332031 150.707031-1.28125 8.171876-6.035156 14.734376-12.214844 17.152344 2.105469.644532 4.332031 1.011719 6.648438 1.011719 10.964843 0 20.105469-7.804687 22.171875-18.164063 9.269531-43.371093 9.324218-43.628906 32.207031-150.707031.816406-3.796875 1.257813-7.734375 1.257813-11.773437 0-30.730469-24.910157-55.640625-55.636719-55.640625zm0 0" fill="#e69012"/><path d="m57.304688 303.183594 4.140624 35.417968 3.097657 26.457032 13.597656 116.238281c1.546875 13.226563 12.757813 23.203125 26.078125 23.203125h290.050781c13.320313 0 24.53125-9.976562 26.078125-23.203125l20.835938-178.113281zm0 0" fill="#aed559"/><path d="m438.539062 325.792969 2.644532-22.609375h-383.878906l2.644531 22.609375zm0 0" fill="#7fab38"/><path d="m416.183594 303.183594-20.835938 178.113281c-1.546875 13.226563-12.757812 23.203125-26.078125 23.203125h25c13.320313 0 24.53125-9.976562 26.078125-23.203125l20.835938-178.113281zm0 0" fill="#7fab38"/><path d="m30.109375 264.828125v24.480469c0 7.660156 6.210937 13.871094 13.871094 13.871094h410.527343c7.660157 0 13.871094-6.210938 13.871094-13.871094v-24.480469c0-7.660156-6.210937-13.871094-13.871094-13.871094h-410.527343c-7.660157 0-13.871094 6.210938-13.871094 13.871094zm0 0" fill="#90b6e1"/><path d="m454.507812 250.957031h-25.402343c7.660156 0 13.871093 6.210938 13.871093 13.871094v24.484375c0 7.660156-6.210937 13.871094-13.871093 13.871094h25.402343c7.660157 0 13.871094-6.210938 13.871094-13.871094v-24.484375c0-7.660156-6.210937-13.871094-13.871094-13.871094zm0 0" fill="#5692d8"/><path d="m478.832031 462.796875c-5.453125.769531-11.085937-1.703125-14.101562-6.722656l-99.535157-165.871094c-4.015624-6.6875-1.847656-15.367187 4.84375-19.386719 6.691407-4.015625 15.371094-1.84375 19.386719 4.847656l99.539063 165.867188c4.015625 6.691406 1.84375 15.371094-4.84375 19.390625-1.675782 1.003906-3.472656 1.617187-5.289063 1.875zm0 0" fill="#575b7a"/><path d="m19.65625 462.796875c5.453125.769531 11.089844-1.703125 14.101562-6.722656l99.535157-165.871094c4.015625-6.6875 1.847656-15.367187-4.84375-19.386719-6.691407-4.015625-15.371094-1.84375-19.386719 4.847656l-99.539062 165.867188c-4.015626 6.691406-1.847657 15.371094 4.84375 19.390625 1.675781 1.003906 3.472656 1.617187 5.289062 1.875zm0 0" fill="#575b7a"/><g fill="#7fab38"><path d="m164.28125 376.167969c0 6.921875-5.609375 12.53125-12.527344 12.53125-6.921875 0-12.53125-5.609375-12.53125-12.53125v-24.816407c0-6.917968 5.609375-12.53125 12.53125-12.53125 6.917969 0 12.527344 5.613282 12.527344 12.53125zm0 0"/><path d="m213.027344 457.242188c0 6.921874-5.609375 12.53125-12.527344 12.53125-6.921875 0-12.53125-5.609376-12.53125-12.53125v-24.8125c0-6.921876 5.609375-12.53125 12.53125-12.53125 6.917969 0 12.527344 5.609374 12.527344 12.53125zm0 0"/><path d="m261.773438 376.167969c0 6.921875-5.609376 12.53125-12.53125 12.53125-6.921876 0-12.53125-5.609375-12.53125-12.53125v-24.816407c0-6.917968 5.609374-12.53125 12.53125-12.53125 6.921874 0 12.53125 5.613282 12.53125 12.53125zm0 0"/><path d="m310.519531 457.242188c0 6.921874-5.609375 12.53125-12.53125 12.53125s-12.53125-5.609376-12.53125-12.53125v-24.8125c0-6.921876 5.609375-12.53125 12.53125-12.53125s12.53125 5.609374 12.53125 12.53125zm0 0"/><path d="m359.265625 376.167969c0 6.921875-5.609375 12.53125-12.53125 12.53125s-12.53125-5.609375-12.53125-12.53125v-24.816407c0-6.917968 5.609375-12.53125 12.53125-12.53125s12.53125 5.613282 12.53125 12.53125zm0 0"/></g><path d="m495.394531 437.675781-52.214843-87.015625 4.675781-39.980468h6.648437c11.785156 0 21.371094-9.585938 21.371094-21.371094v-24.480469c0-11.78125-9.585938-21.367187-21.371094-21.367187h-29.320312v-28.035157c0-.074219.003906-.152343.003906-.230469 0-1.761718-.609375-3.382812-1.628906-4.664062 0-.003906-.003906-.007812-.007813-.011719l-25.894531-32.542969v-27.335937c0-9.015625-7.332031-16.351563-16.347656-16.351563h-30.152344c-.191406-.386718-.386719-.761718-.582031-1.128906-3.714844-6.988281-13.953125-15.933594-30.4375-26.59375-3.414063-2.203125-5.453125-5.964844-5.453125-10.066406v-19.875c3.210937-1.59375 5.425781-4.90625 5.425781-8.730469v-41.730469c0-14.425781-11.734375-26.164062-26.164063-26.164062h-28.492187c-14.429687 0-26.164063 11.738281-26.164063 26.164062v41.730469c0 3.824219 2.210938 7.136719 5.425782 8.730469v19.875c0 4.101562-2.042969 7.863281-5.460938 10.070312-2.722656 1.757813-5.773437 3.800782-8.878906 6.007813.023438-.582031.039062-1.164063.039062-1.75 0-22.054687-17.945312-40-40-40-22.058593 0-40 17.945313-40 40 0 2.820313.304688 5.664063.902344 8.425781.898438 4.257813 1.738282 8.21875 2.519532 11.910156-9.125-3.230468-19.671876-1.773437-27.707032 4.777344-5.921875 4.835938-9.609375 11.6875-10.378906 19.296875-.773438 7.609375 1.464844 15.0625 6.273438 20.949219 1.261718 1.5625 2.722656 3.011719 4.324218 4.292969l22.328125 17.992187c-12.570312 11.09375-20.703125 27.101563-21.359375 44.988282h-35.796875l-1.5625-2.9375c.234375-.121094.46875-.246094.699219-.367188 23.980469-12.757812 43.984375-33.707031 35.8125-49.070312-8.171875-15.363282-36.722656-10.488282-60.703125 2.269531-.234375.121093-.46875.246093-.699219.375l-10.082031-18.953125c.234375-.121094.46875-.246094.703125-.367188 11.949219-6.355468 22.261719-14.300781 29.042969-22.375 11.171875-13.292968 9.035156-22.429687 6.765625-26.695312-2.269532-4.265625-8.652344-11.148438-25.921875-9.316406-10.480469 1.113281-22.835938 5.226562-34.78125 11.582031-.234375.125-.46875.25-.699219.375l-7.558594-14.203125c-4.214844-7.921875-6.351562-16.464844-6.351562-25.386719 0-20.113281 11.015625-38.464844 28.753906-47.898437 12.777344-6.796876 27.441406-8.210938 41.28125-3.984376 13.839844 4.230469 25.207031 13.597657 32.003906 26.375l12.917969 24.300782c1.945313 3.65625 6.484375 5.046875 10.144531 3.097656 3.65625-1.941406 5.046875-6.484375 3.101563-10.140625l-12.921875-24.300781c-17.914063-33.683594-59.890625-46.503906-93.574219-28.589844-22.640625 12.042969-36.707031 35.46875-36.707031 61.140625 0 11.246094 2.804687 22.460937 8.109375 32.429687l65.234375 122.640626h-30.542969c-11.785156 0-21.371094 9.585937-21.371094 21.367187v24.480469c0 11.785156 9.585938 21.371094 21.371094 21.371094h6.644531l4.679688 39.980468-52.214844 87.015625c-2.972656 4.953125-3.839844 10.769531-2.441406 16.375 1.402344 5.601563 4.902344 10.328125 9.855468 13.300781 2.503907 1.5 5.226563 2.46875 8.097657 2.875 1.023437.144532 2.039062.214844 3.050781.214844 7.523438 0 14.578125-3.921875 18.53125-10.503906l23.351562-38.914062 1.683594 14.449218c.449219 3.816406 3.6875 6.628906 7.441406 6.628906.289063 0 .585938-.015624.878907-.050781 4.113281-.480469 7.058593-4.207031 6.578125-8.320312l-3.941406-33.773438 53.574218-89.277343h238.980469l53.574219 89.277343-9.414063 80.46875c-1.101562 9.449219-9.105469 16.574219-18.621093 16.574219h-290.0625c-9.515626 0-17.519532-7.125-18.621094-16.582031l-1.980469-16.910157c-.480469-4.113281-4.207031-7.058593-8.320313-6.574218-4.113281.480468-7.058593 4.207031-6.574218 8.320312l1.976562 16.902344c1.980469 17.015625 16.394532 29.84375 33.523438 29.84375h290.058594c17.128906 0 31.542968-12.828125 33.519531-29.839844l7.152343-61.144531 23.355469 38.917969c6.203125 10.332031 19.503907 13.519531 29.679688 7.417968 10.25-6.152343 13.566406-19.425781 7.414062-29.675781zm-422.585937-231.078125c24.15625-12.851562 39.304687-10.550781 40.417968-8.46875 1.105469 2.082032-5.457031 15.933594-29.613281 28.78125-.230469.125-.464843.25-.699219.371094l-10.804687-20.3125c.234375-.125.464844-.25.699219-.371094zm-34.972656-65.75c10.144531-5.394531 20.832031-9.007812 29.324218-9.90625 7.457032-.789062 10.738282.777344 11.09375 1.441406.351563.664063-.179687 4.261719-5.003906 10.003907-5.496094 6.539062-14.460938 13.382812-24.609375 18.777343-.230469.125-.464844.246094-.699219.371094l-10.800781-20.3125c.230469-.125.460937-.25.695313-.375zm392.707031 188.753906-11.355469-18.921874h13.566406zm-152.070313-86.140624v-25.652344l23.648438-29.71875h84.417968l15.597657 19.605468h-33.980469c-4.144531 0-7.5 3.359376-7.5 7.5 0 4.140626 3.355469 7.5 7.5 7.5h42.027344v20.765626zm104.1875-92.824219v22.453125h-76.65625v-22.453125c0-.742188.605469-1.347657 1.347656-1.347657h38.6875c.066407 0 .128907.003907.195313.003907s.132813-.003907.199219-.003907h34.875c.746094 0 1.351562.605469 1.351562 1.347657zm-117.207031-135.636719h28.492187c6.15625 0 11.164063 5.007812 11.164063 11.164062v36.464844h-50.820313v-36.464844c0-6.15625 5.007813-11.164062 11.164063-11.164062zm-18.0625 104.171875c7.714844-4.976563 12.324219-13.453125 12.324219-22.671875v-18.867188h39.96875v18.867188c0 9.21875 4.609375 17.695312 12.316406 22.667969 10.371094 6.707031 16.558594 11.667969 20.238281 15.121093h-24.886719c-9.015624 0-16.347656 7.332032-16.347656 16.347657v27.335937l-25.898437 32.546875c-1.058594 1.328125-1.632813 2.972657-1.632813 4.667969v28.273438h-9.960937c-.660157-17.886719-8.789063-33.894532-21.355469-44.988282 2.519531-2.03125 5.476562-4.410156 9.050781-7.292968l13.261719-10.683594c1.582031-1.265625 3.035156-2.707032 4.3125-4.273438 4.839844-5.925781 7.078125-13.378906 6.304688-20.988281-.773438-7.609375-4.460938-14.460937-10.394532-19.296875-5.925781-4.832031-13.378906-7.066406-20.980468-6.292969-.441407.046875-.882813.101563-1.316407.164063 4.101563-3.269532 9.1875-6.882813 14.996094-10.636719zm-26.058594 38.828125c2.0625-2.921875 3.941407-12.421875 13.894531-13.433594 3.621094-.367187 7.167969.695313 9.988282 2.996094 2.824218 2.300781 4.582031 5.566406 4.949218 9.1875.472657 4.664062-1.449218 9.140625-5.085937 12.050781l-13.28125 10.699219c-5.390625 4.34375-9.367187 7.550781-12.574219 10.132812-1.359375-.699218-2.75-1.351562-4.164062-1.953124zm-30.917969-72.171875c13.785157 0 25 11.21875 25 25 0 1.789063-.1875 3.566406-.566406 5.320313l-2.914062 13.78125c-.015625.074218-.035156.148437-.046875.222656l-11.273438 53.339844c-3.320312-.539063-6.726562-.820313-10.199219-.820313-3.46875 0-6.875.28125-10.191406.820313l-.09375-.4375c-2.605468-12.34375-5.398437-25.578126-14.144531-66.9375-.378906-1.753907-.570313-3.53125-.570313-5.285157 0-13.785156 11.214844-25.003906 25-25.003906zm-56.738281 80.910156c-4.753906-5.820312-3.882812-14.425781 1.9375-19.175781 6.613281-5.390625 16.734375-3.496094 20.777344 4.40625l3.125 6.070312c2.816406 13.332032 4.410156 20.875 5.933594 28.109376l.324219 1.527343c-1.414063.601563-2.800782 1.253907-4.164063 1.953125-27.3125-22.125-26.390625-20.980468-27.933594-22.890625zm56.738281 30.933594c25.757813 0 46.851563 20.332031 48.082032 45.789063h-96.164063c1.230469-25.457032 22.324219-45.789063 48.082031-45.789063zm-124.683593 113.007813h13.570312l-11.355469 18.921874zm-38.40625 141.535156c-1.375 2.292968-3.972657 3.53125-6.617188 3.15625h-.003906c-.871094-.125-1.707031-.421875-2.476563-.882813-1.519531-.910156-2.589843-2.359375-3.019531-4.078125-.429687-1.71875-.164062-3.5.746094-5.019531l53.496094-89.148437c.007812-.003907.011719-.011719.015625-.019532l29.375-48.949218c.101562-.160157.203125-.324219.292968-.492188l16.359376-27.261719c.910156-1.519531 2.359374-2.589843 4.078124-3.019531.535157-.136719 1.078126-.203125 1.617188-.203125 1.1875 0 2.355469.324219 3.402344.949219 3.132812 1.882812 4.15625 5.960937 2.273437 9.097656l-7.667969 12.777344c-.085937.132812-.164062.265625-.242187.402344zm111.429687-156.535156.972656-1.617188c2.972657-4.953125 3.835938-10.769531 2.4375-16.375-1.402343-5.601562-4.902343-10.328125-9.855468-13.300781-4.953125-2.972657-10.769532-3.839844-16.375-2.4375-5.605469 1.402343-10.328125 4.902343-13.300782 9.855469l-14.332031 23.875h-44.316406c-3.511719 0-6.371094-2.855469-6.371094-6.371094v-24.480469c0-3.511719 2.859375-6.367187 6.371094-6.367187h410.519531c3.511719 0 6.371094 2.855468 6.371094 6.367187v24.480469c0 3.515625-2.859375 6.371094-6.371094 6.371094h-44.316406l-14.328125-23.875c-2.972656-4.957032-7.699219-8.457032-13.304687-9.855469-5.605469-1.402344-11.417969-.535157-16.375 2.4375-4.953126 2.972656-8.453126 7.699219-9.851563 13.300781-1.402344 5.605469-.535156 11.421875 2.4375 16.375l.96875 1.617188zm339.027344 159.691406c-.144531-.023438-4.382812.570312-6.617188-3.15625-5.613281-9.351563-94.253906-157.058594-99.539062-165.867188-1.882812-3.136718-.863281-7.21875 2.273438-9.097656 3.140624-1.886719 7.210937-.871094 9.097656 2.273438 5.535156 9.226562 40.640625 67.722656 46.007812 76.667968.011719.019532.023438.039063.035156.058594l53.492188 89.144531c2.46875 4.105469-.117188 9.320313-4.75 9.976563zm0 0"/><path d="m171.78125 376.167969v-24.816407c0-11.042968-8.984375-20.03125-20.027344-20.03125-11.046875 0-20.03125 8.988282-20.03125 20.03125v24.816407c0 11.042969 8.984375 20.03125 20.03125 20.03125 11.042969 0 20.027344-8.988281 20.027344-20.03125zm-25.058594 0v-24.816407c0-2.773437 2.257813-5.03125 5.03125-5.03125 2.773438 0 5.03125 2.257813 5.03125 5.03125v24.816407c0 2.773437-2.257812 5.03125-5.03125 5.03125-2.773437 0-5.03125-2.257813-5.03125-5.03125zm0 0"/><path d="m220.527344 457.242188v-24.8125c0-11.046876-8.984375-20.03125-20.027344-20.03125-11.046875 0-20.03125 8.984374-20.03125 20.03125v24.8125c0 11.046874 8.984375 20.03125 20.03125 20.03125 11.042969 0 20.027344-8.984376 20.027344-20.03125zm-25.058594 0v-24.8125c0-2.773438 2.253906-5.03125 5.03125-5.03125 2.773438 0 5.027344 2.257812 5.027344 5.03125v24.8125c0 2.773437-2.253906 5.03125-5.027344 5.03125-2.777344 0-5.03125-2.257813-5.03125-5.03125zm0 0"/><path d="m269.273438 376.167969v-24.816407c0-11.042968-8.984376-20.03125-20.027344-20.03125-11.046875 0-20.03125 8.988282-20.03125 20.03125v24.816407c0 11.042969 8.984375 20.03125 20.03125 20.03125 11.042968 0 20.027344-8.988281 20.027344-20.03125zm-25.058594 0v-24.816407c0-2.773437 2.253906-5.03125 5.03125-5.03125 2.773437 0 5.027344 2.257813 5.027344 5.03125v24.816407c0 2.773437-2.253907 5.03125-5.027344 5.03125-2.777344 0-5.03125-2.257813-5.03125-5.03125zm0 0"/><path d="m318.019531 457.242188v-24.8125c0-11.046876-8.984375-20.03125-20.03125-20.03125-11.042969 0-20.03125 8.984374-20.03125 20.03125v24.8125c0 11.046874 8.988281 20.03125 20.03125 20.03125 11.046875 0 20.03125-8.984376 20.03125-20.03125zm-25.058593 0v-24.8125c0-2.773438 2.253906-5.03125 5.027343-5.03125 2.777344 0 5.03125 2.257812 5.03125 5.03125v24.8125c0 2.773437-2.253906 5.03125-5.03125 5.03125-2.773437 0-5.027343-2.257813-5.027343-5.03125zm0 0"/><path d="m366.765625 376.167969v-24.816407c0-11.042968-8.984375-20.03125-20.03125-20.03125-11.042969 0-20.03125 8.988282-20.03125 20.03125v24.816407c0 11.042969 8.988281 20.03125 20.03125 20.03125 11.046875 0 20.03125-8.988281 20.03125-20.03125zm-25.0625 0v-24.816407c0-2.773437 2.257813-5.03125 5.03125-5.03125s5.03125 2.257813 5.03125 5.03125v24.816407c0 2.773437-2.257813 5.03125-5.03125 5.03125s-5.03125-2.257813-5.03125-5.03125zm0 0"/></svg>