<?xml version="1.0" encoding="UTF-8"?>
<svg xmlns="http://www.w3.org/2000/svg" xmlns:xlink="http://www.w3.org/1999/xlink" width="64px" height="64px" viewBox="0 0 64 64" version="1.1">
    
    <title>Mango</title>
    <desc>Created with Sketch.</desc>
    <defs/>
    <g id="SVG" stroke="none" stroke-width="1" fill="none" fill-rule="evenodd">
        <g id="Color" transform="translate(-369.000000, -449.000000)">
            <g id="Mango" transform="translate(369.000000, 449.000000)">
                <path d="M48.5482648,33.0780887 C48.5482648,22.5591286 40.0232613,14.0314768 29.5075679,14.0314768 C24.6741603,14.0314768 20.2770035,15.84634 16.9192892,18.8143977 L16.9177143,18.8143977 C16.3822439,19.2885937 15.875122,19.7927224 15.3947735,20.3236329 C6.22878049,28.8008719 9.57547038,41.4639544 5.07121951,45.9459735 C-0.407902439,51.3984403 0.223637631,59.9150643 9.37388153,61.4242996 C29.7831777,64.7925094 41.9446551,47.5182248 41.9446551,47.5182248 C45.0582578,44.126384 48.5482648,38.0437563 48.5482648,33.0780887" id="Fill-1" fill="#FAD841"/>
                <path d="M46.9640599,25.4816571 C46.9640599,25.5446732 46.9735094,25.6045385 46.9735094,25.6675546 C46.9735094,31.4587329 42.9023596,38.5527687 39.2721854,42.5070281 C39.2721854,42.5070281 26.1594606,61.1125275 4.00201115,59.0660801 C5.26824111,60.1956434 7.04001812,61.040059 9.37403902,61.4244571 C29.7833352,64.7910915 41.9448125,47.5183823 41.9448125,47.5183823 C45.0568404,44.1265415 48.5484223,38.0439138 48.5484223,33.0782463 C48.5484223,30.3764316 47.9783038,27.8101015 46.9640599,25.4816571" id="Fill-3" fill="#FAAC28"/>
                <path d="M29.5075679,15.6065638 C25.2631777,15.6065638 21.1636794,17.1646366 17.9618815,19.9940588 C17.4799582,20.4209928 17.0090592,20.8857364 16.5633589,21.3804127 C11.4574913,26.1097699 10.4778955,32.1104767 9.61169338,37.4022525 C8.95810453,41.4053494 8.3927108,44.8633571 6.1815331,47.0626185 C3.68214634,49.5517539 2.60333101,52.8396182 3.4333101,55.4358809 C4.17666899,57.7595991 6.3768223,59.3334258 9.63059233,59.870638 C28.8508293,63.0450733 40.5414077,46.7758953 40.6579512,46.6104781 C40.6957491,46.555339 40.7382718,46.5017753 40.7855192,46.4513625 C43.8597491,43.1020575 46.9733519,37.4321852 46.9733519,33.0777736 C46.9733519,23.4441895 39.1381603,15.6065638 29.5075679,15.6065638 M14.6939373,63.4420746 C12.909561,63.4420746 11.0511638,63.2971376 9.11874564,62.977331 C4.63969338,62.2400428 1.55443902,59.902146 0.434675958,56.3984516 C-0.77328223,52.6269389 0.579567944,48.1953327 3.96090592,44.8286983 C5.44762369,43.3478202 5.9374216,40.357707 6.50281533,36.8933976 C7.40366551,31.3873671 8.52342857,24.5327924 14.3254077,19.1669727 C14.7506341,18.686475 15.3065784,18.1366597 15.875122,17.6341064 C19.653338,14.2942538 24.4946202,12.4557595 29.5075679,12.4557595 C40.8752892,12.4557595 50.1231777,21.7065209 50.1231777,33.0777736 C50.1231777,38.4435934 46.5323763,44.8176704 43.1699373,48.5119885 C42.1840418,49.8762867 31.9439582,63.4404992 14.6939373,63.4420746" id="Fill-5" fill="#454849"/>
                <path d="M38.1141519,17.303587 C37.677901,17.303587 37.2432251,17.1239912 36.9329672,16.7695257 C36.3565491,16.1173092 36.4195456,15.1216551 37.0715596,14.5466333 C42.1065561,10.1024238 42.8688139,1.53223613 42.8751136,1.44716441 C42.9459847,0.579117829 43.7224167,-0.0620708446 44.5728697,0.00567144773 C45.4390718,0.0749891422 46.0847861,0.834332977 46.0154899,1.70080416 C45.9824167,2.10253171 45.1555875,11.6148099 39.1551693,16.9097365 C38.8559359,17.174404 38.4842564,17.303587 38.1141519,17.303587" id="Fill-7" fill="#454849"/>
                <path d="M62.0666871,13.7471167 C47.316053,-0.314922889 41.2053909,14.24967 41.2053909,14.24967 C41.2053909,14.24967 48.0090146,28.5023332 62.0666871,13.7471167" id="Fill-9" fill="#3BB777"/>
                <path d="M62.0666871,13.7472742 L41.2053909,14.2498275 C41.2053909,14.2498275 48.0090146,28.5024907 62.0666871,13.7472742" id="Fill-11" fill="#229857"/>
                <path d="M42.98583,14.2035107 C43.7748613,15.4764356 45.8490216,18.2696236 49.1153909,18.7784785 C52.2715164,19.2810318 55.857593,17.5985023 59.7933003,13.8017831 C55.6701784,10.189386 51.9927568,8.68960316 48.8681296,9.34812126 C45.6190843,10.0271196 43.7055652,12.8943515 42.98583,14.2035107 M50.2083805,22.0143545 C49.6681854,22.0143545 49.1311401,21.9733941 48.5988195,21.8883224 C42.7212446,20.9509581 39.9005756,15.1739584 39.7840321,14.9281957 C39.5903178,14.5233173 39.5792934,14.0538475 39.7525338,13.6410921 C39.858053,13.3890278 42.3968125,7.48126972 48.2239902,6.26348386 C52.7266662,5.31824257 57.7506383,7.45606328 63.1541645,12.6060529 C63.4565477,12.8943515 63.6313631,13.2913528 63.6408125,13.7088344 C63.6518369,14.126316 63.4943456,14.5311943 63.2077115,14.8320961 C58.660938,19.6055646 54.2968544,22.0143545 50.2083805,22.0143545" id="Fill-13" fill="#454849"/>
                <path d="M13.6915052,35.9514647 C13.6348084,35.9514647 13.5765366,35.9467385 13.5182648,35.9388615 C12.8725505,35.8443374 12.4268502,35.2441091 12.5213449,34.5981943 C12.5685923,34.2768122 13.7277282,26.6786477 18.143784,23.2111875 C18.6572056,22.80946 19.3989895,22.8992579 19.8021672,23.4112636 C20.2053449,23.9232693 20.1155749,24.6668591 19.6021533,25.0701621 C15.9215819,27.9626004 14.8695401,34.8707388 14.8585157,34.9416319 C14.7734704,35.5276815 14.2679233,35.9514647 13.6915052,35.9514647" id="Fill-15" fill="#FEFEFE"/>
                <path d="M23.5191192,20.4247738 C24.1695582,20.9761645 24.2514537,21.9513384 23.6986592,22.6019795 C23.1474397,23.254196 22.1725686,23.3345415 21.5221296,22.7831508 C20.8716906,22.23176 20.7897951,21.2565861 21.3425895,20.6043696 C21.8938091,19.9537285 22.8686801,19.873383 23.5191192,20.4247738" id="Fill-17" fill="#FEFEFE"/>
            </g>
        </g>
    </g>

	
	
	<metadata>
		<rdf:RDF xmlns:rdf="http://www.w3.org/1999/02/22-rdf-syntax-ns#" xmlns:rdfs="http://www.w3.org/2000/01/rdf-schema#" xmlns:dc="http://purl.org/dc/elements/1.1/">
			<rdf:Description about="https://iconscout.com/legal#licenses" dc:title="Mango, Fruit, Vitamin, Healthy, Summer, Food" dc:description="Mango, Fruit, Vitamin, Healthy, Summer, Food" dc:publisher="Iconscout" dc:date="2016-12-14" dc:format="image/svg+xml" dc:language="en">
				<dc:creator>
					<rdf:Bag>
						<rdf:li>AomAm .</rdf:li>
					</rdf:Bag>
				</dc:creator>
			</rdf:Description>
		</rdf:RDF>
    </metadata></svg>
