<svg id="SvgjsSvg1001" width="288" height="288" xmlns="http://www.w3.org/2000/svg" version="1.1" xmlns:xlink="http://www.w3.org/1999/xlink" xmlns:svgjs="http://svgjs.com/svgjs"><defs id="SvgjsDefs1002"></defs><g id="SvgjsG1008" transform="matrix(0.9167,0,0,0.9167,11.995574961853038,11.995200000000011)"><svg xmlns="http://www.w3.org/2000/svg" width="288" height="288" enable-background="new 0 0 32 32" viewBox="0 0 32 32"><path fill="#cabcbc" d="M22.531,26v-7.002l-0.61,0.602c-0.547,0.539-1.278,0.813-2.012,0.813c-0.644,0-1.288-0.211-1.81-0.639
		l-1.493-1.228c-0.341-0.277-0.959-0.275-1.294,0.01l-1.415,1.192c-0.702,0.591-1.637,0.779-2.491,0.584l0.017,4.629
		C11.24,27.034,12.14,27.753,12.846,28h7.686C21.634,28,22.531,27.103,22.531,26z" class="colorED8178 svgShape"></path><path fill="#fafafc" d="M16,18.346c-0.254-0.007-0.51,0.059-0.688,0.21l-1.415,1.192
		c-0.702,0.591-1.637,0.779-2.491,0.584l0.017,4.629C11.24,27.034,12.14,27.753,12.846,28H16V18.346z" opacity=".3" class="colorFAFAFC svgShape"></path><path fill="#3c3c3c" d="M24.514,11.605c-0.006-0.067-0.02-0.131-0.04-0.196c-0.02-0.066-0.043-0.127-0.075-0.187
		c-0.015-0.027-0.017-0.057-0.033-0.082l-2.316-3.5C22.912,7.134,23.5,6.14,23.5,5c0-1.654-1.237-3-2.759-3h-9.428
		C9.792,2,8.555,3.346,8.555,5c0,1.067,0.515,2.006,1.303,2.538l-2.239,3.629c-0.014,0.021-0.014,0.047-0.025,0.069
		c-0.032,0.061-0.052,0.124-0.07,0.191c-0.019,0.064-0.034,0.126-0.039,0.191c-0.002,0.026-0.015,0.049-0.015,0.075l0.028,14.308
		C7.501,28.206,9.298,30,11.503,30h9.028c2.206,0,4-1.794,4-4V11.692C24.531,11.661,24.517,11.636,24.514,11.605z M11.313,4h9.428
		C21.152,4,21.5,4.458,21.5,5c0,0.46-0.255,0.841-0.581,0.951C20.836,5.93,20.756,5.9,20.666,5.9H11
		c-0.259-0.161-0.445-0.506-0.445-0.9C10.555,4.458,10.902,4,11.313,4z M22.531,26c0,1.103-0.897,2-2,2h-9.028
		c-1.104,0-2.004-0.898-2.006-2.002l-0.014-6.949l0.592,0.571c1.038,1.001,2.718,1.057,3.822,0.128l1.415-1.192
		c0.335-0.285,0.953-0.287,1.294-0.01l1.493,1.228c0.521,0.428,1.166,0.639,1.81,0.639c0.733,0,1.465-0.273,2.012-0.813l0.61-0.602
		V26z M22.531,16.189l-2.015,1.985c-0.293,0.288-0.828,0.313-1.148,0.053l-1.494-1.229c-1.086-0.89-2.778-0.878-3.851,0.027
		l-1.414,1.192c-0.315,0.264-0.852,0.246-1.146-0.039l-1.985-1.916L9.47,11.975L11.983,7.9h7.839l2.709,4.093V16.189z" class="color5C3837 svgShape"></path></svg></g></svg>