<svg height="480pt" viewBox="-48 0 480 480.00003" width="480pt" xmlns="http://www.w3.org/2000/svg"><path d="m375.269531 288c0 101.621094-82.378906 184-184 184-101.621093 0-184-82.378906-184-184s82.378907-184 184-184c101.621094 0 184 82.378906 184 184zm0 0" fill="#f98500"/><path d="m320.757812 157.304688c-32 183.0625-152.640624 254.222656-234.617187 281.671874 78.347656 54.378907 185.261719 39.882813 246.296875-33.394531 61.039062-73.28125 55.96875-181.054687-11.679688-248.277343zm0 0" fill="#f27900"/><g fill="#e66000"><path d="m287.269531 200h16v16h-16zm0 0"/><path d="m319.269531 248h16v16h-16zm0 0"/><path d="m239.269531 360h16v16h-16zm0 0"/><path d="m287.269531 368h16v16h-16zm0 0"/><path d="m215.269531 408h16v16h-16zm0 0"/></g><path d="m88.871094 187.527344-11.386719-11.246094c4.078125-4.121094 8.367187-8.019531 12.855469-11.679688l10.105468 12.40625c-4.042968 3.296876-7.90625 6.808594-11.574218 10.519532zm0 0" fill="#ff9419"/><path d="m48.125 272.871094-15.902344-1.742188c3.328125-30.269531 15.265625-58.945312 34.398438-82.632812l12.464844 10.023437c-17.214844 21.316407-27.960938 47.117188-30.960938 74.351563zm0 0" fill="#ff9419"/><path d="m215.675781 46.65625c-10.253906-6.828125-16.414062-18.335938-16.40625-30.65625h-16c-.019531 17.679688 8.8125 34.199219 23.527344 44l4 2.6875 8.878906-13.3125zm0 0" fill="#5f943a"/><path d="m183.269531 0h16v144h-16zm0 0" fill="#5f943a"/><path d="m207.265625 50.964844c69.066406-15.0625 137.269531 28.714844 152.335937 97.785156-69.070312 15.0625-137.273437-28.714844-152.335937-97.785156zm0 0" fill="#5f943a"/><path d="m336.789062 99.199219c-33.542968 11.199219-76.191406 6.082031-108.105468-.4375 29.828125 41.199219 81.222656 60.832031 130.921875 50.007812-3.929688-17.980469-11.714844-34.890625-22.816407-49.570312zm0 0" fill="#568741"/><path d="m191.269531 151.289062c-10.125-.003906-20.023437-3.007812-28.441406-8.632812l8.882813-13.3125c11.835937 7.914062 27.277343 7.914062 39.117187 0l8.882813 13.3125c-8.417969 5.625-18.316407 8.628906-28.441407 8.632812zm0 0" fill="#e66000"/><path d="m191.269531 480c75.828125.039062 144.570313-44.578125 175.410157-113.851562 30.839843-69.273438 17.996093-150.210938-32.777344-206.53125 9.214844-.082032 18.398437-1.109376 27.40625-3.058594 4.3125-.941406 7.046875-5.195313 6.113281-9.511719-15.523437-71.480469-84.902344-117.796875-156.871094-104.726563-7.179687-6.878906-11.25-16.378906-11.28125-26.320312v-16h-16v96.199219c-104.085937 4.738281-185.398437 91.628906-183.2265622 195.804687 2.1718752 104.171875 87.0312502 187.597656 191.2265622 187.996094zm108.097657-404.960938c24.4375 15.578126 42.359374 39.539063 50.398437 67.386719-59.242187 8.585938-115.777344-27.703125-132.640625-85.136719 28.660156-4.269531 57.894531 2.039063 82.242188 17.75zm-99.515626-20.863281c3.578126 15.605469 9.898438 30.449219 18.664063 43.839844-6.382813-.90625-12.804687-1.496094-19.246094-1.757813v-42.59375c.183594.175782.390625.335938.582031.511719zm-16.582031 58.023438v22.074219c-4.117187-.9375-8.035156-2.605469-11.558593-4.929688l-8.882813 13.3125c17.21875 11.5 39.664063 11.5 56.882813 0l-8.882813-13.3125c-3.527344 2.324219-7.441406 3.992188-11.558594 4.929688v-22.015626c11.675781.519532 23.269531 2.210938 34.609375 5.054688 20.195313 21.222656 46.679688 35.394531 75.542969 40.421875 62.132813 56.460937 75.695313 148.964844 32.386719 220.886719s-131.410156 103.203125-210.375 74.699218c-78.96875-28.503906-126.777344-108.847656-114.164063-191.847656s82.128907-145.511718 166-149.273437zm0 0"/><path d="m100.4375 177.007812-10.105469-12.40625c-4.488281 3.660157-8.777343 7.558594-12.855469 11.679688l11.394532 11.246094c3.664062-3.710938 7.527344-7.222656 11.566406-10.519532zm0 0"/><path d="m66.589844 188.496094c-19.132813 23.6875-31.070313 52.363281-34.402344 82.632812l15.90625 1.742188c2.988281-27.230469 13.722656-53.03125 30.925781-74.351563zm0 0"/><path d="m287.269531 200h16v16h-16zm0 0"/><path d="m319.269531 248h16v16h-16zm0 0"/><path d="m239.269531 360h16v16h-16zm0 0"/><path d="m287.269531 368h16v16h-16zm0 0"/><path d="m215.269531 408h16v16h-16zm0 0"/></svg>