<?xml version="1.0" encoding="UTF-8"?>
<svg xmlns="http://www.w3.org/2000/svg" xmlns:xlink="http://www.w3.org/1999/xlink" width="64px" height="64px" viewBox="0 0 64 64" version="1.1">
    
    <title>Pear</title>
    <desc>Created with Sketch.</desc>
    <defs/>
    <g id="SVG" stroke="none" stroke-width="1" fill="none" fill-rule="evenodd">
        <g id="Color" transform="translate(-809.000000, -449.000000)">
            <g id="Pear" transform="translate(822.000000, 449.000000)">
                <path d="M30.4170765,34.6139476 L30.4295699,34.6055836 C30.4295699,34.6055836 26.7120953,29.2860504 26.5108131,24.1351921 C26.3081427,18.9829399 22.5032145,15.9314571 18.1416368,15.9314571 C13.7800591,15.9314571 9.97513087,18.9829399 9.77384864,24.1351921 C9.57117826,29.2860504 5.85509185,34.6055836 5.85509185,34.6055836 L5.86897338,34.6125536 C3.09683122,37.9776881 1.38801449,42.2614736 1.38801449,46.4156164 C1.38801449,55.1518623 8.88959498,62.2348151 18.1416368,62.2348151 C27.3950668,62.2348151 34.8952591,55.1518623 34.8952591,46.4156164 C34.8952591,42.2628676 33.1878305,37.9790821 30.4170765,34.6139476" id="Fill-1" fill="#FAD841"/>
                <path d="M31.6104719,36.2375483 C31.9602866,37.6887103 32.1657332,39.1593884 32.1657332,40.6175204 C32.1657332,50.5386728 23.6466364,58.5820969 13.139704,58.5820969 C10.595219,58.5820969 8.17150328,58.1011643 5.95323429,57.2466376 C9.00994787,60.3106664 13.3326573,62.2343969 18.1426085,62.2343969 C27.3946503,62.2343969 34.8962308,55.1514441 34.8962308,46.4151982 C34.8962308,42.9022989 33.6649388,39.3029712 31.6104719,36.2375483" id="Fill-3" fill="#FAAC28"/>
                <path d="M7.11428571,35.223826 C7.0670885,35.3228005 7.00878606,35.416199 6.93799024,35.5012335 C4.29355819,38.7102391 2.77630662,42.6873429 2.77630662,46.4149194 C2.77630662,54.369127 9.66987596,60.8401105 18.1417756,60.8401105 C26.6150634,60.8401105 33.5072446,54.369127 33.5072446,46.4149194 C33.5072446,42.6901309 31.9913812,38.7130271 29.3483373,35.5026275 C29.2761533,35.416199 29.2164627,35.3228005 29.1692655,35.223826 C28.4862941,34.1992304 25.3199164,29.1989249 25.1241868,24.1888614 C24.9381742,19.4729336 21.3747847,17.3247678 18.1417756,17.3247678 C14.9101547,17.3247678 11.345377,19.4729336 11.1607526,24.1888614 C10.9636348,29.1989249 7.79725714,34.2006244 7.11428571,35.223826 M18.1417756,63.6281258 C8.13874286,63.6281258 0,55.9067174 0,46.4149194 C0,42.1157998 1.6977115,37.5629708 4.66280697,33.8911547 C4.67946481,33.8618805 4.6975108,33.8340004 4.71694495,33.8061202 C4.75164878,33.7559359 8.20398606,28.7472664 8.3872223,24.0801288 C8.60377422,18.5501005 12.7057672,14.5367525 18.1417756,14.5367525 C23.577784,14.5367525 27.6811652,18.5501005 27.8977171,24.0801288 C28.0809533,28.7667826 31.5305143,33.7545419 31.5652181,33.8047262 C31.5846523,33.8326063 31.6026983,33.8590925 31.6193561,33.8883666 C34.5858397,37.5629708 36.2835512,42.1157998 36.2835512,46.4149194 C36.2835512,55.9067174 28.1448084,63.6281258 18.1417756,63.6281258" id="Fill-5" fill="#454849"/>
                <path d="M9.01619456,38.3997936 C8.84545171,38.3997936 8.67193254,38.3579734 8.51368307,38.2687569 C8.00978341,37.9899553 7.82793533,37.3542879 8.10556599,36.8482631 C8.56643289,36.0104645 9.08699038,35.199152 9.65474509,34.4324478 C9.66862662,34.4045677 9.68389631,34.3766875 9.7019423,34.3502014 C9.7227646,34.3153512 11.8980008,30.8540302 12.7003534,26.991235 C12.8183465,26.4266619 13.3638907,26.0614319 13.9330336,26.1813166 C14.4952357,26.2998072 14.8561555,26.8546223 14.7395507,27.4191954 C13.9469151,31.2276243 12.0146057,34.5593025 11.5537388,35.3176427 C11.5204231,35.3998891 11.4773904,35.4765596 11.4232524,35.547654 C10.8735437,36.279508 10.3710322,37.0559702 9.92821129,37.8603126 C9.73803429,38.2046325 9.38266704,38.3997936 9.01619456,38.3997936" id="Fill-7" fill="#FEFEFE"/>
                <path d="M15.4910969,22.5337562 C16.0227596,23.0676611 16.0227596,23.9333398 15.4910969,24.4672448 C14.9594341,25.0011497 14.0973909,25.0011497 13.5657282,24.4672448 C13.0340655,23.9333398 13.0340655,23.0676611 13.5657282,22.5337562 C14.0973909,21.9998512 14.9594341,21.9998512 15.4910969,22.5337562" id="Fill-9" fill="#FEFEFE"/>
                <path d="M18.1409427,16.4075108 C17.4968396,16.4075108 16.9179797,15.9544583 16.7819406,15.2950927 C16.7111448,14.9451967 15.0661831,6.65921528 18.840572,0.676134462 C19.2514654,0.0251328912 20.1093441,-0.170028179 20.7562236,0.243992092 C21.403103,0.656618355 21.5960563,1.51672107 21.1851629,2.16772264 C18.0049037,7.2098483 19.4860633,14.6566372 19.501333,14.7319136 C19.6568061,15.4860717 19.1737288,16.2235017 18.4227378,16.3782366 C18.3283434,16.3977527 18.233949,16.4075108 18.1409427,16.4075108" id="Fill-11" fill="#454849"/>
                <path d="M36.7724588,8.01948794 C21.4639041,-1.4137618 18.8847153,12.3213955 18.8847153,12.3213955 C18.8847153,12.3213955 27.3788254,23.3926043 36.7724588,8.01948794" id="Fill-14" fill="#3BB777"/>
                <path d="M36.7724588,8.01948794 L18.8847153,12.3213955 C18.8847153,12.3213955 27.3788254,23.3926043 36.7724588,8.01948794" id="Fill-16" fill="#229857"/>
                <path d="M20.4115451,11.9504501 C21.32495,12.9053453 23.5945806,14.9378085 26.540242,14.7733156 C29.3484761,14.6157927 32.1317235,12.5024771 34.8233528,8.48773511 C30.6033667,6.12768017 27.1649109,5.51710482 24.5843339,6.65879708 C21.9107507,7.84927961 20.7905109,10.6846912 20.4115451,11.9504501 M26.1973681,17.5710889 C21.2208385,17.5710889 17.9267507,13.3570038 17.785159,13.1716008 C17.5436203,12.8565551 17.4478378,12.4522929 17.5200217,12.0619707 C17.5658308,11.8249894 18.6638601,6.2433828 23.4599298,4.1105511 C27.1676872,2.46144006 31.891573,3.37730308 37.4983242,6.83026002 C38.1521444,7.23312823 38.3562029,8.09044293 37.9564148,8.74841454 C34.5151827,14.3788114 30.7171953,17.3424717 26.6679521,17.5585429 C26.5097026,17.5669069 26.3514531,17.5710889 26.1973681,17.5710889" id="Fill-18" fill="#454849"/>
            </g>
        </g>
    </g>

	
	
	<metadata>
		<rdf:RDF xmlns:rdf="http://www.w3.org/1999/02/22-rdf-syntax-ns#" xmlns:rdfs="http://www.w3.org/2000/01/rdf-schema#" xmlns:dc="http://purl.org/dc/elements/1.1/">
			<rdf:Description about="https://iconscout.com/legal#licenses" dc:title="Pear, Fruit, Vitamin, Healthy" dc:description="Pear, Fruit, Vitamin, Healthy" dc:publisher="Iconscout" dc:date="2016-12-14" dc:format="image/svg+xml" dc:language="en">
				<dc:creator>
					<rdf:Bag>
						<rdf:li>AomAm .</rdf:li>
					</rdf:Bag>
				</dc:creator>
			</rdf:Description>
		</rdf:RDF>
    </metadata></svg>
