<svg id="Capa_1" enable-background="new 0 0 512.243 512.243" height="512" viewBox="0 0 512.243 512.243" width="512" xmlns="http://www.w3.org/2000/svg"><g fill="#68ca44"><path d="m171.454 101.474s-19.546-56.079 2.416-91.613c1.036-1.676 2.963-2.571 4.918-2.326 10.589 1.327 44.739 9.874 65.342 64.814z"/><path d="m342.793 101.474s19.546-56.079-2.416-91.613c-1.036-1.676-2.963-2.571-4.918-2.326-10.589 1.327-44.739 9.874-65.342 64.814z"/><path d="m244.129 72.355-72.67 29.116s-8.346-23.956-8.005-50.467c.187-14.059 2.814-28.835 10.422-41.151 1.024-1.657 2.924-2.567 4.857-2.327 6.334.785 21.255 4.172 36.631 18.75 10.179 9.628 20.549 24.166 28.765 46.079z"/><path d="m342.788 101.471-72.67-29.116c7.845-20.91 17.644-35.108 27.373-44.736 15.848-15.703 31.475-19.279 38.009-20.092 1.938-.241 3.845.662 4.871 2.323 7.526 12.182 10.179 26.774 10.413 40.702.451 26.692-7.996 50.919-7.996 50.919z"/></g><path d="m244.129 72.355-72.67 29.116s-8.346-23.956-8.005-50.467c10.851 2.565 21.952 6.903 32.713 13.766 3.437 2.184 7.965.15 8.587-3.867 1.242-8.086 4.098-20.71 10.611-34.627 10.178 9.628 20.548 24.166 28.764 46.079z" fill="#4fc123"/><path d="m342.788 101.471-72.67-29.116c7.845-20.91 17.644-35.108 27.373-44.736 6.082 13.386 8.797 25.459 9.999 33.284.621 4.018 5.15 6.052 8.587 3.857 11.422-7.284 23.225-11.723 34.707-14.207.451 26.691-7.996 50.918-7.996 50.918z" fill="#4fc123"/><path d="m296.457 75.943c-3.074-14.778-11.834-39.986-36.749-59.276-2.104-1.629-5.069-1.629-7.173 0-24.915 19.29-33.675 44.498-36.749 59.276-1.131 5.436-7.222 8.151-12.073 5.449-26.748-14.899-55.351-11.651-71.864-7.654-5.137 1.244-6.191 8.134-1.644 10.83 44.141 26.171 51.774 67.841 51.774 67.841h74.143 74.143s7.634-41.67 51.774-67.841c4.547-2.696 3.494-9.586-1.644-10.83-16.513-3.997-45.116-7.245-71.864 7.654-4.851 2.702-10.943-.013-12.074-5.449z" fill="#47a920"/><path d="m339.993 127.601c-5.601 10.129-8.186 18.556-9.188 22.463h-149.367c-1.002-3.908-3.587-12.334-9.188-22.463 6.262 2.014 12.564 4.689 18.766 8.146 6.022 3.356 13.586-.02 14.999-6.773 3.817-18.355 14.688-42.001 45.648-65.967 2.625-2.024 6.292-2.024 8.917 0 30.96 23.966 41.831 47.612 45.648 65.967 1.413 6.753 8.977 10.129 14.999 6.773 6.202-3.457 12.504-6.132 18.766-8.146z" fill="#409617"/><path d="m296.457 144.425c-3.074-14.778-11.834-39.986-36.749-59.276-2.104-1.629-5.069-1.629-7.173 0-24.915 19.29-33.675 44.498-36.749 59.276-1.131 5.436-7.222 8.151-12.073 5.449-26.748-14.899-55.351-11.651-71.864-7.654-5.137 1.244-6.191 8.134-1.644 10.83 44.141 26.171 51.774 67.841 51.774 67.841h74.143 74.143s7.634-41.67 51.774-67.841c4.547-2.696 3.494-9.586-1.644-10.83-16.513-3.997-45.116-7.245-71.864 7.654-4.851 2.701-10.943-.013-12.074-5.449z" fill="#68ca44"/><path d="m346.345 185.903c-13.085 18.646-16.081 34.987-16.081 34.987h-148.285s-2.996-16.341-16.081-34.987c21.091-14.578 46.63-23.145 74.063-23.145h32.322c27.433.001 52.972 8.567 74.062 23.145z" fill="#4fc123"/><path d="m271.127 504.747h-30.011c-66.803 0-121.46-54.657-121.46-121.46v-74.69c0-66.803 54.657-121.46 121.46-121.46h30.011c66.803 0 121.46 54.657 121.46 121.46v74.69c0 66.803-54.657 121.46-121.46 121.46z" fill="#fedf30"/><path d="m392.583 308.594v74.694c0 66.799-54.648 121.458-121.458 121.458h-30.006c-19.716 0-38.369-4.756-54.872-13.194 9.406 2.373 19.227 3.618 29.335 3.618h30.006c66.81 0 121.458-54.659 121.458-121.458v-74.694c0-47.094-27.154-88.144-66.587-108.265 52.755 13.194 92.124 61.15 92.124 117.841z" fill="#f4d01e"/><path d="m392.232 299.252c-5.565 4.98-12.119 8.927-22.547 8.927-28.143 0-28.143-28.835-56.308-28.835-28.144 0-28.144 28.835-56.308 28.835-28.144 0-28.144-28.835-56.298-28.835s-28.154 28.835-56.297 28.835c-11.545 0-18.354-4.852-24.313-10.576 1.405-15.567 5.788-30.303 12.577-43.646 3.33 1.288 7.161 2.054 11.736 2.054 28.143 0 28.143-28.835 56.297-28.835s28.154 28.835 56.298 28.835c28.164 0 28.164-28.835 56.308-28.835 28.165 0 28.165 28.835 56.308 28.835 3.852 0 7.172-.543 10.108-1.479 6.863 13.661 11.204 28.77 12.439 44.72z" fill="#fac600"/><path d="m392.583 351.112v32.176c0 7.406-.67 14.662-1.958 21.706-5.235 4.299-11.513 7.544-20.94 7.544-28.143 0-28.143-28.835-56.308-28.835-28.144 0-28.144 28.835-56.308 28.835-28.144 0-28.144-28.835-56.298-28.835s-28.154 28.835-56.297 28.835c-10.821 0-17.493-4.267-23.196-9.523-1.064-6.427-1.617-13.013-1.617-19.727v-33.985c6.076 5.927 12.938 11.045 24.813 11.045 28.143 0 28.143-28.824 56.297-28.824s28.154 28.824 56.298 28.824c28.164 0 28.164-28.824 56.308-28.824 28.165 0 28.165 28.824 56.308 28.824 10.651 0 17.258-4.118 22.898-9.236z" fill="#fac600"/><path d="m361.822 463.856c-22.281 25.047-54.734 40.89-90.697 40.89h-30.006c-35.804 0-68.119-15.705-90.399-40.561 22.079-3.905 24.143-28.303 50.052-28.303 28.154 0 28.154 28.824 56.298 28.824 28.164 0 28.164-28.824 56.308-28.824 25.269.001 27.866 23.197 48.444 27.974z" fill="#fac600"/><path d="m392.219 299.264c-5.563 4.973-12.112 8.919-22.536 8.919-.905 0-1.79-.031-2.634-.092v-9.071c0-15.834-3.071-30.976-8.644-44.878 3.224 1.18 6.905 1.871 11.278 1.871 3.854 0 7.169-.549 10.109-1.483 2.231 4.463 4.178 9.062 5.85 13.762 2.935 8.253 4.799 16.009 5.925 24.605.208 1.583.385 3.415.529 4.851.02.203.041.407.051.61.031.295.062.601.072.906z" fill="#e8b800"/><path d="m392.585 351.107v32.186c0 7.601-.561 14.22-1.963 21.702-5.237 4.302-11.512 7.546-20.939 7.546-3.244 0-6.112-.386-8.685-1.068 3.926-11.898 6.051-24.59 6.051-37.759v-13.454c.844.061 1.729.092 2.634.092 10.648-.001 17.258-4.119 22.902-9.245z" fill="#e8b800"/><path d="m361.823 463.856c-.691.783-1.403 1.556-2.115 2.319-.722.763-1.444 1.525-2.186 2.268-1.491 1.512-2.951 2.922-4.515 4.363-5.484 5.051-11.755 9.788-18.086 13.761-4.718 2.96-9.655 5.558-14.762 7.779-7.805 3.394-16.848 6.328-25.2 8.034-.498.102-.986.203-1.483.285-5.432 1.051-10.586 1.618-16.13 1.922-.925.051-1.86.091-2.796.112-.234.01-.458.01-.682.01-.915.03-1.831.041-2.746.041h-30c-.61 0-1.23 0-1.841-.01-11.565-.193-22.523-1.822-33.62-5.298-2.448-.767-5.028-1.664-7.302-2.512-.6-.224-1.2-.458-1.8-.691-.946-.376-1.881-.773-2.817-1.169-2.003-.854-3.986-1.759-5.939-2.725-.519-.254-1.027-.508-1.536-.783 9.397 2.369 19.22 3.61 29.319 3.61h30c38.318 0 72.64-17.98 94.931-45.915 5.94 6.046 11.645 12.351 21.306 14.599z" fill="#e8b800"/><path d="m400.079 351.111v-42.517c0-12.174-1.491-23.022-4.753-34.78-2.182-7.867-5.186-15.365-8.838-22.656-9.651-19.269-23.969-35.807-41.603-48.174 6.667-13.137 18.975-30.441 40.978-43.485 4.701-2.787 7.214-8.089 6.402-13.506-.814-5.429-4.78-9.77-10.106-11.059-8.51-2.06-21.269-4.171-35.74-3.332 6.958-12.707 19.022-28.478 39.444-40.585 4.701-2.788 7.214-8.09 6.401-13.507-.814-5.429-4.78-9.769-10.105-11.058-6.17-1.493-14.575-3.013-24.244-3.417.296-4.08.441-8.308.369-12.608-.069-4.097-3.412-7.371-7.493-7.371-.043 0-.086 0-.129.001-4.14.07-7.439 3.482-7.37 7.621.073 4.332-.113 8.6-.459 12.71-12.102 1.104-25.218 4.362-37.952 11.454-.237.132-.476.145-.715.037-.303-.139-.35-.365-.371-.463-1.547-7.439-4.665-18.228-10.874-29.799 16.148-22.543 34.033-28.076 41.913-29.412.729 1.271 1.411 2.584 2.022 3.898l.351.773c1.713 3.768 6.153 5.437 9.927 3.722 3.769-1.713 5.436-6.157 3.723-9.927l-.38-.835c-1.117-2.398-2.37-4.725-3.724-6.915-2.563-4.149-7.364-6.434-12.228-5.825-6.229.781-18.725 3.6-32.432 13.707-6.456 4.76-12.377 10.555-17.769 17.304-5.258-7.042-11.819-14.014-20.027-20.369-4.813-3.727-11.538-3.727-16.351 0-7.705 5.965-13.965 12.474-19.053 19.075-5.112-6.203-10.696-11.552-16.74-16.009-13.708-10.107-26.204-12.926-32.432-13.707-4.864-.609-9.664 1.677-12.227 5.823-10.723 17.349-12.506 38.697-11.188 57.044-10.502.265-19.634 1.892-26.221 3.487-5.325 1.289-9.291 5.629-10.105 11.058-.813 5.417 1.7 10.719 6.402 13.507 20.423 12.108 32.491 27.883 39.448 40.586-14.473-.841-27.234 1.271-35.746 3.331-5.325 1.29-9.291 5.631-10.105 11.059-.812 5.417 1.701 10.718 6.402 13.505 22.008 13.048 34.315 30.356 40.979 43.49-17.442 12.234-31.654 28.559-41.305 47.569-1.708 3.356-3.253 6.771-4.65 10.234-.168.417-.337.833-.501 1.251-3.633 9.289-6.152 18.933-7.52 28.832-.812 5.879-1.221 11.765-1.221 17.72v40.709 33.985c0 6.97.581 14.064 1.719 20.957 1.34 8.117 3.48 16.145 6.36 23.861 1.449 3.879 5.77 5.851 9.646 4.401 3.879-1.448 5.849-5.766 4.401-9.645-.551-1.475-1.065-2.966-1.554-4.465 3.419 1.016 7.298 1.638 11.737 1.638 17.228 0 26.255-9.246 33.507-16.676 6.632-6.793 11.87-12.159 22.79-12.159s16.159 5.366 22.79 12.159c7.253 7.429 16.279 16.676 33.508 16.676 17.243 0 26.274-9.249 33.529-16.681 6.631-6.79 11.868-12.154 22.779-12.154 10.928 0 16.167 5.367 22.802 12.162 7.254 7.428 16.28 16.673 33.506 16.673 3.391 0 6.579-.357 9.621-1.072-4.371 13.129-11.139 25.396-19.927 36.169-4.76-2.185-8.398-5.898-12.468-10.066-7.255-7.431-16.286-16.679-33.534-16.679-17.226 0-26.253 9.241-33.505 16.667-6.635 6.793-11.875 12.158-22.803 12.158-10.913 0-16.149-5.362-22.779-12.151-7.255-7.429-16.283-16.674-33.518-16.674-17.242 0-26.269 9.247-33.523 16.677-4.447 4.555-8.4 8.599-13.906 10.667-1.121-1.352-2.221-2.725-3.282-4.134-2.49-3.307-7.192-3.969-10.498-1.478-3.307 2.491-3.969 7.191-1.478 10.498 24.349 32.327 62.867 51.626 103.035 51.626h30.006c30.277 0 59.755-10.811 83.001-30.442 4.705-3.973 9.095-8.263 13.156-12.816.093-.099.184-.199.271-.303 16.198-18.277 27.118-41.236 30.932-65.179 1.088-6.83 1.594-13.208 1.594-20.214.001.001.001-32.176.001-32.177zm-272.922-39.24c4.689 2.281 10.314 3.805 17.316 3.805 17.228 0 26.255-9.246 33.507-16.675 6.632-6.793 11.87-12.16 22.79-12.16 2.546 0 4.822.281 6.957.858 3.998 1.084 8.113-1.283 9.194-5.279 1.081-3.997-1.283-8.113-5.279-9.193-3.381-.915-7.039-1.378-10.871-1.378-17.237 0-26.265 9.248-33.519 16.679-6.629 6.791-11.866 12.156-22.778 12.156-7.161 0-11.9-2.269-16.448-6.075.02-.159.04-.317.06-.476.144-1.128.301-2.252.478-3.373.018-.113.033-.226.051-.339.194-1.202.412-2.398.645-3.591.054-.279.11-.558.167-.837.243-1.2.499-2.396.781-3.586.005-.021.011-.042.016-.063.278-1.171.582-2.335.898-3.496.075-.277.151-.553.228-.829.326-1.161.666-2.317 1.029-3.467.045-.143.094-.285.14-.428.335-1.045.687-2.085 1.053-3.12.092-.261.183-.522.277-.782.408-1.127.831-2.25 1.276-3.366.082-.205.168-.409.251-.613.399-.984.812-1.964 1.239-2.938.066-.151.131-.303.198-.455 2.437.441 4.979.658 7.661.658 17.228 0 26.255-9.246 33.507-16.676 6.632-6.793 11.87-12.159 22.79-12.159s16.159 5.366 22.79 12.159c7.253 7.429 16.279 16.676 33.508 16.676 17.243 0 26.274-9.249 33.529-16.681 6.631-6.79 11.868-12.154 22.779-12.154 10.928 0 16.167 5.367 22.802 12.162 7.254 7.428 16.28 16.673 33.506 16.673 2.036 0 3.985-.125 5.871-.377.042.096.082.194.125.29.466 1.066.912 2.138 1.344 3.217 3.695 9.238 6.169 18.986 7.308 28.878.019.162.037.324.055.487-3.897 2.881-8.251 4.681-14.704 4.681-10.911 0-16.148-5.364-22.779-12.154-7.255-7.432-16.286-16.681-33.53-16.681-17.227 0-26.254 9.245-33.506 16.673-6.635 6.795-11.874 12.162-22.802 12.162-6.03 0-10.579-1.517-15.211-5.074-3.285-2.522-7.99-1.904-10.512 1.38s-1.903 7.99 1.38 10.512c7.264 5.578 14.999 8.175 24.342 8.175 17.243 0 26.274-9.249 33.529-16.681 6.631-6.79 11.868-12.154 22.779-12.154 10.928 0 16.167 5.367 22.802 12.162 7.254 7.428 16.28 16.672 33.506 16.672 6.152 0 11.194-1.177 15.401-2.925v34.886c-4.102 3.195-8.62 5.214-15.401 5.214-10.912 0-16.149-5.362-22.78-12.15-7.255-7.429-16.286-16.674-33.529-16.674-17.227 0-26.253 9.241-33.505 16.667-6.635 6.792-11.874 12.158-22.803 12.158-10.913 0-16.15-5.362-22.78-12.151-7.254-7.428-16.282-16.673-33.518-16.673s-26.264 9.245-33.518 16.673c-6.63 6.789-11.867 12.151-22.78 12.151-7.58 0-12.393-2.466-17.316-6.809v-34.172zm52.256-296.666c7.695 1.305 24.93 6.6 40.771 27.834-6.787 12.165-10.12 23.601-11.737 31.377-.021.097-.067.325-.37.463-.238.107-.478.096-.716-.037-12.025-6.698-24.394-9.979-35.926-11.253-1.354-15.77-.289-33.982 7.978-48.384zm-42.025 64.975c14.823-3.043 39.714-5.03 62.676 7.76 4.374 2.436 9.7 2.652 14.245.574 4.578-2.092 7.791-6.118 8.816-11.046 2.606-12.527 10.348-36.051 32.996-54.087 22.647 18.036 30.389 41.56 32.996 54.087 1.026 4.927 4.239 8.953 8.818 11.046 4.544 2.077 9.869 1.862 14.242-.575 22.965-12.791 47.855-10.804 62.677-7.76-26.713 16.94-40.069 39.051-46.488 54.053-7.759 1.855-15.693 4.751-23.484 9.091-.236.132-.478.145-.716.036-.304-.139-.35-.366-.371-.464v.001c-3.064-14.733-12.271-42.597-39.499-63.677-4.813-3.727-11.538-3.727-16.351 0-27.229 21.08-36.435 48.944-39.5 63.677-.02.097-.067.324-.37.463-.238.108-.478.096-.716-.037-7.792-4.34-15.726-7.235-23.485-9.09-6.417-15-19.771-37.11-46.486-54.052zm0 68.482c14.822-3.044 39.714-5.03 62.677 7.761 4.376 2.437 9.701 2.652 14.245.574 4.578-2.092 7.791-6.118 8.816-11.045 2.606-12.527 10.348-36.05 32.996-54.088 22.647 18.037 30.39 41.56 32.996 54.088v.001c1.026 4.927 4.239 8.953 8.817 11.045 4.546 2.077 9.87 1.862 14.243-.574 22.967-12.792 47.857-10.804 62.677-7.761-22.438 14.229-35.446 32.104-42.842 46.353-18.689-10.082-39.561-15.376-60.889-15.376h-30.006c-21.321 0-42.196 5.3-60.886 15.382-7.393-14.251-20.402-32.128-42.844-46.36zm43.366 63.397c18.114-11.401 38.988-17.427 60.364-17.427h30.006c21.483 0 42.444 6.081 60.62 17.585 14.63 9.26 26.927 21.663 36.038 36.237-9.639-.592-14.643-5.712-20.875-12.095-7.255-7.432-16.286-16.681-33.53-16.681-17.227 0-26.254 9.245-33.506 16.673-6.635 6.795-11.874 12.162-22.802 12.162-10.912 0-16.149-5.364-22.779-12.156-7.254-7.431-16.282-16.679-33.519-16.679s-26.265 9.248-33.519 16.679c-6.629 6.791-11.866 12.156-22.778 12.156-.015 0-.028-.002-.043-.002 9.171-14.68 21.572-27.168 36.323-36.452zm166.152 180.829c-7.255-7.432-16.286-16.681-33.53-16.681-17.227 0-26.254 9.245-33.506 16.673-6.635 6.795-11.874 12.162-22.802 12.162-10.912 0-16.149-5.364-22.779-12.156-7.254-7.431-16.282-16.679-33.519-16.679s-26.265 9.248-33.519 16.679c-6.629 6.791-11.866 12.156-22.778 12.156-7.165 0-11.848-2.276-16.173-5.841-.054-.383-.115-.765-.166-1.149-.074-.564-.144-1.129-.209-1.695-.105-.903-.196-1.809-.279-2.716-.05-.548-.102-1.095-.144-1.644-.076-.984-.132-1.969-.182-2.955-.024-.468-.056-.935-.074-1.402-.056-1.451-.089-2.902-.089-4.352v-19.255c4.721 2.294 10.36 3.811 17.316 3.811 17.227 0 26.254-9.242 33.506-16.669 6.632-6.791 11.871-12.155 22.791-12.155s16.16 5.364 22.791 12.155c7.253 7.427 16.279 16.669 33.507 16.669 17.242 0 26.273-9.246 33.528-16.674 6.631-6.788 11.868-12.15 22.78-12.15 10.929 0 16.168 5.365 22.803 12.158 7.253 7.425 16.28 16.666 33.505 16.666 6.125 0 11.176-1.17 15.401-2.925v18.37c0 1.337-.031 2.674-.078 4.01-.007.214-.013.429-.022.643-.052 1.276-.127 2.549-.222 3.82-.018.246-.038.491-.058.737-.104 1.282-.225 2.563-.372 3.838-.019.164-.042.328-.061.492-.146 1.223-.313 2.443-.498 3.657-.018.115-.033.231-.051.347-3.268 2.272-7.564 4.21-14.039 4.21-10.91-.001-16.147-5.365-22.778-12.155zm-75.781 104.362h-30.006c-28.477 0-56.016-10.999-76.914-30.113 5.613-3.25 9.857-7.589 13.773-11.6 6.631-6.792 11.869-12.157 22.794-12.157 10.921 0 16.16 5.364 22.791 12.156 7.253 7.426 16.278 16.669 33.506 16.669 17.242 0 26.273-9.246 33.529-16.675 6.631-6.788 11.868-12.15 22.78-12.15 10.932 0 16.172 5.366 22.806 12.16 3.634 3.721 7.569 7.74 12.635 10.905-1.423 1.331-2.871 2.639-4.365 3.901-20.547 17.349-46.588 26.904-73.329 26.904z"/></svg>