<?xml version="1.0" encoding="iso-8859-1"?>
<!-- Generator: Adobe Illustrator 19.0.0, SVG Export Plug-In . SVG Version: 6.00 Build 0)  -->
<svg version="1.1" id="Capa_1" xmlns="http://www.w3.org/2000/svg" xmlns:xlink="http://www.w3.org/1999/xlink" x="0px" y="0px"
	 viewBox="0 0 393.617 393.617" style="enable-background:new 0 0 393.617 393.617;" xml:space="preserve">
<g>
	<path style="fill:#8C562A;" d="M173.151,303.217c-2.4,0-4.8,0.8-7.2,2.4c-4.8,3.2-6.4,9.6-4,14.4c4,4,10.4,4.8,15.2,1.6
		c2.4-1.6,4-4,4.8-7.2c0.8-2.4,0-4.8-1.6-7.2C178.751,304.817,176.351,303.217,173.151,303.217z"/>
	<path style="fill:#8C562A;" d="M188.351,75.217c-3.2,0-6.4,0.8-9.6,3.2c-6.4,4-8.8,12.8-4.8,19.2c4.8,5.6,13.6,6.4,20,1.6
		c3.2-2.4,5.6-5.6,6.4-9.6c0.8-3.2,0-7.2-1.6-9.6C196.351,76.817,192.351,75.217,188.351,75.217z"/>
	<path style="fill:#8C562A;" d="M301.951,268.017c-2.4,0-4.8,0.8-7.2,2.4c-4.8,3.2-6.4,8.8-3.2,13.6c1.6,2.4,4,3.2,7.2,3.2
		c2.4,0,4.8-0.8,7.2-2.4c2.4-1.6,4-4,4.8-7.2c0.8-2.4,0-4.8-1.6-6.4C307.551,268.817,304.351,268.017,301.951,268.017z"/>
</g>
<path style="fill:#B37A43;" d="M228.351,384.017c-61.6,0-124.8-47.2-148-108.8c-5.6-16-12.8-31.2-19.2-46.4l-4-9.6l0.8-3.2
	c4.8-14.4,18.4-49.6,38.4-65.6c0.8,0,0.8-0.8,0-1.6l-0.8-0.8c-15.2,12-26.4,32.8-32.8,48.8l-8,17.6l-6.4-17.6
	c-17.6-44-28-80.8-18.4-114.4l0.8-2.4l1.6-1.6c9.6-8,44.8-36,80-36c7.2,0,14.4,1.6,20.8,4l0,0c0.8,0,0.8,0,0.8-0.8s0-0.8-0.8-1.6
	l0,0c-7.2-2.4-14.4-4-21.6-4c-24.8,2.4-49.6,8.8-72,20l11.2-16.8c11.2-12,24-22.4,38.4-30.4l2.4,0h1.6c9.6-1.6,20-2.4,29.6-2.4
	c53.6-0.8,103.2,25.6,132.8,69.6c21.6,11.2,41.6,24.8,60,40l-6.4,13.6c-9.6-3.2-20-4.8-30.4-4.8c-13.6,0-26.4,3.2-37.6,9.6
	c0,0-0.8,0-0.8,0.8s0,0.8,0.8,1.6l0,0c11.2-6.4,24-9.6,37.6-9.6c25.6,1.6,49.6,9.6,70.4,23.2l1.6,0.8l0.8,1.6
	c16.8,29.6,29.6,80-10.4,152.8C307.551,371.217,261.151,384.017,228.351,384.017z"/>
<path style="fill:#BF885A;" d="M136.351,37.617c45.6,3.2,87.2,27.2,112.8,65.6c0.8,1.6,2.4,2.4,3.2,3.2c8.8,4.8,17.6,9.6,26.4,15.2
	c12,0,40.8,14.4,51.2,16.8l-9.6-19.2c-17.6-14.4-36.8-28-57.6-38.4c-3.2-1.6-5.6-3.2-8-5.6c-38.4-54.4-88-68-124.8-68
	c-15.2,0.8-29.6,3.2-44,6.4c-15.2,8.8-41.6,29.6-27.2,36C79.551,37.617,109.151,27.217,136.351,37.617z"/>
<path style="fill:#8C562A;" d="M345.151,145.617c-7.2-4.8-17.6-3.2-23.2,3.2c8.8,24.8,10.4,59.2-8.8,103.2c4,10.4,4,23.2-1.6,32.8
	c-6.4,9.6-16,15.2-27.2,16c-8.8,10.4-18.4,19.2-30.4,26.4c-11.2,12.8-28,18.4-44,15.2c-4,0.8-8,0.8-12.8,0.8
	c-7.2,0-15.2-0.8-22.4-2.4c-1.6,0-3.2,0-4,0c-6.4,0-13.6-2.4-18.4-6.4c-15.2-5.6-28.8-13.6-41.6-23.2
	c-0.8,35.2,62.4,73.6,106.4,73.6c30.4,0,94.4-14.4,126.4-72C371.551,261.617,372.351,198.417,345.151,145.617z"/>
<g>
	<path style="fill:#1C1211;" d="M357.151,148.817c-9.6-14.4-21.6-27.2-36-37.6c-18.4-15.2-38.4-28-59.2-39.2
		c-32-45.6-84-72.8-140-72c-11.2,0-22.4,0.8-33.6,3.2c-0.8,0-1.6,0.8-2.4,0.8c-104,61.6-70.4,141.6-34.4,226.4
		c6.4,15.2,12.8,31.2,19.2,47.2c24.8,65.6,92,116,157.6,116c50.4,0,92.8-28,120.8-79.2c42.4-76,29.6-130.4,9.6-163.2
		C358.751,150.417,357.951,149.617,357.151,148.817z M333.951,305.617c-32,57.6-75.2,69.6-105.6,69.6c-58.4,0-118.4-44.8-140.8-104
		c-6.4-16-12.8-32.8-19.2-48l-2.4-5.6c3.2-10.4,16.8-46.4,36-61.6c4-3.2,4.8-8.8,1.6-12.8s-8.8-4.8-12.8-1.6
		c-16,12.8-27.2,35.2-35.2,52c-16-40.8-27.2-76.8-18.4-108.8c9.6-8,56-44.8,92.8-30.4c4.8,1.6,9.6-0.8,12-4.8
		c1.6-4.8-0.8-9.6-4.8-12c-28-10.4-56.8-0.8-79.2,12c10.4-11.2,23.2-20.8,36-28.8c9.6-1.6,18.4-2.4,28-2.4
		c50.4-0.8,98.4,24,126.4,65.6c0.8,1.6,2.4,2.4,3.2,3.2c20.8,10.4,40,24,58.4,38.4l0.8,0.8c-24.8-8.8-51.2-6.4-74.4,5.6
		c-4.8,2.4-5.6,8-3.2,12.8s8,5.6,12.8,3.2l0,0c40-23.2,91.2,8.8,99.2,13.6C361.151,190.417,371.551,237.617,333.951,305.617z"/>
	<path style="fill:#1C1211;" d="M301.951,249.617c-6.4,0-12,1.6-17.6,5.6c-12.8,8.8-16.8,25.6-8,39.2c4.8,7.2,13.6,11.2,21.6,11.2
		c14.4,0,26.4-9.6,29.6-24s-5.6-28-20-31.2C305.951,250.417,303.551,249.617,301.951,249.617L301.951,249.617z M309.951,278.417
		c-0.8,3.2-2.4,5.6-4.8,7.2s-4.8,2.4-7.2,2.4c-3.2,0-5.6-0.8-7.2-3.2c-2.4-4.8-0.8-10.4,3.2-13.6c2.4-1.6,4.8-2.4,7.2-2.4
		c3.2,0,5.6,0.8,7.2,3.2C309.951,273.617,310.751,276.017,309.951,278.417L309.951,278.417z"/>
	<path style="fill:#1C1211;" d="M173.151,285.617c-6.4,0-12.8,2.4-17.6,5.6c-13.6,8.8-16.8,26.4-8,40l0,0
		c5.6,7.2,13.6,11.2,22.4,11.2c14.4,0,26.4-10.4,29.6-24c3.2-14.4-5.6-28.8-20-32C177.951,285.617,175.551,285.617,173.151,285.617z
		 M181.951,314.417c-0.8,3.2-2.4,5.6-4.8,7.2c-4.8,3.2-11.2,3.2-15.2-1.6c-3.2-4.8-1.6-11.2,4-14.4c2.4-1.6,4.8-2.4,7.2-2.4
		c3.2,0,6.4,0.8,8,4C182.751,309.617,182.751,312.017,181.951,314.417L181.951,314.417z"/>
	<path style="fill:#1C1211;" d="M218.751,93.617c4-16-6.4-32-22.4-36c-2.4-0.8-4.8-0.8-7.2-0.8c-7.2,0-14.4,2.4-20,6.4
		c-14.4,9.6-19.2,29.6-9.6,44c0,0,0,0,0,0.8c5.6,8,15.2,12.8,24.8,12.8l0,0C201.151,120.817,214.751,109.617,218.751,93.617
		L218.751,93.617z M200.351,89.617c-0.8,4-3.2,7.2-6.4,9.6c-6.4,4.8-15.2,4-20-1.6c-4-6.4-1.6-15.2,4.8-19.2
		c2.4-2.4,6.4-3.2,9.6-3.2c4,0,8,1.6,10.4,4.8C201.151,83.217,201.951,86.417,200.351,89.617L200.351,89.617z"/>
	<path style="fill:#1C1211;" d="M308.351,190.417c2.4-4.8,0-9.6-4.8-12l0,0c-25.6-9.6-54.4-8.8-79.2,1.6c-4.8,1.6-6.4,7.2-4.8,12
		c1.6,3.2,4.8,5.6,8,5.6c1.6,0,2.4,0,4-0.8c20.8-8.8,44-9.6,64.8-1.6C301.151,197.617,306.751,195.217,308.351,190.417
		L308.351,190.417z"/>
	<path style="fill:#1C1211;" d="M161.151,226.417c4.8-0.8,8-5.6,8-10.4c-0.8-4.8-5.6-8-10.4-8l0,0c-0.8,0-28,4-41.6,22.4
		c-6.4,8.8-9.6,20-7.2,31.2c0.8,4.8,4,8,8.8,8h1.6c4.8-0.8,8.8-4.8,8-9.6l0,0C123.551,232.817,159.551,227.217,161.151,226.417z"/>
	<path style="fill:#1C1211;" d="M259.551,328.817c-1.6,0-30.4-6.4-48.8,13.6c-3.2,4-3.2,9.6,0,12.8c4,3.2,9.6,3.2,12.8,0
		c12-12,32-8,32-8c4.8,0.8,9.6-2.4,10.4-7.2C266.751,334.417,263.551,329.617,259.551,328.817L259.551,328.817z"/>
	<path style="fill:#1C1211;" d="M113.951,116.817c-5.6-18.4,16-32.8,16.8-32.8c4-3.2,4-8.8,0-12.8c-2.4-2.4-6.4-3.2-10.4-2.4
		c-1.6,0.8-32.8,22.4-24,53.6c0.8,4,4.8,6.4,8.8,6.4c0.8,0,1.6,0,2.4,0c4.8-1.6,8-6.4,6.4-11.2
		C113.951,117.617,113.951,116.817,113.951,116.817z"/>
</g>
<g>
</g>
<g>
</g>
<g>
</g>
<g>
</g>
<g>
</g>
<g>
</g>
<g>
</g>
<g>
</g>
<g>
</g>
<g>
</g>
<g>
</g>
<g>
</g>
<g>
</g>
<g>
</g>
<g>
</g>
</svg>
