<?xml version="1.0" encoding="iso-8859-1"?>
<!-- Generator: Adobe Illustrator 19.0.0, SVG Export Plug-In . SVG Version: 6.00 Build 0)  -->
<svg version="1.1" id="Capa_1" xmlns="http://www.w3.org/2000/svg" xmlns:xlink="http://www.w3.org/1999/xlink" x="0px" y="0px"
	 viewBox="0 0 511.983 511.983" style="enable-background:new 0 0 511.983 511.983;" xml:space="preserve">
<path style="fill:#AD1457;" d="M261.831,425.759c-39.553,40.278-102.245,46.524-148.965,14.845
	c-10.255-6.936-21.952-11.424-34.212-13.139c-18.531-3.763-37.727,1.749-51.447,14.76c13.984-15.588,19.128-37.199,13.651-57.419
	c-1.988-10.417-6.083-20.314-12.03-29.093c-31.644-47.215-25.57-110.196,14.504-150.5c0.324-0.384,0.7-0.725,1.109-1.024
	c21.568-21.466,50.704-33.598,81.137-33.786c30.851-0.111,60.439,12.217,82.076,34.212l52.129,52.726
	C305.992,303.644,306.905,378.34,261.831,425.759z"/>
<path style="fill:#E91E63;" d="M222.756,451.355c-0.375,0.392-0.776,0.759-1.194,1.109c-13.429,5.392-27.762,8.199-42.232,8.276
	c-23.684,0.213-46.874-6.817-66.462-20.135c-10.255-6.936-21.952-11.424-34.212-13.139c-18.531-3.763-37.727,1.749-51.447,14.76
	c13.984-15.588,19.128-37.199,13.651-57.419c-1.988-10.417-6.083-20.314-12.03-29.093c-31.644-47.215-25.57-110.196,14.504-150.5
	c0.324-0.384,0.7-0.725,1.109-1.024c42.838-17.14,91.785-6.885,124.137,26.022l52.214,52.726
	C266.984,329.265,267.855,403.961,222.756,451.355z"/>
<path d="M179.38,469.271c-25.45,0.256-50.363-7.303-71.377-21.662c-9.172-6.177-19.632-10.178-30.586-11.706
	c-15.843-3.421-32.361,1.194-44.143,12.32v0.009c-3.327,3.336-8.728,3.344-12.072,0.026c-3.319-3.31-3.353-8.685-0.06-12.03
	l0.034-0.043c11.876-13.617,16.125-32.284,11.322-49.706c-1.783-9.274-5.418-18.096-10.699-25.928
	C-12.312,310-5.819,242.369,37.267,199.215c44.536-45.73,116.587-49.996,166.207-9.829c3.575,2.875,6.979,5.947,10.204,9.206
	l51.566,52.155l0.606,0.606c49.177,49.757,50.081,129.529,2.048,180.396l-0.009,0.009
	C244.606,455.603,212.722,469.118,179.38,469.271z M67.068,418.072c4.283,0.009,8.557,0.324,12.798,0.939
	c13.557,1.911,26.5,6.885,37.847,14.564c43.316,29.332,101.4,23.522,138.053-13.804c34.946-36.371,40.987-91.717,14.709-134.768
	c-4.675-7.875-10.306-15.152-16.748-21.671l-52.121-52.718c-2.781-2.815-5.725-5.469-8.805-7.952
	c-42.804-34.673-104.992-30.97-143.385,8.54c-37.369,37.335-43.034,95.889-13.548,139.699c6.612,9.726,11.16,20.698,13.361,32.25
	c2.722,12.235,2.653,24.913-0.196,37.122C54.927,418.78,60.985,418.038,67.068,418.072z"/>
<path d="M258.939,326.791c-2.278,0.009-4.462-0.904-6.066-2.534l-48.512-49.058c-3.31-3.353-3.285-8.754,0.068-12.064
	c3.353-3.31,8.754-3.285,12.064,0.068l48.512,49.058c3.31,3.353,3.285,8.754-0.068,12.064
	C263.341,325.904,261.183,326.782,258.939,326.791z"/>
<path d="M246.628,363.759c-2.278,0.009-4.462-0.904-6.066-2.534l-48.52-49.058c-3.31-3.353-3.285-8.754,0.068-12.064
	c3.353-3.31,8.754-3.285,12.064,0.068l48.52,49.058c3.31,3.353,3.285,8.754-0.068,12.064
	C251.03,362.88,248.88,363.759,246.628,363.759z"/>
<path d="M112.96,302.714c-2.278,0.009-4.462-0.904-6.066-2.534l-48.512-49.058c-3.31-3.353-3.285-8.754,0.068-12.064
	c3.353-3.31,8.754-3.285,12.064,0.068l48.512,49.058c3.31,3.353,3.285,8.754-0.068,12.064
	C117.354,301.827,115.204,302.714,112.96,302.714z"/>
<path d="M100.649,339.691c-2.278,0.009-4.462-0.904-6.066-2.534l-48.512-49.058c-3.31-3.353-3.285-8.754,0.068-12.064
	c3.353-3.31,8.754-3.285,12.064,0.068l0,0l48.512,49.058c3.31,3.353,3.285,8.754-0.068,12.064
	C105.052,338.804,102.893,339.691,100.649,339.691z"/>
<g>
	<path style="fill:#558B30;" d="M317.8,244.459l3.071,1.536l-1.024,0.256l-16.296,2.815
		C306.248,243.896,312.587,241.849,317.8,244.459z"/>
	<path style="fill:#558B30;" d="M384.348,173.219c11.637,11.962,11.569,31.047-0.171,42.915c-4.59,4.667-10.588,7.696-17.064,8.617
		c1.51-9.47-1.561-19.094-8.276-25.937l-3.242-3.242c-4.223-4.309-4.155-11.219,0.154-15.443c1.118-1.101,2.466-1.945,3.942-2.474
		l21.159-7.679c0.085,0,0.085,0,0.171-0.085l0.085,0.085L384.348,173.219z"/>
	<path style="fill:#558B30;" d="M434.429,95.324c-4.121-23.13-26.21-38.547-49.348-34.434c-3.737,0.665-7.371,1.826-10.801,3.464
		l-29.008,13.821c-1.442,0.674-3.012,1.024-4.607,1.024c-5.128-0.017-9.53-3.66-10.494-8.702
		c-1.928-10.17-10.272-17.9-20.562-19.026c-19.154-1.954-37.139,9.479-43.512,27.643c-0.597,1.877-1.109,3.754-1.536,5.716
		l-2.645,12.968c-0.964,5.051-5.349,8.728-10.494,8.788c-0.896,0.009-1.783-0.102-2.645-0.341c-2.705-0.674-5.486-1.024-8.276-1.024
		h-0.085c-15.946,0.179-29.742,11.134-33.53,26.619c-0.341,1.348-0.597,2.713-0.768,4.095l-7.593,59.466l-0.427,0.597
		c3.344,2.688,6.535,5.563,9.556,8.617l51.532,52.129l44.365-7.679c2.696-5.17,9.035-7.218,14.248-4.607l3.071,1.536
		c4.692-1.339,7.926-5.614,7.935-10.494c0-1.16-0.179-2.304-0.512-3.413c-1.911-5.682,1.152-11.834,6.825-13.745
		c2.696-0.904,5.631-0.717,8.19,0.52l6.143,3.071c4.155,2.09,8.745,3.165,13.395,3.157c1.433,0.017,2.858-0.102,4.266-0.341
		c1.51-9.47-1.561-19.094-8.276-25.937l-3.242-3.242c-4.223-4.309-4.155-11.219,0.154-15.443c1.118-1.101,2.466-1.945,3.942-2.474
		l21.159-7.679c0.085,0,0.085,0,0.171-0.085c-4.181-4.334-4.061-11.228,0.273-15.408c1.118-1.075,2.449-1.903,3.908-2.423
		l21.159-7.679c0.171-0.085,0.256-0.085,0.427-0.171c5.947-2.184,11.33-5.648,15.784-10.153c8.02-8.25,12.516-19.29,12.542-30.8
		C435.137,100.597,434.907,97.935,434.429,95.324z"/>
</g>
<path style="fill:#8BC34A;" d="M409.602,128.854c0.017,5.247-0.939,10.451-2.816,15.357c-0.171,0.085-0.256,0.085-0.427,0.171
	l-21.159,7.679c-5.665,2.022-8.626,8.259-6.604,13.924c0.52,1.459,1.348,2.79,2.423,3.908c-0.085,0.085-0.085,0.085-0.171,0.085
	l-21.159,7.679c-5.674,2.048-8.617,8.301-6.569,13.975c0.529,1.476,1.374,2.824,2.474,3.942l3.242,3.242
	c6.714,6.842,9.786,16.466,8.276,25.937c-1.408,0.239-2.833,0.358-4.266,0.341c-4.65,0.009-9.24-1.066-13.395-3.157l-6.143-3.071
	c-5.392-2.611-11.885-0.358-14.495,5.034c-1.237,2.56-1.425,5.494-0.52,8.19c0.341,1.109,0.512,2.252,0.512,3.413
	c-0.009,4.88-3.242,9.155-7.935,10.494l-3.071-1.536c-5.213-2.611-11.552-0.563-14.248,4.607l-44.365,7.679l-51.532-52.129
	c-3.02-3.054-6.211-5.93-9.556-8.617l0.427-0.597l7.593-59.466c0.171-1.382,0.427-2.747,0.768-4.095
	c3.788-15.485,17.584-26.44,33.53-26.619h0.085c2.79,0,5.571,0.35,8.276,1.024c0.862,0.239,1.749,0.35,2.645,0.341
	c5.145-0.06,9.53-3.737,10.494-8.788l2.645-12.968c0.427-1.962,0.939-3.839,1.536-5.716c5.776-2.014,11.927-2.713,18.002-2.048
	c10.289,1.126,18.633,8.856,20.562,19.026c0.964,5.042,5.366,8.685,10.494,8.702c1.595,0,3.165-0.35,4.607-1.024l29.008-13.821
	c21.227-10.085,46.601-1.058,56.685,20.169c1.63,3.43,2.798,7.064,3.464,10.801C409.397,123.53,409.627,126.192,409.602,128.854z"/>
<path d="M259.186,265.277c-2.278,0-4.462-0.913-6.066-2.534l-51.532-52.121c-2.781-2.815-5.725-5.469-8.805-7.952
	c-3.029-2.414-4.053-6.561-2.5-10.11l7.371-57.717c1.561-12.38,8.336-23.496,18.608-30.578c10.093-6.928,22.669-9.223,34.562-6.305
	c1.194,0.29,2.397-0.444,2.688-1.647c0.017-0.06,0.026-0.111,0.034-0.171l2.662-13.011c4.948-25.45,28.547-42.889,54.33-40.142
	c14.035,1.493,25.433,12.021,28.018,25.894c0.196,1.177,1.314,1.962,2.491,1.766c0.205-0.034,0.401-0.102,0.589-0.188l28.982-13.804
	c25.561-12.072,56.062-1.135,68.126,24.418c3.276,6.936,4.948,14.513,4.897,22.174c0.009,13.728-5.358,26.918-14.956,36.746
	c-5.477,5.571-12.141,9.82-19.504,12.431l-21.082,7.653c-0.776,0.239-1.357,0.879-1.527,1.672c-0.205,0.793,0.026,1.638,0.597,2.227
	l3.199,3.199c15.135,15.272,15.024,39.92-0.247,55.055c-11.765,11.654-29.614,14.598-44.493,7.329l-6.134-3.063
	c-0.776-0.427-1.74-0.299-2.372,0.316c-0.793,0.631-1.084,1.706-0.725,2.653c0.614,1.954,0.93,3.984,0.93,6.032
	c0.026,9.419-6.715,17.499-15.989,19.154l-60.712,10.503C260.159,265.234,259.673,265.277,259.186,265.277z M207.467,192.723
	c2.031,1.792,4.087,3.737,6.22,5.87l48.435,48.989l56.284-9.735c1.092-0.256,1.868-1.229,1.877-2.346
	c0-0.299-0.051-0.606-0.145-0.887c-2.389-7.465-0.077-15.63,5.87-20.732c5.836-5.128,14.205-6.177,21.125-2.645l6.134,3.063
	c10.887,5.23,23.949,0.64,29.179-10.247c4.001-8.327,2.329-18.275-4.163-24.845l-3.199-3.199
	c-7.551-7.636-7.491-19.947,0.145-27.506c2.022-2.005,4.462-3.532,7.141-4.488l21.091-7.653c4.931-1.749,9.402-4.59,13.071-8.327
	c6.459-6.629,10.067-15.528,10.059-24.776c0.026-2.116-0.154-4.24-0.538-6.322c-1.86-10.537-8.549-19.589-18.07-24.461
	c-9.402-4.829-20.519-4.974-30.04-0.401l-28.991,13.804c-9.598,4.556-21.073,0.469-25.629-9.129c-0.7-1.476-1.212-3.037-1.519-4.641
	c-1.194-6.501-6.527-11.441-13.096-12.149c-17.029-1.851-32.617,9.726-35.765,26.559l-2.653,12.977
	c-1.766,9.035-9.649,15.57-18.855,15.622c-1.732,0.017-3.464-0.222-5.128-0.708c-7.039-1.672-14.461-0.239-20.382,3.933
	c-6.262,4.317-10.392,11.108-11.33,18.668L207.467,192.723z"/>
<path style="fill:#2E7D32;" d="M464.802,169.806l-31.994-2.901c-2.457-0.239-4.744-1.322-6.484-3.071
	c-2.952-2.952-3.942-7.329-2.56-11.262c2.107-6.083,1.672-12.755-1.194-18.514c-4.565,4.616-10.102,8.139-16.21,10.323
	l-21.159,7.679c-1.058,0.35-2.048,0.904-2.901,1.621c-4.795,3.66-5.716,10.511-2.056,15.306c0.196,0.256,0.392,0.495,0.606,0.734
	l0.256,0.256l3.242,3.242c1.28,1.271,2.423,2.67,3.413,4.181c8.19,12.115,6.689,28.325-3.583,38.734
	c-9.095,9.257-23.113,11.603-34.724,5.802l-2.986-1.45l-3.157-1.621c-5.392-2.611-11.885-0.358-14.495,5.034
	c-1.237,2.56-1.425,5.494-0.52,8.19c0.264,0.887,0.435,1.809,0.512,2.73v0.683c-0.009,5.273-3.771,9.794-8.958,10.75l-35.492,6.143
	l-25.169,4.351l0.597,0.597c0.811,0.811,1.587,1.664,2.304,2.56c6.006,6.288,11.27,13.25,15.698,20.732l36.516,14.077l12.627,4.863
	c3.967,1.485,8.446,0.444,11.347-2.645c1.527-1.442,2.568-3.319,2.986-5.375c1.16-5.819,6.817-9.59,12.636-8.429
	c2.841,0.563,5.324,2.252,6.902,4.675l3.754,5.802c1.135,1.775,2.449,3.438,3.925,4.948c1.459,1.519,3.097,2.867,4.863,4.01
	c7.081,4.556,15.75,5.921,23.889,3.754c16.099-4.437,25.723-20.911,21.671-37.113l-0.512-1.877l-0.683-2.56
	c-1.519-5.819,1.962-11.774,7.781-13.292c1.527-0.401,3.123-0.461,4.675-0.188l17.746,3.413l4.266,0.853
	c14.06,2.73,28.547-1.792,38.564-12.03c4.488-4.599,7.943-10.093,10.153-16.125c8.148-22.345-3.362-47.061-25.706-55.209
	C471.832,170.967,468.351,170.165,464.802,169.806z"/>
<g>
	<path style="fill:#4CAF50;" d="M458.233,238.402c-2.21,6.032-5.665,11.526-10.153,16.125l-0.171,0.171l-17.746-3.413
		c-5.921-1.058-11.578,2.884-12.644,8.805c-0.282,1.553-0.213,3.148,0.188,4.675l0.683,2.56l0.512,1.877
		c4.053,16.202-5.571,32.677-21.671,37.113c-8.139,2.167-16.808,0.802-23.889-3.754c-1.766-1.143-3.404-2.491-4.863-4.01
		c-1.476-1.51-2.79-3.174-3.925-4.948l-3.754-5.802c-3.234-4.974-9.888-6.382-14.862-3.148c-2.423,1.578-4.112,4.07-4.675,6.902
		c-0.418,2.056-1.459,3.933-2.986,5.375c-2.901,3.089-7.38,4.129-11.347,2.645l-12.627-4.863l-36.516-14.077
		c-4.428-7.482-9.692-14.444-15.698-20.732c-0.717-0.896-1.493-1.749-2.304-2.56l-0.597-0.597l25.169-4.351l35.492-6.143
		c5.187-0.956,8.95-5.477,8.958-10.75v-0.683c-0.077-0.921-0.247-1.843-0.512-2.73c-1.911-5.682,1.152-11.834,6.825-13.745
		c2.696-0.904,5.631-0.717,8.19,0.52l3.157,1.621l2.986,1.45c11.612,5.802,25.629,3.455,34.724-5.802
		c10.272-10.409,11.774-26.619,3.583-38.734c0.776,0.264,1.578,0.435,2.389,0.512l31.994,2.901
		c23.659,2.414,40.884,23.548,38.47,47.206C460.255,231.568,459.453,235.049,458.233,238.402z"/>
	<path style="fill:#4CAF50;" d="M380.849,169.721c-4.061-4.462-3.737-11.364,0.717-15.434c0.239-0.213,0.478-0.418,0.734-0.606
		c0.324,3.344-0.085,6.723-1.194,9.897C380.389,165.549,380.295,167.69,380.849,169.721z"/>
</g>
<path d="M389.56,315.853c-10.195,0-19.973-4.07-27.157-11.305c-1.851-1.903-3.507-3.976-4.948-6.203l-3.822-5.913
	c-0.384-0.776-1.254-1.186-2.099-0.981c-1.007,0.171-1.792,0.964-1.954,1.971c-0.785,3.72-2.696,7.107-5.469,9.709
	c-5.238,5.384-13.182,7.124-20.186,4.437l-49.22-18.983c-1.792-0.683-3.302-1.954-4.274-3.609
	c-4.675-7.866-10.289-15.135-16.731-21.645c-2.321-2.329-3.216-5.725-2.346-8.899c0.819-3.063,3.276-5.418,6.373-6.1l60.661-10.486
	c1.092-0.256,1.868-1.229,1.877-2.346c0-0.299-0.051-0.606-0.145-0.887c-2.389-7.465-0.077-15.63,5.87-20.732
	c5.836-5.128,14.205-6.177,21.125-2.645l6.134,3.063c10.887,5.23,23.949,0.64,29.179-10.247c4.001-8.327,2.329-18.275-4.163-24.845
	l-3.199-3.199c-7.551-7.636-7.491-19.947,0.145-27.506c2.022-2.005,4.462-3.532,7.141-4.488l21.091-7.653
	c4.931-1.749,9.402-4.59,13.071-8.327c3.327-3.336,8.728-3.344,12.064-0.017c0.64,0.64,1.177,1.374,1.587,2.184
	c3.908,7.815,4.513,16.876,1.664,25.135c-0.324,0.853-0.119,1.817,0.52,2.466c0.341,0.358,0.793,0.572,1.28,0.606l31.934,2.901
	c15.698,1.459,29.836,10.11,38.256,23.437c8.668,13.557,10.545,30.365,5.102,45.5l-0.043,0.119
	c-2.628,7.15-6.732,13.668-12.055,19.12c-12.004,12.311-29.418,17.738-46.293,14.436l-22.003-4.266
	c-0.734-0.128-1.485,0.137-1.979,0.691c-0.589,0.623-0.811,1.502-0.572,2.321l1.16,4.309c5.264,20.758-7.056,41.917-27.711,47.573
	C396.215,315.418,392.896,315.853,389.56,315.853z M352.012,274.346c6.493,0,12.533,3.344,15.971,8.847l3.737,5.776
	c0.811,1.28,1.758,2.474,2.807,3.566c5.341,5.384,13.156,7.499,20.485,5.537c11.629-3.191,18.565-15.093,15.613-26.79l-1.16-4.309
	c-1.698-6.493,0.06-13.403,4.65-18.309c4.505-4.803,11.142-6.988,17.61-5.785l22.072,4.283c11.253,2.193,22.857-1.425,30.851-9.641
	c3.626-3.72,6.424-8.165,8.216-13.045c3.66-10.17,2.389-21.457-3.421-30.569c-5.605-8.873-15.007-14.649-25.45-15.622l-31.96-2.901
	c-4.445-0.41-8.6-2.363-11.74-5.529c-5.256-5.281-7.03-13.105-4.564-20.135l0.051-0.162c-2.124,1.109-4.326,2.065-6.587,2.858
	l-21.082,7.653c-0.776,0.239-1.357,0.879-1.527,1.672c-0.205,0.793,0.026,1.638,0.597,2.227l3.199,3.199
	c15.135,15.272,15.024,39.92-0.247,55.055c-11.765,11.654-29.614,14.598-44.493,7.329l-6.134-3.063
	c-0.776-0.427-1.74-0.299-2.372,0.316c-0.793,0.631-1.084,1.706-0.725,2.653c0.614,1.954,0.93,3.984,0.93,6.032
	c0.026,9.419-6.715,17.499-15.989,19.154l-45.636,7.892c2.815,3.583,5.426,7.312,7.841,11.177l46.43,17.908
	c0.734,0.247,1.544,0.034,2.065-0.538c0.392-0.299,0.691-0.717,0.845-1.194c1.647-7.789,7.841-13.813,15.673-15.238
	C349.708,274.448,350.86,274.346,352.012,274.346z"/>
<path d="M234.939,228.394c-4.71,0-8.532-3.814-8.532-8.532c0-1.442,0.367-2.867,1.066-4.129
	c1.314-2.372,33.061-58.571,114.232-90.403c4.394-1.706,9.334,0.461,11.04,4.855c1.706,4.377-0.444,9.3-4.812,11.023
	c-75.498,29.605-105.222,82.238-105.512,82.767C240.92,226.713,238.053,228.402,234.939,228.394z"/>
<g>
</g>
<g>
</g>
<g>
</g>
<g>
</g>
<g>
</g>
<g>
</g>
<g>
</g>
<g>
</g>
<g>
</g>
<g>
</g>
<g>
</g>
<g>
</g>
<g>
</g>
<g>
</g>
<g>
</g>
</svg>
