<?xml version="1.0" encoding="iso-8859-1"?>
<!-- Generator: Adobe Illustrator 19.0.0, SVG Export Plug-In . SVG Version: 6.00 Build 0)  -->
<svg version="1.1" id="Capa_1" xmlns="http://www.w3.org/2000/svg" xmlns:xlink="http://www.w3.org/1999/xlink" x="0px" y="0px"
	 viewBox="0 0 511.994 511.994" style="enable-background:new 0 0 511.994 511.994;" xml:space="preserve">
<path style="fill:#CD2A00;" d="M489.168,280.007c0,25.625-4.453,50.237-12.657,73.184
	c-29.115,81.408-105.428,141.644-197.447,150.35c-7.582,0.722-15.285,1.093-23.067,1.093
	c-128.777,0-233.172-100.574-233.172-224.627c0-41.311,11.584-75.922,31.783-103.713c16.578-22.797,38.954-41,65.491-54.549
	c1.234-0.632,2.487-1.254,3.741-1.865c37.56-18.293,83.093-27.53,132.156-27.53c7.783,0,15.475,0.231,23.067,0.702
	c38.874,2.367,74.929,10.832,105.819,25.274c1.254,0.572,2.497,1.173,3.731,1.775C449.372,149.866,489.168,203.413,489.168,280.007z
	"/>
<path style="fill:#FF3501;" d="M489.168,280.007c0,25.625-4.453,50.237-12.657,73.184c-37.48,56.806-100.715,96.292-173.868,103.212
	c-7.582,0.722-15.285,1.093-23.067,1.093c-128.777,0-233.172-100.574-233.172-224.627c0-20.52,2.858-39.385,8.204-56.575
	c16.578-22.797,38.954-41,65.491-54.549c38.262-19.527,85.189-29.396,135.897-29.396c7.783,0,15.475,0.231,23.067,0.702
	c40.448,2.467,77.848,11.524,109.55,27.049C449.372,149.866,489.168,203.413,489.168,280.007z"/>
<path style="fill:#5EAC24;" d="M391.122,195.5l-52.132-46.787c-6.659-5.988-4.072-17.15,4.513-19.427l38.608-10.229
	c0.938-0.249,1.054-1.543,0.172-1.944c-30.091-13.682-65.081-22.984-102.55-25.351l0.153-60.351c0-13.139-10.75-23.89-23.89-23.89
	l0,0c-13.139,0-23.89,10.75-23.89,23.89l-0.153,60.365c-37.671,2.392-72.566,11.68-102.749,25.562
	c-1.78,0.818-1.506,3.433,0.402,3.875l32.877,7.621c8.976,2.076,11.674,13.81,4.543,19.758L117.4,190.013
	c-4.563,3.801-0.582,11.243,5.015,9.357l96.893-32.736c5.988-2.016,12.416,1.494,14.101,7.703l17.07,62.934
	c1.454,5.346,8.886,5.285,10.25-0.09l15.816-62.302c1.655-6.539,8.515-10.13,14.673-7.692l94.486,37.46
	C391.233,206.843,395.575,199.511,391.122,195.5z"/>
<path d="M235.296,496.208C113.611,485.563,23.716,385.211,30.707,267.772c0.247-4.147-2.915-7.71-7.062-7.956
	c-4.154-0.249-7.709,2.916-7.956,7.062c-0.256,4.304-0.386,8.721-0.386,13.13c0,120.638,95.636,220.422,218.681,231.187
	c4.174,0.357,7.79-2.727,8.149-6.838C242.496,500.219,239.434,496.57,235.296,496.208z"/>
<path d="M287.409,86.122V31.411C287.409,14.09,273.317,0,255.997,0c-9.452,0-18.322,4.225-24.335,11.593
	c-2.627,3.218-2.147,7.957,1.071,10.584c3.217,2.626,7.957,2.147,10.584-1.071c3.144-3.852,7.766-6.061,12.68-6.061
	c9.025,0,16.368,7.342,16.368,16.367v53.771c-10.781-0.454-21.281-0.488-32.736-0.003V45.181c0-4.154-3.368-7.522-7.522-7.522
	s-7.522,3.368-7.522,7.522v40.942C127.31,94.227,40.788,141.485,19.94,235.936c-0.896,4.057,1.668,8.071,5.724,8.966
	c4.07,0.898,8.074-1.68,8.966-5.724c10.458-47.377,40.355-85.176,86.509-109.486l39.683,8.987c2.028,0.459,2.748,2.166,2.748,3.488
	c0,3.033-0.112,1.16-50.929,43.157c-9.423,7.685-3.822,22.797,8.002,22.797c3.714,0,0.685,0.229,62.738-20.032
	c3.945-1.303,6.086-5.557,4.784-9.502c-1.302-3.945-5.558-6.085-9.502-4.784L131.444,189.4l40.336-32.907
	c11.937-9.738,7.509-29.058-7.634-32.488l-20.408-4.623c64.624-25.303,154.453-26.509,221.754-1.062l-23.879,6.187
	c-14.316,3.71-18.842,22.046-7.587,31.922l42.729,37.497l-82.818-32.1c-10.346-4.01-21.885,1.897-24.675,12.644l-13.737,52.923
	l-14.867-53.571c-2.818-10.155-13.606-15.997-23.708-12.662l-9.713,3.207c-3.945,1.303-6.086,5.556-4.784,9.502
	c1.302,3.945,5.555,6.085,9.502,4.784l9.711-3.207c1.921-0.632,3.975,0.523,4.496,2.4l17.073,61.518
	c3.498,12.605,21.479,12.498,24.779-0.208l15.809-60.907c0.53-2.041,2.715-3.156,4.678-2.397l94.482,36.621
	c13.574,5.262,23.737-12.265,13.099-21.604l-52.132-45.749c-2.122-1.862-1.316-5.338,1.439-6.051l42.389-10.983
	c43.418,21.954,93.869,65.969,93.869,151.916c0,117.354-95.415,212.651-217.221,216.952c-4.152,0.146-7.399,3.631-7.251,7.783
	c0.147,4.196,3.688,7.408,7.783,7.251c129.03-4.556,231.735-106.795,231.735-231.987C496.691,162.425,406.228,95.956,287.409,86.122
	z"/>
<g>
</g>
<g>
</g>
<g>
</g>
<g>
</g>
<g>
</g>
<g>
</g>
<g>
</g>
<g>
</g>
<g>
</g>
<g>
</g>
<g>
</g>
<g>
</g>
<g>
</g>
<g>
</g>
<g>
</g>
</svg>
