<svg id="Capa_1" enable-background="new 0 0 512 512" height="512" viewBox="0 0 512 512" width="512" xmlns="http://www.w3.org/2000/svg"><path d="m8 418.897c.001.001.002.002.003.003 113.466 113.466 297.431 113.466 410.897 0s113.466-297.431 0-410.897c-.001-.001-.002-.002-.003-.003z" fill="#98db7c"/><path d="m418.9 391.9c-108.93 108.93-282.822 113.265-396.947 13.045l-13.953 13.952c.001.001.002.002.003.003 113.466 113.466 297.431 113.466 410.897 0 60.168-60.168 88.425-140.158 84.783-218.949-3.226 69.797-31.484 138.651-84.783 191.949z" fill="#82d361"/><path d="m41.638 385.26c.001.001.002.002.003.003 94.889 94.888 248.734 94.889 343.622 0 94.889-94.888 94.888-248.733 0-343.622-.001-.001-.002-.002-.003-.003z" fill="#ff4755"/><path d="m385.263 358.263c-90.346 90.346-234.136 94.667-329.599 12.971l-14.026 14.026c.001.001.002.002.003.003 94.889 94.888 248.734 94.888 343.622 0 50.879-50.879 74.462-118.708 70.778-185.311-3.186 57.61-26.769 114.301-70.778 158.311z" fill="#fc2b3a"/><path d="m502.799 139.62c-13.163-51.861-40.226-99.379-78.267-137.42-2.934-2.934-7.693-2.934-10.627 0l-133.885 133.885c-2.935 2.935-2.935 7.693 0 10.628 2.934 2.933 7.693 2.933 10.627 0l94.775-94.775c41.248 43.894 63.886 100.92 63.886 161.431 0 63.022-24.542 122.271-69.105 166.833-54.982 54.983-133.518 79.326-210.074 65.133-4.026-.742-8.012 1.992-8.759 6.019-.747 4.026 1.992 8.012 6.018 8.758 15.293 2.837 30.651 4.226 45.912 4.226 65.999 0 130.029-26.009 177.529-73.508 47.402-47.401 73.507-110.425 73.507-177.461 0-64.526-24.197-125.327-68.282-172.065l23.092-23.092c33.373 35.18 57.199 78.282 69.083 125.106 12.14 47.83 11.619 98.244-1.507 145.793-1.061 3.842 1.172 7.961 4.974 9.164 4.009 1.268 8.395-1.112 9.513-5.164 13.822-50.061 14.371-103.137 1.59-153.491z"/><path d="m487.221 312.628c-3.865-1.513-8.224.395-9.737 4.259-14.267 36.458-35.657 69.1-63.576 97.018-53.566 53.567-124.784 83.066-200.537 83.066-73.242 0-142.248-27.578-195.158-77.823l23.087-23.088c27.35 25.751 60.384 45.224 95.975 56.514 4.065 1.294 8.486-1.177 9.551-5.296.985-3.81-1.259-7.841-5.006-9.029-33.811-10.726-64.014-28.484-89.888-52.821l217.46-217.46c2.935-2.936 2.935-7.693 0-10.628-2.935-2.934-7.693-2.934-10.627 0l-256.562 256.562c-2.935 2.935-2.932 7.696.003 10.631 56.404 56.404 131.397 87.467 211.164 87.467s154.76-31.063 211.165-87.467c29.394-29.393 51.917-63.768 66.945-102.168 1.512-3.865-.395-8.224-4.259-9.737z"/><path d="m301.232 315.516c3.816 0 7.403-1.486 10.101-4.184 2.699-2.698 4.185-6.286 4.185-10.102s-1.486-7.403-4.184-10.102c0-.001-.001-.001-.001-.002-2.032-2.031-17.381-13.61-25.597-5.392-2.467 2.468-4.619 7.214-.857 15.811 1.646 3.761 4.159 7.694 6.251 9.786 2.697 2.698 6.285 4.185 10.102 4.185z"/><path d="m226.908 320.734c-11.498 1.697-11.356 20.918-10.937 23.763 1.045 7.091 7.16 12.206 14.126 12.206 5.939 0 11.369-3.806 13.42-9.373 2.226-6.042-.384-12.568-3.405-17.852-4.657-8.147-9.75-9.247-13.204-8.744z"/><path d="m138.187 342.203c-1.335 3.574-1.197 7.456.387 10.927 2.379 5.212 7.803 8.568 13.539 8.351 5.711-.217 10.848-3.942 12.842-9.287 1.036-2.774 1.688-7.394 1.624-11.498-.147-9.384-4.076-12.809-7.345-14.028-10.89-4.066-20.043 12.844-21.047 15.535z"/><path d="m320.736 226.908c-1.694 11.499 16.755 16.909 19.596 17.328 7.712 1.131 15.082-4.347 16.218-12.051 1.136-7.709-4.353-15.083-12.051-16.216-2.846-.416-22.067-.56-23.763 10.939z"/><path d="m340.697 166.576c3.802.06 7.909-.283 11.498-1.623 7.288-2.719 11.117-11.076 8.389-18.379-2.72-7.288-11.074-11.115-18.379-8.39-2.774 1.035-6.693 3.57-9.751 6.308-6.993 6.259-7.006 11.471-5.785 14.741 1.221 3.269 4.645 7.196 14.028 7.343z"/></svg>